OpenSans-ExtraBold.ufo
<glyph name="dollar" format="1">
  <advance width="1200"/>
  <unicode hex="0024"/>
  <note>
dollar
</note>
  <outline>
    <contour>
      <point x="504" y="-119" type="line"/>
      <point x="504.0" y="68.0" type="line"/>
      <point x="281.8683009518842" y="78.65014995436172"/>
      <point x="82" y="166" type="qcurve"/>
      <point x="82.0" y="498.0" type="line"/>
      <point x="180.25" y="447.75"/>
      <point x="406.5" y="375.25"/>
      <point x="504" y="364" type="qcurve"/>
      <point x="504" y="601" type="line"/>
      <point x="434.0" y="627.0" type="line" smooth="yes"/>
      <point x="186.04861524717094" y="719.4315812983918"/>
      <point x="116.0" y="864.0" type="qcurve" smooth="yes"/>
      <point x="80.0" y="936.0"/>
      <point x="80.0" y="1044.0" type="qcurve" smooth="yes"/>
      <point x="80.0" y="1373.5512367491167"/>
      <point x="504" y="1417" type="qcurve"/>
      <point x="504" y="1554" type="line"/>
      <point x="711" y="1554" type="line"/>
      <point x="711.0" y="1419.0" type="line"/>
      <point x="810.75" y="1414.5"/>
      <point x="1010.75" y="1364.5"/>
      <point x="1112" y="1321" type="qcurve"/>
      <point x="993.0" y="1036.0" type="line"/>
      <point x="841.5" y="1105.0"/>
      <point x="711" y="1123" type="qcurve"/>
      <point x="711" y="898" type="line"/>
      <point x="737.0" y="889.0" type="line" smooth="yes"/>
      <point x="946.25" y="814.75"/>
      <point x="1128.0" y="626.25"/>
      <point x="1128.0" y="477.0" type="qcurve" smooth="yes"/>
      <point x="1128.0" y="309.0"/>
      <point x="915.0" y="98.75"/>
      <point x="711" y="74" type="qcurve"/>
      <point x="711" y="-119" type="line"/>
    </contour>
    <contour>
      <point x="711" y="389" type="line"/>
      <point x="737.0" y="409.22222222222223"/>
      <point x="737.0" y="449.0" type="qcurve" smooth="yes"/>
      <point x="737.0" y="479.8888888888889"/>
      <point x="711" y="503" type="qcurve"/>
    </contour>
    <contour>
      <point x="504" y="991" type="qcurve"/>
      <point x="504.0" y="1111.0" type="line"/>
      <point x="471.0" y="1092.3478260869565"/>
      <point x="471.0" y="1053.0" type="qcurve" smooth="yes"/>
      <point x="471.0" y="1016.8260869565217"/>
    </contour>
  </outline>
</glyph>
<glyph name="parenleft" format="1">
  <advance width="735"/>
  <unicode hex="0028"/>
  <note>
parenleft
</note>
  <outline>
    <contour>
      <point x="354" y="-324" type="line"/>
      <point x="74.0" y="-1.1584699453551792"/>
      <point x="74.0" y="582.0" type="qcurve" smooth="yes"/>
      <point x="74.0" y="1168.2173913043478"/>
      <point x="354" y="1503" type="qcurve"/>
      <point x="680.0" y="1503.0" type="line"/>
      <point x="554.0" y="1328.25"/>
      <point x="418.0" y="854.0"/>
      <point x="418.0" y="584.0" type="qcurve" smooth="yes"/>
      <point x="418.0" y="323.0"/>
      <point x="549.75" y="-146.25"/>
      <point x="678" y="-324" type="qcurve"/>
    </contour>
  </outline>
</glyph>
<glyph name="parenright" format="1">
  <advance width="735"/>
  <unicode hex="0029"/>
  <note>
parenright
</note>
  <outline>
    <contour>
      <point x="57" y="-324" type="line"/>
      <point x="183.0" y="-152.25"/>
      <point x="317.0" y="320.75"/>
      <point x="317.0" y="584.0" type="qcurve" smooth="yes"/>
      <point x="317.0" y="848.75"/>
      <point x="184.75" y="1322.25"/>
      <point x="55" y="1503" type="qcurve"/>
      <point x="381.0" y="1503.0" type="line"/>
      <point x="519.75" y="1337.25"/>
      <point x="662.0" y="864.75"/>
      <point x="662.0" y="582.0" type="qcurve" smooth="yes"/>
      <point x="662.0" y="299.25"/>
      <point x="519.0" y="-164.25"/>
      <point x="381" y="-324" type="qcurve"/>
    </contour>
  </outline>
</glyph>
<glyph name="one" format="1">
  <advance width="1200"/>
  <unicode hex="0031"/>
  <outline>
    <contour>
      <point x="541" y="0" type="line"/>
      <point x="541.0" y="774.0" type="line" smooth="yes"/>
      <point x="541.0" y="915.0"/>
      <point x="547.0" y="1032.0" type="qcurve"/>
      <point x="508.2280701754386" y="985.4736842105264"/>
      <point x="455.0" y="938.0" type="qcurve" smooth="yes"/>
      <point x="413.75" y="903.5"/>
      <point x="330.25" y="835.5"/>
      <point x="289" y="801" type="qcurve"/>
      <point x="84" y="1053" type="line"/>
      <point x="586" y="1462" type="line"/>
      <point x="942" y="1462" type="line"/>
      <point x="942" y="0" type="line"/>
    </contour>
  </outline>
</glyph>
<glyph name="four" format="1">
  <advance width="1200"/>
  <unicode hex="0034"/>
  <outline>
    <contour>
      <point x="618" y="0" type="line"/>
      <point x="618" y="283" type="line"/>
      <point x="35" y="283" type="line"/>
      <point x="35" y="573" type="line"/>
      <point x="643" y="1462" type="line"/>
      <point x="1008" y="1462" type="line"/>
      <point x="1008" y="578" type="line"/>
      <point x="1169" y="578" type="line"/>
      <point x="1169" y="283" type="line"/>
      <point x="1008" y="283" type="line"/>
      <point x="1008" y="0" type="line"/>
    </contour>
    <contour>
      <point x="377" y="578" type="line"/>
      <point x="618" y="578" type="line"/>
      <point x="618.0" y="748.0" type="line" smooth="yes"/>
      <point x="618.0" y="780.0"/>
      <point x="621.25" y="880.0833333333333"/>
      <point x="625.5" y="960.5"/>
      <point x="627" y="963" type="qcurve"/>
      <point x="616.0" y="963.0" type="line"/>
      <point x="598.75" y="924.75"/>
      <point x="560.75" y="852.75"/>
      <point x="539" y="819" type="qcurve" smooth="yes"/>
    </contour>
  </outline>
</glyph>
<glyph name="five" format="1">
  <advance width="1200"/>
  <unicode hex="0035"/>
  <outline>
    <contour>
      <point x="512.0" y="-20.0" type="qcurve" smooth="yes"/>
      <point x="254.9811320754717" y="-20.0"/>
      <point x="94" y="59" type="qcurve"/>
      <point x="94.0" y="383.0" type="line"/>
      <point x="181.0" y="343.25"/>
      <point x="400.25" y="291.0"/>
      <point x="479.0" y="291.0" type="qcurve" smooth="yes"/>
      <point x="589.25" y="291.0"/>
      <point x="707.0" y="384.25"/>
      <point x="707.0" y="475.0" type="qcurve" smooth="yes"/>
      <point x="707.0" y="559.0"/>
      <point x="587.25" y="653.0"/>
      <point x="465.0" y="653.0" type="qcurve" smooth="yes"/>
      <point x="373.5652173913044" y="653.0"/>
      <point x="264" y="618" type="qcurve"/>
      <point x="119" y="690" type="line"/>
      <point x="174" y="1462" type="line"/>
      <point x="1008" y="1462" type="line"/>
      <point x="1008" y="1133" type="line"/>
      <point x="510" y="1133" type="line"/>
      <point x="492.0" y="940.0" type="line"/>
      <point x="548.25" y="950.5"/>
      <point x="609.25" y="958.0"/>
      <point x="664.0" y="958.0" type="qcurve" smooth="yes"/>
      <point x="797.0" y="958.0"/>
      <point x="995.8333333333334" y="837.0833333333334"/>
      <point x="1106.0" y="624.5"/>
      <point x="1106.0" y="487.0" type="qcurve" smooth="yes"/>
      <point x="1106.0" y="241.75"/>
      <point x="811.25" y="-20.0"/>
    </contour>
  </outline>
</glyph>
<glyph name="six" format="1">
  <advance width="1200"/>
  <unicode hex="0036"/>
  <outline>
    <contour>
      <point x="621.0" y="-20.0" type="qcurve" smooth="yes"/>
      <point x="362.25" y="-20.0"/>
      <point x="70.0" y="315.75"/>
      <point x="70.0" y="618.0" type="qcurve" smooth="yes"/>
      <point x="70.0" y="924.0"/>
      <point x="245.0" y="1303.0"/>
      <point x="416.0" y="1393.0" type="qcurve" smooth="yes"/>
      <point x="585.5" y="1483.0"/>
      <point x="836.0" y="1483.0" type="qcurve" smooth="yes"/>
      <point x="921.9090909090909" y="1483.0"/>
      <point x="1044" y="1466" type="qcurve"/>
      <point x="1044.0" y="1157.0" type="line"/>
      <point x="946.0769230769231" y="1176.0"/>
      <point x="827.0" y="1176.0" type="qcurve" smooth="yes"/>
      <point x="660.6585365853658" y="1176.0"/>
      <point x="567.0" y="1116.0" type="qcurve" smooth="yes"/>
      <point x="436.40202753820546" y="1032.3586019064912"/>
      <point x="426" y="805" type="qcurve"/>
      <point x="438.0" y="805.0" type="line"/>
      <point x="528.2654867256637" y="975.0"/>
      <point x="727.0" y="975.0" type="qcurve" smooth="yes"/>
      <point x="922.0" y="975.0"/>
      <point x="1137.0" y="724.25"/>
      <point x="1137.0" y="500.0" type="qcurve" smooth="yes"/>
      <point x="1137.0" y="259.25"/>
      <point x="864.75" y="-20.0"/>
    </contour>
    <contour>
      <point x="612.0" y="293.0" type="qcurve" smooth="yes"/>
      <point x="681.8888888888889" y="293.0"/>
      <point x="718.0" y="345.0" type="qcurve" smooth="yes"/>
      <point x="754.0" y="395.0869565217391"/>
      <point x="754.0" y="492.0" type="qcurve" smooth="yes"/>
      <point x="754.0" y="670.0"/>
      <point x="616.0" y="670.0" type="qcurve" smooth="yes"/>
      <point x="545.4193548387096" y="670.0"/>
      <point x="501.0" y="619.0" type="qcurve" smooth="yes"/>
      <point x="463.0" y="574.6666666666666"/>
      <point x="463.0" y="512.0" type="qcurve" smooth="yes"/>
      <point x="463.0" y="424.72727272727275"/>
      <point x="497.0" y="366.0" type="qcurve" smooth="yes"/>
      <point x="538.2608695652174" y="293.0"/>
    </contour>
  </outline>
</glyph>
<glyph name="colon" format="1">
  <advance width="592"/>
  <unicode hex="003A"/>
  <note>
colon
</note>
  <outline>
    <contour>
      <point x="299.0" y="764.0" type="qcurve" smooth="yes"/>
      <point x="197.0" y="764.0"/>
      <point x="86.0" y="866.0"/>
      <point x="86.0" y="956.0" type="qcurve" smooth="yes"/>
      <point x="86.0" y="1046.75"/>
      <point x="196.25" y="1147.0"/>
      <point x="299.0" y="1147.0" type="qcurve" smooth="yes"/>
      <point x="398.0" y="1147.0"/>
      <point x="504.0" y="1046.75"/>
      <point x="504.0" y="956.0" type="qcurve" smooth="yes"/>
      <point x="504.0" y="866.0"/>
      <point x="395.75" y="764.0"/>
    </contour>
    <contour>
      <point x="299.0" y="-25.0" type="qcurve" smooth="yes"/>
      <point x="200.0" y="-25.0"/>
      <point x="86.0" y="75.25"/>
      <point x="86.0" y="166.0" type="qcurve" smooth="yes"/>
      <point x="86.0" y="258.25"/>
      <point x="194.75" y="358.0"/>
      <point x="299.0" y="358.0" type="qcurve" smooth="yes"/>
      <point x="398.0" y="358.0"/>
      <point x="504.0" y="258.25"/>
      <point x="504.0" y="166.0" type="qcurve" smooth="yes"/>
      <point x="504.0" y="76.0"/>
      <point x="395.0" y="-25.0"/>
    </contour>
  </outline>
</glyph>
<glyph name="semicolon" format="1">
  <advance width="608"/>
  <unicode hex="003B"/>
  <note>
semicolon
</note>
  <outline>
    <contour>
      <point x="57" y="-285" type="line"/>
      <point x="76.5" y="-193.0"/>
      <point x="116.49999999999999" y="26.58333333333332"/>
      <point x="148.5" y="230.5"/>
      <point x="156" y="299" type="qcurve"/>
      <point x="498" y="299" type="line"/>
      <point x="512.0" y="276.0" type="line"/>
      <point x="463.25" y="85.5"/>
      <point x="375.75" y="-195.0"/>
      <point x="336" y="-285" type="qcurve"/>
    </contour>
    <contour>
      <point x="303.0" y="764.0" type="qcurve" smooth="yes"/>
      <point x="201.0" y="764.0"/>
      <point x="92.0" y="865.25"/>
      <point x="92.0" y="956.0" type="qcurve" smooth="yes"/>
      <point x="92.0" y="1046.75"/>
      <point x="198.75" y="1147.0"/>
      <point x="303.0" y="1147.0" type="qcurve" smooth="yes"/>
      <point x="402.75" y="1147.0"/>
      <point x="510.0" y="1046.0"/>
      <point x="510.0" y="956.0" type="qcurve" smooth="yes"/>
      <point x="510.0" y="866.0"/>
      <point x="402.0" y="764.0"/>
    </contour>
  </outline>
</glyph>
<glyph name="less" format="1">
  <advance width="1159"/>
  <unicode hex="003C"/>
  <note>
less
</note>
  <outline>
    <contour>
      <point x="1083" y="178" type="line"/>
      <point x="72" y="627" type="line"/>
      <point x="72" y="799" type="line"/>
      <point x="1083" y="1305" type="line"/>
      <point x="1083" y="1008" type="line"/>
      <point x="463" y="725" type="line"/>
      <point x="1083" y="473" type="line"/>
    </contour>
  </outline>
</glyph>
<glyph name="question" format="1">
  <advance width="1034"/>
  <unicode hex="003F"/>
  <note>
question
</note>
  <outline>
    <contour>
      <point x="295" y="516" type="line"/>
      <point x="295.0" y="602.0" type="line" smooth="yes"/>
      <point x="295.0" y="700.25"/>
      <point x="375.0" y="835.25"/>
      <point x="477.0" y="899.0" type="qcurve" smooth="yes"/>
      <point x="517.5" y="924.5"/>
      <point x="546.0" y="947.0" type="qcurve" smooth="yes"/>
      <point x="629.0" y="1011.3965517241379"/>
      <point x="629.0" y="1085.0" type="qcurve" smooth="yes"/>
      <point x="629.0" y="1127.0"/>
      <point x="552.75" y="1176.0"/>
      <point x="492.0" y="1176.0" type="qcurve" smooth="yes"/>
      <point x="342.4507042253521" y="1176.0"/>
      <point x="139" y="1069" type="qcurve"/>
      <point x="0.0" y="1341.0" type="line"/>
      <point x="248.12631578947367" y="1483.0"/>
      <point x="520.0" y="1483.0" type="qcurve" smooth="yes"/>
      <point x="742.75" y="1483.0"/>
      <point x="997.0" y="1286.75"/>
      <point x="997.0" y="1118.0" type="qcurve" smooth="yes"/>
      <point x="997.0" y="985.4255319148937"/>
      <point x="928.0" y="890.0" type="qcurve" smooth="yes"/>
      <point x="871.5644937586685" y="811.8585298196949"/>
      <point x="760.0" y="741.0" type="qcurve" smooth="yes"/>
      <point x="653.9574468085107" y="672.8297872340426"/>
      <point x="629.0" y="642.0" type="qcurve" smooth="yes"/>
      <point x="602.0" y="610.5"/>
      <point x="602" y="567" type="qcurve" smooth="yes"/>
      <point x="602" y="516" type="line"/>
    </contour>
    <contour>
      <point x="463.0" y="-25.0" type="qcurve" smooth="yes"/>
      <point x="364.0" y="-25.0"/>
      <point x="252.0" y="73.75"/>
      <point x="252.0" y="166.0" type="qcurve" smooth="yes"/>
      <point x="252.0" y="258.25"/>
      <point x="358.75" y="358.0"/>
      <point x="463.0" y="358.0" type="qcurve" smooth="yes"/>
      <point x="562.75" y="358.0"/>
      <point x="670.0" y="256.75"/>
      <point x="670.0" y="166.0" type="qcurve" smooth="yes"/>
      <point x="670.0" y="75.25"/>
      <point x="559.0" y="-25.0"/>
    </contour>
  </outline>
</glyph>
<glyph name="at" format="1">
  <advance width="1837"/>
  <unicode hex="0040"/>
  <note>
at
</note>
  <outline>
    <contour>
      <point x="913.0" y="-154.0" type="qcurve" smooth="yes"/>
      <point x="654.5" y="-154.0"/>
      <point x="282.08333333333337" y="28.41666666666667"/>
      <point x="82.0" y="370.5"/>
      <point x="82.0" y="610.0" type="qcurve" smooth="yes"/>
      <point x="82.0" y="802.75"/>
      <point x="211.55729166666666" y="1122.0833333333333"/>
      <point x="448.6927083333333" y="1354.4166666666667"/>
      <point x="773.625" y="1481.0"/>
      <point x="969.0" y="1481.0" type="qcurve" smooth="yes"/>
      <point x="1201.5" y="1481.0"/>
      <point x="1555.7499999999998" y="1308.083333333333"/>
      <point x="1755.0" y="983.5"/>
      <point x="1755.0" y="756.0" type="qcurve" smooth="yes"/>
      <point x="1755.0" y="623.5"/>
      <point x="1665.9166666666665" y="384.0833333333333"/>
      <point x="1496.5" y="233.0"/>
      <point x="1376.0" y="233.0" type="qcurve" smooth="yes"/>
      <point x="1297.25" y="233.0"/>
      <point x="1169.0" y="295.75"/>
      <point x="1133" y="352" type="qcurve"/>
      <point x="1118.0" y="352.0" type="line"/>
      <point x="1011.0506329113924" y="233.0"/>
      <point x="858.0" y="233.0" type="qcurve" smooth="yes"/>
      <point x="675.0" y="233.0"/>
      <point x="479.0" y="447.0"/>
      <point x="479.0" y="639.0" type="qcurve" smooth="yes"/>
      <point x="479.0" y="787.5"/>
      <point x="607.0833333333333" y="1000.25"/>
      <point x="837.5" y="1114.0"/>
      <point x="991.0" y="1114.0" type="qcurve" smooth="yes"/>
      <point x="1072.0" y="1114.0"/>
      <point x="1267.0" y="1080.75"/>
      <point x="1348" y="1053" type="qcurve"/>
      <point x="1327.0" y="631.0" type="line" smooth="yes"/>
      <point x="1326.25" y="607.75"/>
      <point x="1325.75" y="560.25"/>
      <point x="1325.0" y="537.0" type="qcurve"/>
      <point x="1325.0" y="492.6666666666667"/>
      <point x="1338.0" y="471.0" type="qcurve" smooth="yes"/>
      <point x="1350.3076923076924" y="451.0"/>
      <point x="1374.0" y="451.0" type="qcurve" smooth="yes"/>
      <point x="1417.0" y="451.0"/>
      <point x="1468.333333333333" y="550.3333333333333"/>
      <point x="1491.0" y="693.0"/>
      <point x="1491.0" y="758.0" type="qcurve" smooth="yes"/>
      <point x="1491.0" y="997.25"/>
      <point x="1221.25" y="1257.0"/>
      <point x="973.0" y="1257.0" type="qcurve" smooth="yes"/>
      <point x="778.0" y="1257.0"/>
      <point x="500.99999999999994" y="1096.9166666666665"/>
      <point x="354.0" y="804.5"/>
      <point x="354.0" y="606.0" type="qcurve" smooth="yes"/>
      <point x="354.0" y="351.0"/>
      <point x="638.75" y="74.0"/>
      <point x="899.0" y="74.0" type="qcurve" smooth="yes"/>
      <point x="1015.25" y="74.0"/>
      <point x="1284.0" y="124.25"/>
      <point x="1413" y="170" type="qcurve"/>
      <point x="1413.0" y="-59.0" type="line"/>
      <point x="1188.3174603174602" y="-154.0"/>
    </contour>
    <contour>
      <point x="893.0" y="451.0" type="qcurve" smooth="yes"/>
      <point x="969.7073170731708" y="451.0"/>
      <point x="1006.0" y="513.0" type="qcurve" smooth="yes"/>
      <point x="1042.4890282131662" y="575.3354231974922"/>
      <point x="1053" y="733" type="qcurve" smooth="yes"/>
      <point x="1063.0" y="889.0" type="line"/>
      <point x="1022.5" y="895.0"/>
      <point x="995.0" y="895.0" type="qcurve" smooth="yes"/>
      <point x="912.5" y="895.0"/>
      <point x="857.0" y="856.0" type="qcurve" smooth="yes"/>
      <point x="760.0" y="791.8548387096774"/>
      <point x="760.0" y="641.0" type="qcurve" smooth="yes"/>
      <point x="760.0" y="540.6"/>
      <point x="800.0" y="491.0" type="qcurve" smooth="yes"/>
      <point x="834.074074074074" y="451.0"/>
    </contour>
  </outline>
</glyph>
<glyph name="F" format="1">
  <advance width="1104"/>
  <unicode hex="0046"/>
  <outline>
    <contour>
      <point x="547" y="549" type="line"/>
      <point x="547" y="0" type="line"/>
      <point x="158" y="0" type="line"/>
      <point x="158" y="1462" type="line"/>
      <point x="1022" y="1462" type="line"/>
      <point x="1022" y="1145" type="line"/>
      <point x="547" y="1145" type="line"/>
      <point x="547" y="866" type="line"/>
      <point x="985" y="866" type="line"/>
      <point x="985" y="549" type="line"/>
    </contour>
    <contour>
      <point x="552" y="0" type="move" name="bottom"/>
    </contour>
    <contour>
      <point x="552" y="1462" type="move" name="top"/>
    </contour>
  </outline>
</glyph>
<glyph name="H" format="1">
  <advance width="1569"/>
  <unicode hex="0048"/>
  <outline>
    <contour>
      <point x="1411" y="1462" type="line"/>
      <point x="1411" y="0" type="line"/>
      <point x="1014" y="0" type="line"/>
      <point x="1014" y="596" type="line"/>
      <point x="555" y="596" type="line"/>
      <point x="555" y="0" type="line"/>
      <point x="158" y="0" type="line"/>
      <point x="158" y="1462" type="line"/>
      <point x="555" y="1462" type="line"/>
      <point x="555" y="920" type="line"/>
      <point x="1014" y="920" type="line"/>
      <point x="1014" y="1462" type="line"/>
    </contour>
    <contour>
      <point x="785" y="0" type="move" name="bottom"/>
    </contour>
    <contour>
      <point x="785" y="731" type="move" name="center"/>
    </contour>
    <contour>
      <point x="785" y="1462" type="move" name="top"/>
    </contour>
    <contour>
      <point x="20" y="1462" type="move" name="topleft"/>
    </contour>
  </outline>
</glyph>
<glyph name="K" format="1">
  <advance width="1407"/>
  <unicode hex="004B"/>
  <outline>
    <contour>
      <point x="954" y="807" type="line"/>
      <point x="1407" y="0" type="line"/>
      <point x="961" y="0" type="line"/>
      <point x="672" y="559" type="line"/>
      <point x="555" y="489" type="line"/>
      <point x="555" y="0" type="line"/>
      <point x="158" y="0" type="line"/>
      <point x="158" y="1462" type="line"/>
      <point x="555" y="1462" type="line"/>
      <point x="555.0" y="827.0" type="line"/>
      <point x="570.0" y="856.25"/>
      <point x="630.25" y="950.25"/>
      <point x="676" y="1014" type="qcurve" smooth="yes"/>
      <point x="983" y="1462" type="line"/>
      <point x="1415" y="1462" type="line"/>
    </contour>
    <contour>
      <point x="704" y="0" type="move" name="bottom"/>
    </contour>
    <contour>
      <point x="704" y="1462" type="move" name="top"/>
    </contour>
  </outline>
</glyph>
<glyph name="L" format="1">
  <advance width="1192"/>
  <unicode hex="004C"/>
  <outline>
    <contour>
      <point x="1116" y="0" type="line"/>
      <point x="158" y="0" type="line"/>
      <point x="158" y="1462" type="line"/>
      <point x="553" y="1462" type="line"/>
      <point x="553" y="319" type="line"/>
      <point x="1116" y="319" type="line"/>
    </contour>
    <contour>
      <point x="596.567" y="0" type="move" name="bottom"/>
    </contour>
    <contour>
      <point x="596.567" y="731" type="move" name="center"/>
    </contour>
    <contour>
      <point x="483.151" y="1462" type="move" name="top"/>
    </contour>
    <contour>
      <point x="1141" y="1462" type="move" name="topright"/>
    </contour>
  </outline>
</glyph>
<glyph name="M" format="1">
  <advance width="1980"/>
  <unicode hex="004D"/>
  <outline>
    <contour>
      <point x="158" y="0" type="line"/>
      <point x="158" y="1462" type="line"/>
      <point x="684" y="1462" type="line"/>
      <point x="909.0" y="696.0" type="line" smooth="yes"/>
      <point x="929.25" y="627.75"/>
      <point x="968.75" y="492.25"/>
      <point x="989" y="424" type="qcurve"/>
      <point x="997.0" y="424.0" type="line"/>
      <point x="1017.25" y="493.0"/>
      <point x="1056.75" y="632.0"/>
      <point x="1077" y="701" type="qcurve" smooth="yes"/>
      <point x="1296" y="1462" type="line"/>
      <point x="1823" y="1462" type="line"/>
      <point x="1823" y="0" type="line"/>
      <point x="1460" y="0" type="line"/>
      <point x="1460.0" y="641.0" type="line" smooth="yes"/>
      <point x="1460.0" y="679.0"/>
      <point x="1464.5833333333333" y="817.6666666666666"/>
      <point x="1471.5" y="979.0"/>
      <point x="1475" y="1051" type="qcurve"/>
      <point x="1466" y="1051" type="line"/>
      <point x="1171" y="0" type="line"/>
      <point x="795" y="0" type="line"/>
      <point x="496" y="1053" type="line"/>
      <point x="487.0" y="1053.0" type="line"/>
      <point x="508.0" y="784.5"/>
      <point x="508" y="635" type="qcurve" smooth="yes"/>
      <point x="508" y="0" type="line"/>
    </contour>
    <contour>
      <point x="990" y="0" type="move" name="bottom"/>
    </contour>
    <contour>
      <point x="990" y="1462" type="move" name="top"/>
    </contour>
  </outline>
</glyph>
<glyph name="N" format="1">
  <advance width="1708"/>
  <unicode hex="004E"/>
  <outline>
    <contour>
      <point x="158" y="0" type="line"/>
      <point x="158" y="1462" type="line"/>
      <point x="674" y="1462" type="line"/>
      <point x="1206" y="446" type="line"/>
      <point x="1212.0" y="446.0" type="line"/>
      <point x="1205.25" y="556.25"/>
      <point x="1198.0" y="734.25"/>
      <point x="1198" y="801" type="qcurve" smooth="yes"/>
      <point x="1198" y="1462" type="line"/>
      <point x="1550" y="1462" type="line"/>
      <point x="1550" y="0" type="line"/>
      <point x="1032" y="0" type="line"/>
      <point x="498" y="1030" type="line"/>
      <point x="489.0" y="1030.0" type="line"/>
      <point x="498.75" y="908.5"/>
      <point x="508.0" y="722.75"/>
      <point x="508" y="659" type="qcurve" smooth="yes"/>
      <point x="508" y="0" type="line"/>
    </contour>
    <contour>
      <point x="854" y="0" type="move" name="bottom"/>
    </contour>
    <contour>
      <point x="854" y="1462" type="move" name="top"/>
    </contour>
  </outline>
</glyph>
<glyph name="P" format="1">
  <advance width="1294"/>
  <unicode hex="0050"/>
  <outline>
    <contour>
      <point x="158" y="0" type="line"/>
      <point x="158" y="1462" type="line"/>
      <point x="664.0" y="1462.0" type="line" smooth="yes"/>
      <point x="940.75" y="1462.0"/>
      <point x="1219.0" y="1219.75"/>
      <point x="1219.0" y="997.0" type="qcurve" smooth="yes"/>
      <point x="1219.0" y="751.75"/>
      <point x="930.25" y="485.0"/>
      <point x="664" y="485" type="qcurve" smooth="yes"/>
      <point x="553" y="485" type="line"/>
      <point x="553" y="0" type="line"/>
    </contour>
    <contour>
      <point x="553" y="807" type="line"/>
      <point x="625.0" y="807.0" type="line" smooth="yes"/>
      <point x="714.25" y="807.0"/>
      <point x="819.0" y="907.25"/>
      <point x="819.0" y="995.0" type="qcurve" smooth="yes"/>
      <point x="819.0" y="1143.0"/>
      <point x="655" y="1143" type="qcurve" smooth="yes"/>
      <point x="553" y="1143" type="line"/>
    </contour>
    <contour>
      <point x="647" y="0" type="move" name="bottom"/>
    </contour>
    <contour>
      <point x="647" y="1462" type="move" name="top"/>
    </contour>
  </outline>
</glyph>
<glyph name="T" format="1">
  <advance width="1210"/>
  <unicode hex="0054"/>
  <outline>
    <contour>
      <point x="803" y="1139" type="line"/>
      <point x="1159" y="1139" type="line"/>
      <point x="1159" y="1462" type="line"/>
      <point x="51" y="1462" type="line"/>
      <point x="51" y="1139" type="line"/>
      <point x="408" y="1139" type="line"/>
      <point x="408" y="0" type="line"/>
      <point x="803" y="0" type="line"/>
    </contour>
    <contour>
      <point x="580.755" y="0" type="move" name="bottom"/>
    </contour>
    <contour>
      <point x="605.564" y="731" type="move" name="center"/>
    </contour>
    <contour>
      <point x="605.564" y="1462" type="move" name="top"/>
    </contour>
  </outline>
</glyph>
<glyph name="U" format="1">
  <advance width="1550"/>
  <unicode hex="0055"/>
  <outline>
    <contour>
      <point x="770" y="-20" type="curve" smooth="yes"/>
      <point x="1178" y="-20"/>
      <point x="1401" y="199"/>
      <point x="1401" y="582" type="curve" smooth="yes"/>
      <point x="1401" y="1462" type="line"/>
      <point x="1006" y="1462" type="line"/>
      <point x="1006" y="606" type="line" smooth="yes"/>
      <point x="1006" y="395"/>
      <point x="937" y="309"/>
      <point x="776" y="309" type="curve" smooth="yes"/>
      <point x="625" y="309"/>
      <point x="547" y="397"/>
      <point x="547" y="604" type="curve" smooth="yes"/>
      <point x="547" y="1462" type="line"/>
      <point x="150" y="1462" type="line"/>
      <point x="150" y="573" type="line" smooth="yes"/>
      <point x="150" y="190"/>
      <point x="371" y="-20"/>
    </contour>
    <contour>
      <point x="775" y="0" type="move" name="bottom"/>
    </contour>
    <contour>
      <point x="1035" y="10" type="move" name="ogonek"/>
    </contour>
    <contour>
      <point x="775" y="1462" type="move" name="top"/>
    </contour>
    <contour>
      <point x="1530" y="1462" type="move" name="topright"/>
    </contour>
  </outline>
</glyph>
<glyph name="W" format="1">
  <advance width="2128"/>
  <unicode hex="0057"/>
  <outline>
    <contour>
      <point x="393" y="0" type="line"/>
      <point x="860" y="0" type="line"/>
      <point x="1006" y="656" type="line" smooth="yes"/>
      <point x="1030" y="764"/>
      <point x="1056" y="908"/>
      <point x="1067" y="995" type="curve"/>
      <point x="1080" y="888"/>
      <point x="1118" y="691"/>
      <point x="1130" y="637" type="curve" smooth="yes"/>
      <point x="1270" y="0" type="line"/>
      <point x="1737" y="0" type="line"/>
      <point x="2097" y="1462" type="line"/>
      <point x="1716" y="1462" type="line"/>
      <point x="1554" y="727" type="line" smooth="yes"/>
      <point x="1514" y="544"/>
      <point x="1492" y="416"/>
      <point x="1483" y="342" type="curve"/>
      <point x="1468" y="457"/>
      <point x="1414" y="731"/>
      <point x="1374" y="909" type="curve" smooth="yes"/>
      <point x="1249" y="1462" type="line"/>
      <point x="883" y="1462" type="line"/>
      <point x="754" y="909" type="line" smooth="yes"/>
      <point x="718" y="755"/>
      <point x="662" y="478"/>
      <point x="645" y="342" type="curve"/>
      <point x="632" y="438"/>
      <point x="606" y="567"/>
      <point x="571" y="729" type="curve" smooth="yes"/>
      <point x="412" y="1462" type="line"/>
      <point x="31" y="1462" type="line"/>
    </contour>
    <contour>
      <point x="1064" y="0" type="move" name="bottom"/>
    </contour>
    <contour>
      <point x="1064" y="1462" type="move" name="top"/>
    </contour>
  </outline>
</glyph>
<glyph name="backslash" format="1">
  <advance width="905"/>
  <unicode hex="005C"/>
  <note>
    backslash
  </note>
  <outline>
    <contour>
      <point x="551" y="-20" type="line"/>
      <point x="897" y="-20" type="line"/>
      <point x="352" y="1483" type="line"/>
      <point x="6" y="1483" type="line"/>
    </contour>
  </outline>
</glyph>
<glyph name="underscore" format="1">
  <advance width="1024"/>
  <unicode hex="005F"/>
  <note>
underscore
</note>
  <outline>
    <contour>
      <point x="-4" y="-379" type="line"/>
      <point x="-4" y="-133" type="line"/>
      <point x="1028" y="-133" type="line"/>
      <point x="1028" y="-379" type="line"/>
    </contour>
  </outline>
</glyph>
<glyph name="a" format="1">
  <advance width="1276"/>
  <unicode hex="0061"/>
  <outline>
    <contour>
      <point x="1145" y="0" type="line"/>
      <point x="874" y="0" type="line"/>
      <point x="799" y="150" type="line"/>
      <point x="791.0" y="150.0" type="line"/>
      <point x="712.25" y="51.75"/>
      <point x="547.75" y="-20.0"/>
      <point x="418.0" y="-20.0" type="qcurve" smooth="yes"/>
      <point x="258.25" y="-20.0"/>
      <point x="74.0" y="172.0"/>
      <point x="74.0" y="346.0" type="qcurve" smooth="yes"/>
      <point x="74.0" y="526.75"/>
      <point x="325.75" y="707.5"/>
      <point x="565" y="715" type="qcurve" smooth="yes"/>
      <point x="754" y="721" type="line"/>
      <point x="754.0" y="737.0" type="line" smooth="yes"/>
      <point x="754.0" y="877.0"/>
      <point x="616.0" y="877.0" type="qcurve" smooth="yes"/>
      <point x="491.5" y="877.0"/>
      <point x="301" y="793" type="qcurve"/>
      <point x="188.0" y="1051.0" type="line"/>
      <point x="386.0" y="1153.0"/>
      <point x="688.0" y="1153.0" type="qcurve" smooth="yes"/>
      <point x="906.25" y="1153.0"/>
      <point x="1145.0" y="937.25"/>
      <point x="1145" y="743" type="qcurve" smooth="yes"/>
    </contour>
    <contour>
      <point x="584.0" y="256.0" type="qcurve" smooth="yes"/>
      <point x="655.25" y="256.0"/>
      <point x="756.0" y="346.0"/>
      <point x="756" y="418" type="qcurve" smooth="yes"/>
      <point x="756" y="506" type="line"/>
      <point x="666.0" y="502.0" type="line" smooth="yes"/>
      <point x="473.0" y="493.0232558139535"/>
      <point x="473.0" y="360.0" type="qcurve" smooth="yes"/>
      <point x="473.0" y="256.0"/>
    </contour>
    <contour>
      <point x="638" y="0" type="move" name="bottom"/>
    </contour>
    <contour>
      <point x="1157" y="10" type="move" name="ogonek"/>
    </contour>
    <contour>
      <point x="638" y="1133" type="move" name="top"/>
    </contour>
  </outline>
</glyph>
<glyph name="d" format="1">
  <advance width="1317"/>
  <unicode hex="0064"/>
  <outline>
    <contour>
      <point x="487.0" y="-20.0" type="qcurve" smooth="yes"/>
      <point x="348.0" y="-20.0"/>
      <point x="170.66666666666666" y="142.49999999999997"/>
      <point x="86.0" y="409.0"/>
      <point x="86.0" y="565.0" type="qcurve" smooth="yes"/>
      <point x="86.0" y="841.0"/>
      <point x="307.75" y="1153.0"/>
      <point x="502.0" y="1153.0" type="qcurve" smooth="yes"/>
      <point x="597.25" y="1153.0"/>
      <point x="739.75" y="1077.0"/>
      <point x="799" y="987" type="qcurve"/>
      <point x="807.0" y="987.0" type="line"/>
      <point x="788.0" y="1117.076923076923"/>
      <point x="788" y="1253" type="qcurve" smooth="yes"/>
      <point x="788" y="1556" type="line"/>
      <point x="1182" y="1556" type="line"/>
      <point x="1182" y="0" type="line"/>
      <point x="887" y="0" type="line"/>
      <point x="803" y="143" type="line"/>
      <point x="788.0" y="143.0" type="line"/>
      <point x="687.8073394495412" y="-20.0"/>
    </contour>
    <contour>
      <point x="647.0" y="289.0" type="qcurve" smooth="yes"/>
      <point x="740.75" y="289.0"/>
      <point x="818.0" y="407.0"/>
      <point x="821" y="530" type="qcurve" smooth="yes"/>
      <point x="821.0" y="561.0" type="line" smooth="yes"/>
      <point x="821.0" y="711.0"/>
      <point x="735.25" y="838.0"/>
      <point x="643.0" y="838.0" type="qcurve" smooth="yes"/>
      <point x="565.75" y="838.0"/>
      <point x="481.0" y="693.25"/>
      <point x="481.0" y="559.0" type="qcurve" smooth="yes"/>
      <point x="481.0" y="289.0"/>
    </contour>
    <contour>
      <point x="659.04" y="0" type="move" name="bottom"/>
    </contour>
    <contour>
      <point x="659.04" y="544" type="move" name="center"/>
    </contour>
    <contour>
      <point x="659.04" y="1087" type="move" name="top"/>
    </contour>
    <contour>
      <point x="1678" y="1556" type="move" name="topright"/>
    </contour>
  </outline>
</glyph>
<glyph name="f" format="1">
  <advance width="846"/>
  <unicode hex="0066"/>
  <outline>
    <contour>
      <point x="195" y="0" type="line"/>
      <point x="195" y="840" type="line"/>
      <point x="45" y="840" type="line"/>
      <point x="45" y="1032" type="line"/>
      <point x="203" y="1128" type="line"/>
      <point x="203.0" y="1147.0" type="line" smooth="yes"/>
      <point x="203.0" y="1371.25"/>
      <point x="386.25" y="1567.0"/>
      <point x="588.0" y="1567.0" type="qcurve" smooth="yes"/>
      <point x="666.0" y="1567.0"/>
      <point x="804.75" y="1543.0"/>
      <point x="897" y="1513" type="qcurve"/>
      <point x="813.0" y="1260.0" type="line"/>
      <point x="739.1538461538462" y="1280.0"/>
      <point x="672.0" y="1280.0" type="qcurve" smooth="yes"/>
      <point x="639.7777777777778" y="1280.0"/>
      <point x="621.0" y="1267.0" type="qcurve" smooth="yes"/>
      <point x="586.0" y="1242.2083333333333"/>
      <point x="586" y="1163" type="qcurve" smooth="yes"/>
      <point x="586" y="1133" type="line"/>
      <point x="827" y="1133" type="line"/>
      <point x="827" y="840" type="line"/>
      <point x="586" y="840" type="line"/>
      <point x="586" y="0" type="line"/>
    </contour>
    <contour>
      <point x="423" y="0" type="move" name="bottom"/>
    </contour>
    <contour>
      <point x="423" y="1133" type="move" name="top"/>
    </contour>
  </outline>
</glyph>
<glyph name="g" format="1">
  <advance width="1241"/>
  <unicode hex="0067"/>
  <outline>
    <contour>
      <point x="809" y="1133" type="qcurve"/>
      <point x="1204" y="1133" type="line"/>
      <point x="1204" y="944" type="line"/>
      <point x="1049.0" y="887.0" type="line"/>
      <point x="1081.0" y="827.5714285714286"/>
      <point x="1081.0" y="752.0" type="qcurve" smooth="yes"/>
      <point x="1081.0" y="569.0"/>
      <point x="824.0" y="367.0"/>
      <point x="569.0" y="367.0" type="qcurve" smooth="yes"/>
      <point x="509.0" y="367.0"/>
      <point x="469.0" y="375.0" type="qcurve"/>
      <point x="455.0" y="348.55555555555554"/>
      <point x="455.0" y="326.0" type="qcurve" smooth="yes"/>
      <point x="455.0" y="303.0"/>
      <point x="509.16666666666663" y="276.8333333333333"/>
      <point x="588.0" y="266.0"/>
      <point x="625" y="266" type="qcurve" smooth="yes"/>
      <point x="813.0" y="266.0" type="line" smooth="yes"/>
      <point x="1194.0" y="266.0"/>
      <point x="1194.0" y="-55.0" type="qcurve" smooth="yes"/>
      <point x="1194.0" y="-262.0"/>
      <point x="840.75" y="-492.0"/>
      <point x="522.0" y="-492.0" type="qcurve" smooth="yes"/>
      <point x="281.25" y="-492.0"/>
      <point x="20.0" y="-330.75"/>
      <point x="20.0" y="-180.0" type="qcurve" smooth="yes"/>
      <point x="20.0" y="23.5"/>
      <point x="272.0" y="82.0" type="qcurve"/>
      <point x="220.25" y="103.75"/>
      <point x="143.0" y="202.0"/>
      <point x="143.0" y="250.0" type="qcurve" smooth="yes"/>
      <point x="143.0" y="303.25"/>
      <point x="200.75" y="383.75"/>
      <point x="293.0" y="440.0" type="qcurve"/>
      <point x="205.25" y="479.0"/>
      <point x="104.0" y="644.75"/>
      <point x="104.0" y="764.0" type="qcurve" smooth="yes"/>
      <point x="104.0" y="949.25"/>
      <point x="356.0" y="1153.0"/>
      <point x="590.0" y="1153.0" type="qcurve" smooth="yes"/>
      <point x="610.5" y="1153.0"/>
      <point x="696.5833333333333" y="1146.3333333333333"/>
      <point x="785.0" y="1137.0"/>
    </contour>
    <contour>
      <point x="350.0" y="-141.0" type="qcurve" smooth="yes"/>
      <point x="350.0" y="-189.0"/>
      <point x="454.0" y="-248.0"/>
      <point x="541.0" y="-248.0" type="qcurve" smooth="yes"/>
      <point x="611.5" y="-248.0"/>
      <point x="756.2499999999999" y="-223.24999999999997"/>
      <point x="854.0" y="-167.5"/>
      <point x="854.0" y="-121.0" type="qcurve" smooth="yes"/>
      <point x="854.0" y="-85.5"/>
      <point x="795.1666666666667" y="-50.416666666666664"/>
      <point x="703.0" y="-39.0"/>
      <point x="653" y="-39" type="qcurve" smooth="yes"/>
      <point x="500.0" y="-39.0" type="line" smooth="yes"/>
      <point x="437.0" y="-39.0"/>
      <point x="350.0" y="-98.25"/>
    </contour>
    <contour>
      <point x="473.0" y="762.0" type="qcurve" smooth="yes"/>
      <point x="473.0" y="588.0"/>
      <point x="594.0" y="588.0" type="qcurve" smooth="yes"/>
      <point x="711.0" y="588.0"/>
      <point x="711.0" y="760.0" type="qcurve" smooth="yes"/>
      <point x="711.0" y="936.0"/>
      <point x="594.0" y="936.0" type="qcurve" smooth="yes"/>
      <point x="473.0" y="936.0"/>
    </contour>
    <contour>
      <point x="621" y="0" type="move" name="bottom"/>
    </contour>
    <contour>
      <point x="621" y="1133" type="move" name="top"/>
    </contour>
  </outline>
</glyph>
<glyph name="l" format="1">
  <advance width="662"/>
  <unicode hex="006C"/>
  <outline>
    <contour>
      <point x="526" y="1556" type="line"/>
      <point x="135" y="1556" type="line"/>
      <point x="135" y="0" type="line"/>
      <point x="526" y="0" type="line"/>
    </contour>
    <contour>
      <point x="312" y="0" type="move" name="bottom"/>
    </contour>
    <contour>
      <point x="331.715" y="544" type="move" name="center"/>
    </contour>
    <contour>
      <point x="331.715" y="1556" type="move" name="top"/>
    </contour>
    <contour>
      <point x="1022" y="1556" type="move" name="topright"/>
    </contour>
  </outline>
</glyph>
<glyph name="m" format="1">
  <advance width="2048"/>
  <unicode hex="006D"/>
  <outline>
    <contour>
      <point x="135" y="0" type="line"/>
      <point x="135" y="1133" type="line"/>
      <point x="430" y="1133" type="line"/>
      <point x="479" y="993" type="line"/>
      <point x="502.0" y="993.0" type="line"/>
      <point x="547.0" y="1071.0"/>
      <point x="718.25" y="1153.0"/>
      <point x="827.0" y="1153.0" type="qcurve" smooth="yes"/>
      <point x="1071.6666666666667" y="1153.0"/>
      <point x="1171" y="1004" type="qcurve"/>
      <point x="1202.0" y="1004.0" type="line"/>
      <point x="1250.0" y="1073.75"/>
      <point x="1421.25" y="1153.0"/>
      <point x="1524.0" y="1153.0" type="qcurve" smooth="yes"/>
      <point x="1725.0" y="1153.0"/>
      <point x="1917.0" y="947.0"/>
      <point x="1917" y="737" type="qcurve" smooth="yes"/>
      <point x="1917" y="0" type="line"/>
      <point x="1526" y="0" type="line"/>
      <point x="1526.0" y="616.0" type="line" smooth="yes"/>
      <point x="1526.0" y="846.0"/>
      <point x="1395.0" y="846.0" type="qcurve" smooth="yes"/>
      <point x="1304.4615384615386" y="846.0"/>
      <point x="1263.0" y="769.0" type="qcurve" smooth="yes"/>
      <point x="1221.0" y="693.6896551724138"/>
      <point x="1221" y="528" type="qcurve" smooth="yes"/>
      <point x="1221" y="0" type="line"/>
      <point x="829" y="0" type="line"/>
      <point x="829.0" y="616.0" type="line" smooth="yes"/>
      <point x="829.0" y="846.0"/>
      <point x="702.0" y="846.0" type="qcurve" smooth="yes"/>
      <point x="609.5" y="846.0"/>
      <point x="569.0" y="765.0" type="qcurve" smooth="yes"/>
      <point x="526.0" y="684.7333333333333"/>
      <point x="526" y="496" type="qcurve" smooth="yes"/>
      <point x="526" y="0" type="line"/>
    </contour>
    <contour>
      <point x="1024" y="0" type="move" name="bottom"/>
    </contour>
    <contour>
      <point x="1024" y="1133" type="move" name="top"/>
    </contour>
  </outline>
</glyph>
<glyph name="o" format="1">
  <advance width="1305"/>
  <unicode hex="006F"/>
  <outline>
    <contour>
      <point x="649.0" y="-20.0" type="qcurve" smooth="yes"/>
      <point x="477.00000000000006" y="-20.0"/>
      <point x="224.16666666666669" y="124.08333333333334"/>
      <point x="86.0" y="388.5"/>
      <point x="86.0" y="569.0" type="qcurve" smooth="yes"/>
      <point x="86.0" y="845.75"/>
      <point x="385.0" y="1153.0"/>
      <point x="655.0" y="1153.0" type="qcurve" smooth="yes"/>
      <point x="828.0" y="1153.0"/>
      <point x="1080.1666666666665" y="1008.4999999999998"/>
      <point x="1217.0" y="746.0"/>
      <point x="1217.0" y="569.0" type="qcurve" smooth="yes"/>
      <point x="1217.0" y="290.75"/>
      <point x="918.25" y="-20.0"/>
    </contour>
    <contour>
      <point x="653.0" y="270.0" type="qcurve" smooth="yes"/>
      <point x="732.35" y="270.0"/>
      <point x="772.0" y="331.0" type="qcurve" smooth="yes"/>
      <point x="796.75" y="368.5"/>
      <point x="819.0" y="488.0"/>
      <point x="819.0" y="569.0" type="qcurve" smooth="yes"/>
      <point x="819.0" y="652.9977499999999"/>
      <point x="794.75" y="774.0"/>
      <point x="767.0" y="810.0" type="qcurve" smooth="yes"/>
      <point x="727.2352941176471" y="862.0"/>
      <point x="651.0" y="862.0" type="qcurve" smooth="yes"/>
      <point x="574.5" y="862.0"/>
      <point x="534.0" y="808.0" type="qcurve" smooth="yes"/>
      <point x="483.0" y="738.0571428571428"/>
      <point x="483.0" y="569.0" type="qcurve" smooth="yes"/>
      <point x="483.0" y="500.0"/>
      <point x="499.0" y="393.5"/>
      <point x="517.0" y="356.0" type="qcurve" smooth="yes"/>
      <point x="557.7368421052631" y="270.0"/>
    </contour>
    <contour>
      <point x="653" y="0" type="move" name="bottom"/>
    </contour>
    <contour>
      <point x="653" y="567" type="move" name="center"/>
    </contour>
    <contour>
      <point x="1174" y="10" type="move" name="ogonek"/>
    </contour>
    <contour>
      <point x="653" y="1133" type="move" name="top"/>
    </contour>
    <contour>
      <point x="1285" y="1133" type="move" name="topright"/>
    </contour>
  </outline>
</glyph>
<glyph name="q" format="1">
  <advance width="1317"/>
  <unicode hex="0071"/>
  <outline>
    <contour>
      <point x="791" y="-492" type="line"/>
      <point x="791.0" y="-23.0" type="line" smooth="yes"/>
      <point x="791.0" y="11.0"/>
      <point x="803" y="143" type="qcurve"/>
      <point x="791.0" y="143.0" type="line"/>
      <point x="695.2935779816514" y="-20.0"/>
      <point x="492.0" y="-20.0" type="qcurve" smooth="yes"/>
      <point x="302.25" y="-20.0"/>
      <point x="86.0" y="292.0"/>
      <point x="86.0" y="565.0" type="qcurve" smooth="yes"/>
      <point x="86.0" y="841.0"/>
      <point x="306.75" y="1153.0"/>
      <point x="498.0" y="1153.0" type="qcurve" smooth="yes"/>
      <point x="703.8224299065421" y="1153.0"/>
      <point x="807" y="993" type="qcurve"/>
      <point x="815" y="993" type="line"/>
      <point x="844" y="1133" type="line"/>
      <point x="1182" y="1133" type="line"/>
      <point x="1182" y="-492" type="line"/>
    </contour>
    <contour>
      <point x="651.0" y="283.0" type="qcurve" smooth="yes"/>
      <point x="754.7924528301887" y="283.0"/>
      <point x="793.0" y="358.0" type="qcurve" smooth="yes"/>
      <point x="821.0" y="414.0"/>
      <point x="821" y="524" type="qcurve" smooth="yes"/>
      <point x="821.0" y="571.0" type="line" smooth="yes"/>
      <point x="821.0" y="713.9615384615385"/>
      <point x="784.0" y="778.0" type="qcurve" smooth="yes"/>
      <point x="743.68" y="850.0"/>
      <point x="645.0" y="850.0" type="qcurve" smooth="yes"/>
      <point x="483.0" y="850.0"/>
      <point x="483.0" y="559.0" type="qcurve" smooth="yes"/>
      <point x="483.0" y="411.25"/>
      <point x="564.75" y="283.0"/>
    </contour>
    <contour>
      <point x="659" y="0" type="move" name="bottom"/>
    </contour>
    <contour>
      <point x="659" y="1133" type="move" name="top"/>
    </contour>
  </outline>
</glyph>
<glyph name="r" format="1">
  <advance width="961"/>
  <unicode hex="0072"/>
  <outline>
    <contour>
      <point x="135" y="0" type="line"/>
      <point x="135" y="1133" type="line"/>
      <point x="426" y="1133" type="line"/>
      <point x="487" y="952" type="line"/>
      <point x="506.0" y="952.0" type="line"/>
      <point x="554.75" y="1042.0"/>
      <point x="729.75" y="1153.0"/>
      <point x="819.0" y="1153.0" type="qcurve" smooth="yes"/>
      <point x="847.5" y="1153.0"/>
      <point x="901.25" y="1147.0"/>
      <point x="938" y="1141" type="qcurve"/>
      <point x="903.0" y="772.0" type="line"/>
      <point x="855.0" y="784.0"/>
      <point x="770.0" y="784.0" type="qcurve" smooth="yes"/>
      <point x="622.3584905660377" y="784.0"/>
      <point x="565.0" y="704.0" type="qcurve" smooth="yes"/>
      <point x="526.0" y="648.5"/>
      <point x="526" y="557" type="qcurve" smooth="yes"/>
      <point x="526" y="0" type="line"/>
    </contour>
    <contour>
      <point x="311" y="0" type="move" name="bottom"/>
    </contour>
    <contour>
      <point x="481" y="1133" type="move" name="top"/>
    </contour>
  </outline>
</glyph>
<glyph name="s" format="1">
  <advance width="1092"/>
  <unicode hex="0073"/>
  <outline>
    <contour>
      <point x="503.0" y="-20.0" type="qcurve" smooth="yes"/>
      <point x="405.5" y="-20.0"/>
      <point x="211.0" y="8.5"/>
      <point x="121" y="43" type="qcurve"/>
      <point x="121.0" y="356.0" type="line"/>
      <point x="211.75" y="316.25"/>
      <point x="429.25" y="264.0"/>
      <point x="517.0" y="264.0" type="qcurve" smooth="yes"/>
      <point x="641.0" y="264.0"/>
      <point x="641.0" y="322.0" type="qcurve" smooth="yes"/>
      <point x="641.0" y="343.5"/>
      <point x="569.1666666666665" y="392.0"/>
      <point x="458.0" y="442.5"/>
      <point x="399.0" y="467.0" type="qcurve" smooth="yes"/>
      <point x="292.5" y="511.25"/>
      <point x="166.0" y="615.5"/>
      <point x="139.0" y="686.0" type="qcurve" smooth="yes"/>
      <point x="119.0" y="737.4285714285714"/>
      <point x="119.0" y="806.0" type="qcurve" smooth="yes"/>
      <point x="119.0" y="977.75"/>
      <point x="362.25" y="1153.0"/>
      <point x="582.0" y="1153.0" type="qcurve" smooth="yes"/>
      <point x="698.25" y="1153.0"/>
      <point x="895.25" y="1104.25"/>
      <point x="1001" y="1057" type="qcurve"/>
      <point x="895.0" y="805.0" type="line"/>
      <point x="816.25" y="840.25"/>
      <point x="645.0" y="889.0"/>
      <point x="582.0" y="889.0" type="qcurve" smooth="yes"/>
      <point x="492.0" y="889.0"/>
      <point x="492.0" y="841.0" type="qcurve" smooth="yes"/>
      <point x="492.0" y="812.2173913043479"/>
      <point x="526.0" y="793.0" type="qcurve" smooth="yes"/>
      <point x="566.5" y="770.5"/>
      <point x="650.0" y="735.25"/>
      <point x="719.0" y="709.0" type="qcurve" smooth="yes"/>
      <point x="833.75" y="665.5"/>
      <point x="956.0" y="568.25"/>
      <point x="983.0" y="503.0" type="qcurve" smooth="yes"/>
      <point x="1010.0" y="438.5"/>
      <point x="1010.0" y="349.0" type="qcurve" smooth="yes"/>
      <point x="1010.0" y="157.75"/>
      <point x="755.0" y="-20.0"/>
    </contour>
    <contour>
      <point x="509" y="0" type="move" name="bottom"/>
    </contour>
    <contour>
      <point x="546" y="1133" type="move" name="top"/>
    </contour>
  </outline>
</glyph>
<glyph name="t" format="1">
  <advance width="942"/>
  <unicode hex="0074"/>
  <outline>
    <contour>
      <point x="561" y="-20" type="curve" smooth="yes"/>
      <point x="689" y="-20"/>
      <point x="774" y="-2"/>
      <point x="879" y="43" type="curve"/>
      <point x="879" y="328" type="line"/>
      <point x="806" y="302"/>
      <point x="743" y="289"/>
      <point x="690" y="289" type="curve" smooth="yes"/>
      <point x="619" y="289"/>
      <point x="584" y="326"/>
      <point x="584" y="399" type="curve" smooth="yes"/>
      <point x="584" y="840" type="line"/>
      <point x="862" y="840" type="line"/>
      <point x="862" y="1133" type="line"/>
      <point x="584" y="1133" type="line"/>
      <point x="584" y="1360" type="line"/>
      <point x="328" y="1360" type="line"/>
      <point x="227" y="1122" type="line"/>
      <point x="53" y="999" type="line"/>
      <point x="53" y="840" type="line"/>
      <point x="190" y="840" type="line"/>
      <point x="190" y="373" type="line" smooth="yes"/>
      <point x="190" y="106"/>
      <point x="298" y="-20"/>
    </contour>
    <contour>
      <point x="471" y="0" type="move" name="bottom"/>
    </contour>
    <contour>
      <point x="471" y="567" type="move" name="center"/>
    </contour>
    <contour>
      <point x="471" y="1133" type="move" name="top"/>
    </contour>
    <contour>
      <point x="1094" y="1576" type="move" name="topright"/>
    </contour>
  </outline>
</glyph>
<glyph name="u" format="1">
  <advance width="1372"/>
  <unicode hex="0075"/>
  <outline>
    <contour>
      <point x="528.0" y="-20.0" type="qcurve" smooth="yes"/>
      <point x="341.25" y="-20.0"/>
      <point x="133.0" y="197.0"/>
      <point x="133" y="395" type="qcurve" smooth="yes"/>
      <point x="133" y="1133" type="line"/>
      <point x="524" y="1133" type="line"/>
      <point x="524.0" y="514.0" type="line" smooth="yes"/>
      <point x="524.0" y="403.0"/>
      <point x="587.0" y="289.0"/>
      <point x="659.0" y="289.0" type="qcurve" smooth="yes"/>
      <point x="759.2222222222222" y="289.0"/>
      <point x="802.0" y="366.0" type="qcurve" smooth="yes"/>
      <point x="846.0" y="444.06451612903226"/>
      <point x="846" y="637" type="qcurve" smooth="yes"/>
      <point x="846" y="1133" type="line"/>
      <point x="1237" y="1133" type="line"/>
      <point x="1237" y="0" type="line"/>
      <point x="942" y="0" type="line"/>
      <point x="893" y="141" type="line"/>
      <point x="870.0" y="141.0" type="line"/>
      <point x="769.375" y="-20.000000000000007"/>
    </contour>
    <contour>
      <point x="686" y="0" type="move" name="bottom"/>
    </contour>
    <contour>
      <point x="1235" y="10" type="move" name="ogonek"/>
    </contour>
    <contour>
      <point x="686" y="1133" type="move" name="top"/>
    </contour>
    <contour>
      <point x="1352" y="1133" type="move" name="topright"/>
    </contour>
  </outline>
</glyph>
<glyph name="v" format="1">
  <advance width="1251"/>
  <unicode hex="0076"/>
  <outline>
    <contour>
      <point x="432" y="0" type="line"/>
      <point x="0" y="1133" type="line"/>
      <point x="408" y="1133" type="line"/>
      <point x="600.0" y="463.0" type="line" smooth="yes"/>
      <point x="604.5" y="446.5"/>
      <point x="618.0" y="375.75"/>
      <point x="618" y="348" type="qcurve"/>
      <point x="625.0" y="348.0" type="line"/>
      <point x="625.0" y="399.5"/>
      <point x="643" y="461" type="qcurve" smooth="yes"/>
      <point x="844" y="1133" type="line"/>
      <point x="1251" y="1133" type="line"/>
      <point x="819" y="0" type="line"/>
    </contour>
    <contour>
      <point x="626" y="0" type="move" name="bottom"/>
    </contour>
    <contour>
      <point x="626" y="1133" type="move" name="top"/>
    </contour>
  </outline>
</glyph>
<glyph name="y" format="1">
  <advance width="1249"/>
  <unicode hex="0079"/>
  <outline>
    <contour>
      <point x="262.0" y="-492.0" type="qcurve" smooth="yes"/>
      <point x="187.0" y="-492.0"/>
      <point x="102" y="-475" type="qcurve"/>
      <point x="102.0" y="-168.0" type="line"/>
      <point x="154.5" y="-180.0"/>
      <point x="223.0" y="-180.0" type="qcurve" smooth="yes"/>
      <point x="274.75" y="-180.0"/>
      <point x="352.75" y="-139.75"/>
      <point x="382.0" y="-103.0" type="qcurve" smooth="yes"/>
      <point x="411.1063829787234" y="-66.23404255319149"/>
      <point x="444" y="16" type="qcurve"/>
      <point x="-2" y="1133" type="line"/>
      <point x="410" y="1133" type="line"/>
      <point x="602.0" y="483.0" type="line" smooth="yes"/>
      <point x="608.75" y="457.5"/>
      <point x="618.75" y="396.0"/>
      <point x="621" y="360" type="qcurve"/>
      <point x="629.0" y="360.0" type="line"/>
      <point x="636.416918429003" y="428.2356495468278"/>
      <point x="653" y="481" type="qcurve" smooth="yes"/>
      <point x="850" y="1133" type="line"/>
      <point x="1249" y="1133" type="line"/>
      <point x="801.0" y="-72.0" type="line" smooth="yes"/>
      <point x="714.75" y="-302.25"/>
      <point x="463.75" y="-492.0"/>
    </contour>
    <contour>
      <point x="1025" y="0" type="move" name="bottom"/>
    </contour>
    <contour>
      <point x="625" y="1133" type="move" name="top"/>
    </contour>
  </outline>
</glyph>
<glyph name="bar" format="1">
  <advance width="1042"/>
  <unicode hex="007C"/>
  <note>
bar
</note>
  <outline>
    <contour>
      <point x="387" y="-446" type="line"/>
      <point x="387" y="1556" type="line"/>
      <point x="655" y="1556" type="line"/>
      <point x="655" y="-446" type="line"/>
    </contour>
  </outline>
</glyph>
<glyph name="exclamdown" format="1">
  <advance width="594"/>
  <unicode hex="00A1"/>
  <note>
    exclamdown
  </note>
  <outline>
    <contour>
      <point x="82" y="-334" type="line"/>
      <point x="514" y="-334" type="line"/>
      <point x="463" y="612" type="line"/>
      <point x="133" y="612" type="line"/>
    </contour>
    <contour>
      <point x="299" y="770" type="curve" smooth="yes"/>
      <point x="438" y="770"/>
      <point x="510" y="842"/>
      <point x="510" y="963" type="curve" smooth="yes"/>
      <point x="510" y="1082"/>
      <point x="434" y="1153"/>
      <point x="299" y="1153" type="curve" smooth="yes"/>
      <point x="167" y="1153"/>
      <point x="92" y="1083"/>
      <point x="92" y="963" type="curve" smooth="yes"/>
      <point x="92" y="840"/>
      <point x="163" y="770"/>
    </contour>
  </outline>
</glyph>
<glyph name="yen" format="1">
  <advance width="1200"/>
  <unicode hex="00A5"/>
  <note>
yen
</note>
  <outline>
    <contour>
      <point x="418" y="0" type="line"/>
      <point x="418" y="213" type="line"/>
      <point x="172" y="213" type="line"/>
      <point x="172" y="422" type="line"/>
      <point x="418" y="422" type="line"/>
      <point x="418" y="539" type="line"/>
      <point x="172" y="539" type="line"/>
      <point x="172" y="750" type="line"/>
      <point x="362" y="750" type="line"/>
      <point x="8" y="1462" type="line"/>
      <point x="408" y="1462" type="line"/>
      <point x="600" y="958" type="line"/>
      <point x="793" y="1462" type="line"/>
      <point x="1192" y="1462" type="line"/>
      <point x="829" y="750" type="line"/>
      <point x="1024" y="750" type="line"/>
      <point x="1024" y="539" type="line"/>
      <point x="782" y="539" type="line"/>
      <point x="782" y="422" type="line"/>
      <point x="1024" y="422" type="line"/>
      <point x="1024" y="213" type="line"/>
      <point x="782" y="213" type="line"/>
      <point x="782" y="0" type="line"/>
    </contour>
  </outline>
</glyph>
<glyph name="brokenbar" format="1">
  <advance width="1042"/>
  <unicode hex="00A6"/>
  <note>
brokenbar
</note>
  <outline>
    <contour>
      <point x="387" y="717" type="line"/>
      <point x="387" y="1556" type="line"/>
      <point x="655" y="1556" type="line"/>
      <point x="655" y="717" type="line"/>
    </contour>
    <contour>
      <point x="387" y="-446" type="line"/>
      <point x="387" y="393" type="line"/>
      <point x="655" y="393" type="line"/>
      <point x="655" y="-446" type="line"/>
    </contour>
  </outline>
</glyph>
<glyph name="section" format="1">
  <advance width="1024"/>
  <unicode hex="00A7"/>
  <note>
section
</note>
  <outline>
    <contour>
      <point x="469.0" y="-25.0" type="qcurve" smooth="yes"/>
      <point x="266.36842105263156" y="-25.0"/>
      <point x="117" y="61" type="qcurve"/>
      <point x="117.0" y="305.0" type="line"/>
      <point x="169.5" y="275.5"/>
      <point x="299.4166666666667" y="226.41666666666669"/>
      <point x="425.0" y="197.0"/>
      <point x="471.0" y="197.0" type="qcurve" smooth="yes"/>
      <point x="610.0" y="197.0"/>
      <point x="610.0" y="293.0" type="qcurve" smooth="yes"/>
      <point x="610.0" y="335.0"/>
      <point x="579.0" y="366.0" type="qcurve" smooth="yes"/>
      <point x="547.0625" y="396.4166666666667"/>
      <point x="440.0" y="444.0" type="qcurve" smooth="yes"/>
      <point x="305.7476489028213" y="503.18652037617557"/>
      <point x="237.0" y="554.0" type="qcurve" smooth="yes"/>
      <point x="201.0" y="581.0"/>
      <point x="154.5" y="634.0"/>
      <point x="138.0" y="664.0" type="qcurve" smooth="yes"/>
      <point x="106.0" y="723.4285714285714"/>
      <point x="106.0" y="803.0" type="qcurve" smooth="yes"/>
      <point x="106.0" y="866.75"/>
      <point x="192.0" y="988.75"/>
      <point x="270.0" y="1036.0" type="qcurve"/>
      <point x="129.0" y="1138.0"/>
      <point x="129.0" y="1282.0" type="qcurve" smooth="yes"/>
      <point x="129.0" y="1419.25"/>
      <point x="351.25" y="1577.0"/>
      <point x="535.0" y="1577.0" type="qcurve" smooth="yes"/>
      <point x="725.4561403508771" y="1577.0"/>
      <point x="905" y="1491" type="qcurve"/>
      <point x="807.0" y="1270.0" type="line"/>
      <point x="734.25" y="1309.75"/>
      <point x="586.75" y="1356.0"/>
      <point x="532.0" y="1356.0" type="qcurve" smooth="yes"/>
      <point x="424.0" y="1356.0"/>
      <point x="424.0" y="1282.0" type="qcurve" smooth="yes"/>
      <point x="424.0" y="1242.25"/>
      <point x="503.25" y="1173.5"/>
      <point x="576.0" y="1142.0" type="qcurve" smooth="yes"/>
      <point x="590.0" y="1136.0"/>
      <point x="598.0" y="1133.0" type="qcurve" smooth="yes"/>
      <point x="772.75" y="1061.75"/>
      <point x="928.0" y="899.75"/>
      <point x="928.0" y="803.0" type="qcurve" smooth="yes"/>
      <point x="928.0" y="725.75"/>
      <point x="864.0" y="605.0"/>
      <point x="780.0" y="545.0" type="qcurve"/>
      <point x="905.0" y="450.12048192771084"/>
      <point x="905.0" y="301.0" type="qcurve" smooth="yes"/>
      <point x="905.0" y="151.75"/>
      <point x="672.25" y="-25.0"/>
    </contour>
    <contour>
      <point x="596.0" y="645.0" type="qcurve"/>
      <point x="637.0" y="692.074074074074"/>
      <point x="637.0" y="752.0" type="qcurve" smooth="yes"/>
      <point x="637.0" y="819.4285714285714"/>
      <point x="577.0" y="868.0" type="qcurve" smooth="yes"/>
      <point x="534.9179810725552" y="902.8264984227129"/>
      <point x="455.0" y="936.0" type="qcurve"/>
      <point x="397.0" y="904.7692307692307"/>
      <point x="397.0" y="834.0" type="qcurve" smooth="yes"/>
      <point x="397.0" y="783.9655172413793"/>
      <point x="441.0" y="743.0" type="qcurve" smooth="yes"/>
      <point x="462.75" y="722.75"/>
      <point x="540.5" y="674.25"/>
    </contour>
  </outline>
</glyph>
<glyph name="copyright" format="1">
  <advance width="1688"/>
  <unicode hex="00A9"/>
  <note>
    copyright
  </note>
  <outline>
    <contour>
      <point x="879" y="262" type="curve" smooth="yes"/>
      <point x="976" y="262"/>
      <point x="1067" y="283"/>
      <point x="1151" y="326" type="curve"/>
      <point x="1151" y="557" type="line"/>
      <point x="1071" y="512"/>
      <point x="985" y="489"/>
      <point x="893" y="489" type="curve" smooth="yes"/>
      <point x="772" y="489"/>
      <point x="715" y="560"/>
      <point x="715" y="731" type="curve" smooth="yes"/>
      <point x="715" y="888"/>
      <point x="779" y="971"/>
      <point x="887" y="971" type="curve" smooth="yes"/>
      <point x="957" y="971"/>
      <point x="1027" y="952"/>
      <point x="1098" y="915" type="curve"/>
      <point x="1190" y="1120" type="line"/>
      <point x="1086" y="1172"/>
      <point x="979" y="1198"/>
      <point x="868" y="1198" type="curve" smooth="yes"/>
      <point x="591" y="1198"/>
      <point x="434" y="1024"/>
      <point x="434" y="735" type="curve" smooth="yes"/>
      <point x="434" y="435"/>
      <point x="596" y="262"/>
    </contour>
    <contour>
      <point x="844" y="-20" type="curve" smooth="yes"/>
      <point x="981" y="-20"/>
      <point x="1107" y="14"/>
      <point x="1222" y="81" type="curve" smooth="yes"/>
      <point x="1452" y="216"/>
      <point x="1595" y="459"/>
      <point x="1595" y="731" type="curve" smooth="yes"/>
      <point x="1595" y="870"/>
      <point x="1560" y="997"/>
      <point x="1491" y="1114" type="curve" smooth="yes"/>
      <point x="1352" y="1347"/>
      <point x="1107" y="1483"/>
      <point x="844" y="1483" type="curve" smooth="yes"/>
      <point x="709" y="1483"/>
      <point x="584" y="1449"/>
      <point x="467" y="1382" type="curve" smooth="yes"/>
      <point x="234" y="1247"/>
      <point x="92" y="998"/>
      <point x="92" y="731" type="curve" smooth="yes"/>
      <point x="92" y="599"/>
      <point x="125" y="475"/>
      <point x="190" y="360" type="curve" smooth="yes"/>
      <point x="320" y="129"/>
      <point x="568" y="-20"/>
    </contour>
    <contour>
      <point x="844" y="143" type="curve" smooth="yes"/>
      <point x="739" y="143"/>
      <point x="642" y="169"/>
      <point x="551" y="221" type="curve" smooth="yes"/>
      <point x="370" y="324"/>
      <point x="256" y="520"/>
      <point x="256" y="731" type="curve" smooth="yes"/>
      <point x="256" y="836"/>
      <point x="282" y="935"/>
      <point x="335" y="1026" type="curve" smooth="yes"/>
      <point x="439" y="1208"/>
      <point x="633" y="1319"/>
      <point x="844" y="1319" type="curve" smooth="yes"/>
      <point x="951" y="1319"/>
      <point x="1050" y="1293"/>
      <point x="1141" y="1240" type="curve" smooth="yes"/>
      <point x="1323" y="1134"/>
      <point x="1432" y="940"/>
      <point x="1432" y="731" type="curve" smooth="yes"/>
      <point x="1432" y="626"/>
      <point x="1406" y="528"/>
      <point x="1353" y="437" type="curve" smooth="yes"/>
      <point x="1248" y="255"/>
      <point x="1055" y="143"/>
    </contour>
  </outline>
</glyph>
<glyph name="logicalnot" format="1">
  <advance width="1159"/>
  <unicode hex="00AC"/>
  <note>
    logicalnot
  </note>
  <outline>
    <contour>
      <point x="815" y="238" type="line"/>
      <point x="1085" y="238" type="line"/>
      <point x="1085" y="856" type="line"/>
      <point x="72" y="856" type="line"/>
      <point x="72" y="588" type="line"/>
      <point x="815" y="588" type="line"/>
    </contour>
  </outline>
</glyph>
<glyph name="registered" format="1">
  <advance width="1688"/>
  <unicode hex="00AE"/>
  <note>
registered
</note>
  <outline>
    <contour>
      <point x="844.0" y="-20.0" type="qcurve" smooth="yes"/>
      <point x="706.0" y="-20.0"/>
      <point x="456.16666666666663" y="73.75"/>
      <point x="255.0" y="244.5"/>
      <point x="190.0" y="360.0" type="qcurve" smooth="yes"/>
      <point x="92.0" y="533.3846153846154"/>
      <point x="92.0" y="731.0" type="qcurve" smooth="yes"/>
      <point x="92.0" y="931.25"/>
      <point x="292.25" y="1280.75"/>
      <point x="467.0" y="1382.0" type="qcurve" smooth="yes"/>
      <point x="643.3731343283582" y="1483.0"/>
      <point x="844.0" y="1483.0" type="qcurve" smooth="yes"/>
      <point x="1041.25" y="1483.0"/>
      <point x="1386.75" y="1288.75"/>
      <point x="1491.0" y="1114.0" type="qcurve" smooth="yes"/>
      <point x="1595.0" y="937.6521739130435"/>
      <point x="1595.0" y="731.0" type="qcurve" smooth="yes"/>
      <point x="1595.0" y="527.0"/>
      <point x="1394.5" y="182.25"/>
      <point x="1222.0" y="81.0" type="qcurve" smooth="yes"/>
      <point x="1048.641791044776" y="-20.0"/>
    </contour>
    <contour>
      <point x="844.0" y="143.0" type="qcurve" smooth="yes"/>
      <point x="1002.25" y="143.0"/>
      <point x="1274.25" y="300.5"/>
      <point x="1353.0" y="437.0" type="qcurve" smooth="yes"/>
      <point x="1432.0" y="572.6415094339623"/>
      <point x="1432.0" y="731.0" type="qcurve" smooth="yes"/>
      <point x="1432.0" y="887.75"/>
      <point x="1277.5" y="1160.5"/>
      <point x="1141.0" y="1240.0" type="qcurve" smooth="yes"/>
      <point x="1005.3584905660377" y="1319.0"/>
      <point x="844.0" y="1319.0" type="qcurve" smooth="yes"/>
      <point x="685.75" y="1319.0"/>
      <point x="413.0" y="1162.5"/>
      <point x="335.0" y="1026.0" type="qcurve" smooth="yes"/>
      <point x="256.0" y="890.3584905660377"/>
      <point x="256.0" y="731.0" type="qcurve" smooth="yes"/>
      <point x="256.0" y="572.75"/>
      <point x="415.25" y="298.25"/>
      <point x="551.0" y="221.0" type="qcurve" smooth="yes"/>
      <point x="687.5" y="143.0"/>
    </contour>
    <contour>
      <point x="506" y="313" type="line"/>
      <point x="506" y="1188" type="line"/>
      <point x="797.0" y="1188.0" type="line" smooth="yes"/>
      <point x="1204.0" y="1188.0"/>
      <point x="1204.0" y="918.0" type="qcurve" smooth="yes"/>
      <point x="1204.0" y="831.0"/>
      <point x="1138.0" y="712.0"/>
      <point x="1063" y="676" type="qcurve"/>
      <point x="1257" y="313" type="line"/>
      <point x="967" y="313" type="line"/>
      <point x="821" y="633" type="line"/>
      <point x="786" y="633" type="line"/>
      <point x="786" y="313" type="line"/>
    </contour>
    <contour>
      <point x="786" y="809" type="line"/>
      <point x="797.0" y="809.0" type="line" smooth="yes"/>
      <point x="854.75" y="809.0"/>
      <point x="922.0" y="852.25"/>
      <point x="922.0" y="907.0" type="qcurve" smooth="yes"/>
      <point x="922.0" y="954.25"/>
      <point x="867.25" y="993.0"/>
      <point x="799" y="993" type="qcurve" smooth="yes"/>
      <point x="786" y="993" type="line"/>
    </contour>
  </outline>
</glyph>
<glyph name="ordmasculine" format="1">
  <advance width="803"/>
  <unicode hex="00BA"/>
  <note>
ordmasculine
</note>
  <outline>
    <contour>
      <point x="756.0" y="1104.0" type="qcurve" smooth="yes"/>
      <point x="756.0" y="930.0"/>
      <point x="564.75" y="729.0"/>
      <point x="399.0" y="729.0" type="qcurve" smooth="yes"/>
      <point x="240.0" y="729.0"/>
      <point x="49.0" y="933.75"/>
      <point x="49.0" y="1104.0" type="qcurve" smooth="yes"/>
      <point x="49.0" y="1281.0"/>
      <point x="238.0" y="1479.0"/>
      <point x="403.0" y="1479.0" type="qcurve" smooth="yes"/>
      <point x="559.75" y="1479.0"/>
      <point x="756.0" y="1272.75"/>
    </contour>
    <contour>
      <point x="301.0" y="1104.0" type="qcurve" smooth="yes"/>
      <point x="301.0" y="932.0"/>
      <point x="401.0" y="932.0" type="qcurve" smooth="yes"/>
      <point x="500.0" y="932.0"/>
      <point x="500.0" y="1104.0" type="qcurve" smooth="yes"/>
      <point x="500.0" y="1278.0"/>
      <point x="401.0" y="1278.0" type="qcurve" smooth="yes"/>
      <point x="301.0" y="1278.0"/>
    </contour>
  </outline>
</glyph>
<glyph name="Eth" format="1">
  <advance width="1503"/>
  <unicode hex="00D0"/>
  <note>
Eth
</note>
  <outline>
    <contour>
      <point x="158" y="0" type="line"/>
      <point x="158" y="563" type="line"/>
      <point x="31" y="563" type="line"/>
      <point x="31" y="883" type="line"/>
      <point x="158" y="883" type="line"/>
      <point x="158" y="1462" type="line"/>
      <point x="664.0" y="1462.0" type="line" smooth="yes"/>
      <point x="1015.75" y="1462.0"/>
      <point x="1399.0" y="1101.75"/>
      <point x="1399.0" y="762.0" type="qcurve" smooth="yes"/>
      <point x="1399.0" y="396.0"/>
      <point x="996.25" y="0.0"/>
      <point x="631" y="0" type="qcurve" smooth="yes"/>
    </contour>
    <contour>
      <point x="553" y="324" type="line"/>
      <point x="641.0" y="324.0" type="line" smooth="yes"/>
      <point x="821.0" y="324.0"/>
      <point x="989.0" y="532.75"/>
      <point x="989.0" y="748.0" type="qcurve" smooth="yes"/>
      <point x="989.0" y="949.0"/>
      <point x="830.0" y="1143.0"/>
      <point x="668" y="1143" type="qcurve" smooth="yes"/>
      <point x="553" y="1143" type="line"/>
      <point x="553" y="883" type="line"/>
      <point x="764" y="883" type="line"/>
      <point x="764" y="563" type="line"/>
      <point x="553" y="563" type="line"/>
    </contour>
  </outline>
</glyph>
<glyph name="multiply" format="1">
  <advance width="1159"/>
  <unicode hex="00D7"/>
  <note>
    multiply
  </note>
  <outline>
    <contour>
      <point x="848" y="266" type="line"/>
      <point x="1032" y="451" type="line"/>
      <point x="762" y="723" type="line"/>
      <point x="1036" y="997" type="line"/>
      <point x="848" y="1180" type="line"/>
      <point x="573" y="913" type="line"/>
      <point x="303" y="1180" type="line"/>
      <point x="121" y="991" type="line"/>
      <point x="387" y="723" type="line"/>
      <point x="123" y="455" type="line"/>
      <point x="303" y="268" type="line"/>
      <point x="573" y="537" type="line"/>
    </contour>
  </outline>
</glyph>
<glyph name="Oslash" format="1">
  <advance width="1632"/>
  <unicode hex="00D8"/>
  <note>
    Oslash
  </note>
  <outline>
    <contour>
      <point x="424" y="-109" type="line"/>
      <point x="508" y="23" type="line"/>
      <point x="595" y="-6"/>
      <point x="697" y="-20"/>
      <point x="815" y="-20" type="curve" smooth="yes"/>
      <point x="1280" y="-20"/>
      <point x="1526" y="241"/>
      <point x="1526" y="733" type="curve" smooth="yes"/>
      <point x="1526" y="991"/>
      <point x="1461" y="1183"/>
      <point x="1331" y="1309" type="curve"/>
      <point x="1413" y="1434" type="line"/>
      <point x="1223" y="1548" type="line"/>
      <point x="1147" y="1430" type="line"/>
      <point x="1054" y="1467"/>
      <point x="944" y="1485"/>
      <point x="817" y="1485" type="curve" smooth="yes"/>
      <point x="353" y="1485"/>
      <point x="104" y="1222"/>
      <point x="104" y="735" type="curve" smooth="yes"/>
      <point x="104" y="468"/>
      <point x="174" y="270"/>
      <point x="315" y="141" type="curve"/>
      <point x="231" y="16" type="line"/>
    </contour>
    <contour>
      <point x="549" y="494" type="line"/>
      <point x="530" y="550"/>
      <point x="520" y="630"/>
      <point x="520" y="733" type="curve" smooth="yes"/>
      <point x="520" y="1018"/>
      <point x="619" y="1161"/>
      <point x="817" y="1161" type="curve" smooth="yes"/>
      <point x="862" y="1161"/>
      <point x="907" y="1152"/>
      <point x="952" y="1133" type="curve"/>
    </contour>
    <contour>
      <point x="815" y="309" type="curve" smooth="yes"/>
      <point x="773" y="309"/>
      <point x="734" y="314"/>
      <point x="698" y="324" type="curve"/>
      <point x="1092" y="944" type="line"/>
      <point x="1104" y="887"/>
      <point x="1110" y="816"/>
      <point x="1110" y="733" type="curve" smooth="yes"/>
      <point x="1110" y="442"/>
      <point x="1015" y="309"/>
    </contour>
    <contour>
      <point x="816" y="0" type="move" name="bottom"/>
    </contour>
    <contour>
      <point x="816" y="1462" type="move" name="top"/>
    </contour>
  </outline>
</glyph>
<glyph name="Thorn" format="1">
  <advance width="1284"/>
  <unicode hex="00DE"/>
  <note>
Thorn
</note>
  <outline>
    <contour>
      <point x="158" y="0" type="line"/>
      <point x="158" y="1462" type="line"/>
      <point x="553" y="1462" type="line"/>
      <point x="553" y="1249" type="line"/>
      <point x="664.0" y="1249.0" type="line" smooth="yes"/>
      <point x="940.75" y="1249.0"/>
      <point x="1219.0" y="1006.75"/>
      <point x="1219.0" y="784.0" type="qcurve" smooth="yes"/>
      <point x="1219.0" y="538.75"/>
      <point x="930.25" y="272.0"/>
      <point x="664" y="272" type="qcurve" smooth="yes"/>
      <point x="553" y="272" type="line"/>
      <point x="553" y="0" type="line"/>
    </contour>
    <contour>
      <point x="553" y="594" type="line"/>
      <point x="625.0" y="594.0" type="line" smooth="yes"/>
      <point x="714.25" y="594.0"/>
      <point x="819.0" y="694.25"/>
      <point x="819.0" y="782.0" type="qcurve" smooth="yes"/>
      <point x="819.0" y="930.0"/>
      <point x="655" y="930" type="qcurve" smooth="yes"/>
      <point x="553" y="930" type="line"/>
    </contour>
    <contour>
      <point x="642" y="0" type="move" name="bottom"/>
    </contour>
    <contour>
      <point x="642" y="1462" type="move" name="top"/>
    </contour>
  </outline>
</glyph>
<glyph name="oslash" format="1">
  <advance width="1362"/>
  <unicode hex="00F8"/>
  <note>
oslash
</note>
  <outline>
    <contour>
      <point x="365" y="-117" type="line"/>
      <point x="195" y="-10" type="line"/>
      <point x="274.0" y="113.0" type="line"/>
      <point x="86.0" y="270.92"/>
      <point x="86.0" y="569.0" type="qcurve" smooth="yes"/>
      <point x="86.0" y="845.75"/>
      <point x="399.75" y="1153.0"/>
      <point x="684.0" y="1153.0" type="qcurve" smooth="yes"/>
      <point x="808.5" y="1153.0"/>
      <point x="918" y="1114" type="qcurve"/>
      <point x="989" y="1225" type="line"/>
      <point x="1157" y="1120" type="line"/>
      <point x="1090.0" y="1016.0" type="line"/>
      <point x="1274.0" y="858.9268292682926"/>
      <point x="1274.0" y="569.0" type="qcurve" smooth="yes"/>
      <point x="1274.0" y="289.25"/>
      <point x="960.75" y="-20.0"/>
      <point x="678.0" y="-20.0" type="qcurve" smooth="yes"/>
      <point x="551.0" y="-20.0"/>
      <point x="449" y="14" type="qcurve"/>
    </contour>
    <contour>
      <point x="682.0" y="250.0" type="qcurve" smooth="yes"/>
      <point x="796.0" y="250.0"/>
      <point x="899.0" y="395.75"/>
      <point x="899.0" y="569.0" type="qcurve" smooth="yes"/>
      <point x="899.0" y="657.1428571428571"/>
      <point x="889" y="700" type="qcurve"/>
      <point x="606.0" y="258.0" type="line"/>
      <point x="634.8" y="250.0"/>
    </contour>
    <contour>
      <point x="473" y="422" type="qcurve"/>
      <point x="762.0" y="870.0" type="line"/>
      <point x="727.3333333333334" y="883.0"/>
      <point x="680.0" y="883.0" type="qcurve" smooth="yes"/>
      <point x="566.0" y="883.0"/>
      <point x="461.0" y="734.75"/>
      <point x="461.0" y="569.0" type="qcurve" smooth="yes"/>
      <point x="461.0" y="470.0"/>
    </contour>
    <contour>
      <point x="681" y="1133" type="move" name="top"/>
    </contour>
  </outline>
</glyph>
<glyph name="hbar" format="1">
  <advance width="1393"/>
  <unicode hex="0127"/>
  <note>
hbar
</note>
  <outline>
    <contour>
      <point x="156" y="0" type="line"/>
      <point x="156" y="1167" type="line"/>
      <point x="0" y="1167" type="line"/>
      <point x="0" y="1409" type="line"/>
      <point x="156" y="1409" type="line"/>
      <point x="156" y="1556" type="line"/>
      <point x="547" y="1556" type="line"/>
      <point x="547" y="1409" type="line"/>
      <point x="780" y="1409" type="line"/>
      <point x="780" y="1167" type="line"/>
      <point x="545" y="1167" type="line"/>
      <point x="545.0" y="1126.0" type="line" smooth="yes"/>
      <point x="545.0" y="1101.5"/>
      <point x="540.4166666666666" y="1012.4166666666665"/>
      <point x="533.5" y="921.0"/>
      <point x="530" y="893" type="qcurve"/>
      <point x="553.0" y="893.0" type="line"/>
      <point x="607.75" y="979.25"/>
      <point x="759.25" y="1053.0"/>
      <point x="862.0" y="1053.0" type="qcurve" smooth="yes"/>
      <point x="1051.0" y="1053.0"/>
      <point x="1262.0" y="834.75"/>
      <point x="1262" y="639" type="qcurve" smooth="yes"/>
      <point x="1262" y="0" type="line"/>
      <point x="868" y="0" type="line"/>
      <point x="868.0" y="518.0" type="line" smooth="yes"/>
      <point x="868.0" y="745.0"/>
      <point x="733.0" y="745.0" type="qcurve" smooth="yes"/>
      <point x="658.6875" y="745.0"/>
      <point x="617.0" y="699.0" type="qcurve" smooth="yes"/>
      <point x="547.0" y="623.2857142857143"/>
      <point x="547" y="395" type="qcurve" smooth="yes"/>
      <point x="547" y="0" type="line"/>
    </contour>
  </outline>
</glyph>
<glyph name="idotless" format="1">
  <advance width="666"/>
  <unicode hex="0131"/>
  <note>
    dotlessi
  </note>
  <outline>
    <contour>
      <point x="528" y="1133" type="line"/>
      <point x="137" y="1133" type="line"/>
      <point x="137" y="0" type="line"/>
      <point x="528" y="0" type="line"/>
    </contour>
    <contour>
      <point x="333" y="0" type="move" name="bottom"/>
    </contour>
    <contour>
      <point x="499" y="10" type="move" name="ogonek"/>
    </contour>
    <contour>
      <point x="333" y="1133" type="move" name="top"/>
    </contour>
  </outline>
</glyph>
<glyph name="ldot" format="1">
  <advance width="1055"/>
  <unicode hex="0140"/>
  <note>
ldot
</note>
  <outline>
    <contour>
      <point x="526" y="1556" type="line"/>
      <point x="526" y="0" type="line"/>
      <point x="135" y="0" type="line"/>
      <point x="135" y="1556" type="line"/>
    </contour>
    <contour>
      <point x="649.0" y="703.0" type="qcurve" smooth="yes"/>
      <point x="649.0" y="790.75"/>
      <point x="747.25" y="877.0"/>
      <point x="856.0" y="877.0" type="qcurve" smooth="yes"/>
      <point x="964.75" y="877.0"/>
      <point x="1065.0" y="789.25"/>
      <point x="1065.0" y="703.0" type="qcurve" smooth="yes"/>
      <point x="1065.0" y="531.0"/>
      <point x="856.0" y="531.0" type="qcurve" smooth="yes"/>
      <point x="649.0" y="531.0"/>
    </contour>
  </outline>
</glyph>
<glyph name="eng" format="1">
  <advance width="1372"/>
  <unicode hex="014B"/>
  <note>
eng
</note>
  <outline>
    <contour>
      <point x="829.0" y="-492.0" type="qcurve" smooth="yes"/>
      <point x="784.0" y="-492.0"/>
      <point x="662.25" y="-476.75"/>
      <point x="618" y="-467" type="qcurve"/>
      <point x="618.0" y="-162.0" type="line"/>
      <point x="685.5" y="-180.0"/>
      <point x="735.0" y="-180.0" type="qcurve" smooth="yes"/>
      <point x="848.0" y="-180.0"/>
      <point x="848" y="-10" type="qcurve" smooth="yes"/>
      <point x="848.0" y="655.0" type="line" smooth="yes"/>
      <point x="848.0" y="846.0"/>
      <point x="713.0" y="846.0" type="qcurve" smooth="yes"/>
      <point x="619.7659574468086" y="846.0"/>
      <point x="577.0" y="779.0" type="qcurve" smooth="yes"/>
      <point x="526.0" y="698.8571428571429"/>
      <point x="526" y="496" type="qcurve" smooth="yes"/>
      <point x="526" y="0" type="line"/>
      <point x="135" y="0" type="line"/>
      <point x="135" y="1133" type="line"/>
      <point x="430" y="1133" type="line"/>
      <point x="479" y="993" type="line"/>
      <point x="504.0" y="993.0" type="line"/>
      <point x="554.25" y="1071.75"/>
      <point x="732.75" y="1153.0"/>
      <point x="846.0" y="1153.0" type="qcurve" smooth="yes"/>
      <point x="1032.0" y="1153.0"/>
      <point x="1241.0" y="932.75"/>
      <point x="1241" y="737" type="qcurve" smooth="yes"/>
      <point x="1241.0" y="-92.0" type="line" smooth="yes"/>
      <point x="1241.0" y="-280.25"/>
      <point x="1024.75" y="-492.0"/>
    </contour>
  </outline>
</glyph>
<glyph name="longs" format="1">
  <advance width="825"/>
  <unicode hex="017F"/>
  <note>
longs
</note>
  <outline>
    <contour>
      <point x="135" y="0" type="line"/>
      <point x="135.0" y="1145.0" type="line" smooth="yes"/>
      <point x="135.0" y="1300.5"/>
      <point x="217.58333333333337" y="1485.5833333333333"/>
      <point x="400.5" y="1567.0"/>
      <point x="551.0" y="1567.0" type="qcurve" smooth="yes"/>
      <point x="738.5" y="1567.0"/>
      <point x="866" y="1513" type="qcurve"/>
      <point x="791.0" y="1253.0" type="line"/>
      <point x="749.5" y="1264.5"/>
      <point x="703.0" y="1279.0833333333333"/>
      <point x="664.5" y="1286.0"/>
      <point x="635.0" y="1286.0" type="qcurve" smooth="yes"/>
      <point x="567.8" y="1286.0"/>
      <point x="544.0" y="1244.0" type="qcurve"/>
      <point x="526.0" y="1208.0"/>
      <point x="526" y="1137" type="qcurve" smooth="yes"/>
      <point x="526" y="0" type="line"/>
    </contour>
    <contour>
      <point x="413" y="0" type="move" name="bottom"/>
    </contour>
    <contour>
      <point x="413" y="1133" type="move" name="top"/>
    </contour>
  </outline>
</glyph>
<glyph name="ohorn" format="1">
  <advance width="1479"/>
  <unicode hex="01A1"/>
  <note>
ohorn
</note>
  <outline>
    <contour>
      <point x="649.0" y="-20.0" type="qcurve" smooth="yes"/>
      <point x="477.00000000000006" y="-20.0"/>
      <point x="224.16666666666669" y="124.08333333333334"/>
      <point x="86.0" y="388.5"/>
      <point x="86.0" y="569.0" type="qcurve" smooth="yes"/>
      <point x="86.0" y="845.75"/>
      <point x="385.0" y="1153.0"/>
      <point x="655.0" y="1153.0" type="qcurve" smooth="yes"/>
      <point x="771.25" y="1153.0"/>
      <point x="982.0" y="1086.25"/>
      <point x="1057.0" y="1018.0" type="qcurve"/>
      <point x="1105.75" y="1041.25"/>
      <point x="1161.0" y="1189.0"/>
      <point x="1161" y="1300" type="qcurve"/>
      <point x="1538" y="1300" type="line"/>
      <point x="1552.0" y="1278.0" type="line"/>
      <point x="1517.5" y="1086.0"/>
      <point x="1357.0" y="864.0"/>
      <point x="1180.0" y="819.0" type="qcurve"/>
      <point x="1217.0" y="705.04"/>
      <point x="1217.0" y="569.0" type="qcurve" smooth="yes"/>
      <point x="1217.0" y="290.75"/>
      <point x="918.25" y="-20.0"/>
    </contour>
    <contour>
      <point x="653.0" y="291.0" type="qcurve" smooth="yes"/>
      <point x="743.2352941176471" y="291.0"/>
      <point x="784.0" y="368.0" type="qcurve" smooth="yes"/>
      <point x="819.0" y="435.0833333333333"/>
      <point x="819.0" y="569.0" type="qcurve" smooth="yes"/>
      <point x="819.0" y="734.948717948718"/>
      <point x="764.0" y="797.0" type="qcurve" smooth="yes"/>
      <point x="725.0" y="842.0"/>
      <point x="651.0" y="842.0" type="qcurve" smooth="yes"/>
      <point x="580.5769230769231" y="842.0"/>
      <point x="545.0" y="805.0" type="qcurve" smooth="yes"/>
      <point x="485.0" y="743.5365853658536"/>
      <point x="485.0" y="569.0" type="qcurve" smooth="yes"/>
      <point x="485.0" y="428.2307692307692"/>
      <point x="523.0" y="361.0" type="qcurve" smooth="yes"/>
      <point x="563.2127659574468" y="291.0"/>
    </contour>
    <contour>
      <point x="740" y="0" type="move" name="bottom"/>
    </contour>
    <contour>
      <point x="740" y="1133" type="move" name="top"/>
    </contour>
  </outline>
</glyph>
<glyph name="uhorn" format="1">
  <advance width="1659"/>
  <unicode hex="01B0"/>
  <note>
uhorn
</note>
  <outline>
    <contour>
      <point x="528.0" y="-20.0" type="qcurve" smooth="yes"/>
      <point x="340.5" y="-20.0"/>
      <point x="133.0" y="197.75"/>
      <point x="133" y="395" type="qcurve" smooth="yes"/>
      <point x="133" y="1133" type="line"/>
      <point x="524" y="1133" type="line"/>
      <point x="524.0" y="514.0" type="line" smooth="yes"/>
      <point x="524.0" y="397.75"/>
      <point x="589.25" y="289.0"/>
      <point x="668.0" y="289.0" type="qcurve" smooth="yes"/>
      <point x="759.5" y="289.0"/>
      <point x="844.0" y="448.0"/>
      <point x="844" y="637" type="qcurve" smooth="yes"/>
      <point x="844" y="1133" type="line"/>
      <point x="1237" y="1133" type="line"/>
      <point x="1237.0" y="999.0" type="line"/>
      <point x="1290.6078431372548" y="1028.7821350762526"/>
      <point x="1319.0" y="1125.0" type="qcurve" smooth="yes"/>
      <point x="1341.0" y="1202.0"/>
      <point x="1341" y="1298" type="qcurve"/>
      <point x="1718" y="1298" type="line"/>
      <point x="1733.0" y="1276.0" type="line"/>
      <point x="1706.0" y="1139.5"/>
      <point x="1631.5" y="978.25"/>
      <point x="1573.0" y="922.0" type="qcurve" smooth="yes"/>
      <point x="1517.5" y="868.75"/>
      <point x="1356.25" y="793.5"/>
      <point x="1237" y="774" type="qcurve"/>
      <point x="1237" y="0" type="line"/>
      <point x="942" y="0" type="line"/>
      <point x="893" y="141" type="line"/>
      <point x="866.0" y="141.0" type="line"/>
      <point x="817.25" y="62.25"/>
      <point x="641.25" y="-20.0"/>
    </contour>
    <contour>
      <point x="830" y="0" type="move" name="bottom"/>
    </contour>
    <contour>
      <point x="830" y="1133" type="move" name="top"/>
    </contour>
  </outline>
</glyph>
<glyph name="apostrophemod" format="1">
  <advance width="512"/>
  <unicode hex="02BC"/>
  <note>
afii57929
</note>
  <outline>
    <contour>
      <point x="29" y="877" type="line"/>
      <point x="97.32309746328438" y="1197.3594125500667"/>
      <point x="127" y="1460" type="qcurve"/>
      <point x="469" y="1460" type="line"/>
      <point x="484.0" y="1438.0" type="line"/>
      <point x="392.5" y="1072.0"/>
      <point x="307" y="877" type="qcurve"/>
    </contour>
  </outline>
</glyph>
<glyph name="lowringmod" format="1">
  <advance width="670"/>
  <unicode hex="02F3"/>
  <note>
uni02F3
</note>
  <outline>
    <contour>
      <point x="328.0" y="-600.0" type="qcurve" smooth="yes"/>
      <point x="208.0" y="-600.0"/>
      <point x="63.0" y="-464.25"/>
      <point x="63.0" y="-348.0" type="qcurve" smooth="yes"/>
      <point x="63.0" y="-234.0"/>
      <point x="207.25" y="-96.0"/>
      <point x="328.0" y="-96.0" type="qcurve" smooth="yes"/>
      <point x="444.25" y="-96.0"/>
      <point x="598.0" y="-235.0"/>
      <point x="598.0" y="-346.0" type="qcurve" smooth="yes"/>
      <point x="598.0" y="-460.0"/>
      <point x="447.25" y="-600.0"/>
    </contour>
    <contour>
      <point x="330.0" y="-432.0" type="qcurve" smooth="yes"/>
      <point x="365.25" y="-432.0"/>
      <point x="414.0" y="-384.75"/>
      <point x="414.0" y="-348.0" type="qcurve" smooth="yes"/>
      <point x="414.0" y="-311.25"/>
      <point x="366.75" y="-264.0"/>
      <point x="330.0" y="-264.0" type="qcurve" smooth="yes"/>
      <point x="294.75" y="-264.0"/>
      <point x="248.0" y="-311.25"/>
      <point x="248.0" y="-348.0" type="qcurve" smooth="yes"/>
      <point x="248.0" y="-384.75"/>
      <point x="288.0" y="-432.0"/>
    </contour>
    <contour>
      <point x="330" y="1" type="move" name="_bottom"/>
    </contour>
  </outline>
</glyph>
<glyph name="gravecomb" format="1">
  <advance width="0"/>
  <unicode hex="0300"/>
  <note>
    gravecomb
  </note>
  <outline>
    <contour>
      <point x="86" y="1241" type="curve"/>
      <point x="346" y="1241" type="line"/>
      <point x="346" y="1270" type="line"/>
      <point x="191" y="1439"/>
      <point x="120" y="1521"/>
      <point x="84" y="1569" type="curve"/>
      <point x="-346" y="1569" type="line"/>
      <point x="-346" y="1548" type="line"/>
      <point x="-221" y="1449"/>
      <point x="-6" y="1300"/>
    </contour>
    <contour>
      <point x="130" y="1123" type="move" name="_top"/>
    </contour>
    <contour>
      <point x="0" y="1569" type="move" name="top"/>
    </contour>
  </outline>
</glyph>
<glyph name="acutecomb" format="1">
  <unicode hex="0301"/>
  <note>
acutecomb
</note>
  <outline>
    <contour>
      <point x="-346" y="1241" type="line"/>
      <point x="-346.0" y="1270.0" type="line"/>
      <point x="-258.25" y="1363.0"/>
      <point x="-124.75" y="1509.75"/>
      <point x="-82" y="1569" type="qcurve"/>
      <point x="346" y="1569" type="line"/>
      <point x="346.0" y="1548.0" type="line"/>
      <point x="305.875" y="1516.125"/>
      <point x="189.171875" y="1430.0260416666667"/>
      <point x="62.578125" y="1340.2239583333333"/>
      <point x="-50.0" y="1263.5"/>
      <point x="-86" y="1241" type="qcurve"/>
    </contour>
    <contour>
      <point x="-130" y="1133" type="move" name="_top"/>
    </contour>
    <contour>
      <point x="0" y="1569" type="move" name="top"/>
    </contour>
  </outline>
</glyph>
<glyph name="circumflexcomb" format="1">
  <advance width="1237"/>
  <unicode hex="0302"/>
  <note>
circumflex
</note>
  <outline>
    <contour>
      <point x="165" y="1241" type="line"/>
      <point x="165.0" y="1270.0" type="line"/>
      <point x="211.0" y="1313.5"/>
      <point x="311.0833333333333" y="1423.6666666666665"/>
      <point x="397.5" y="1530.5"/>
      <point x="423" y="1569" type="qcurve"/>
      <point x="816.0" y="1569.0" type="line"/>
      <point x="912.75" y="1429.25"/>
      <point x="1072" y="1270" type="qcurve"/>
      <point x="1072" y="1241" type="line"/>
      <point x="818.0" y="1241.0" type="line"/>
      <point x="777.5" y="1265.0"/>
      <point x="728.0" y="1301.0" type="qcurve" smooth="yes"/>
      <point x="677.0" y="1338.5"/>
      <point x="617.0" y="1391.0" type="qcurve"/>
      <point x="560.0" y="1343.0"/>
      <point x="515.0" y="1307.0" type="qcurve" smooth="yes"/>
      <point x="463.3225806451613" y="1266.8064516129032"/>
      <point x="423" y="1241" type="qcurve"/>
    </contour>
    <contour>
      <point x="619" y="1133" type="move" name="_top"/>
    </contour>
    <contour>
      <point x="619" y="1569" type="move" name="top"/>
    </contour>
  </outline>
</glyph>
<glyph name="tildecomb" format="1">
  <unicode hex="0303"/>
  <note>
tildecomb
</note>
  <outline>
    <contour>
      <point x="-421" y="1237" type="line"/>
      <point x="-409.75" y="1411.75"/>
      <point x="-288.25" y="1579.0"/>
      <point x="-169.0" y="1579.0" type="qcurve" smooth="yes"/>
      <point x="-130.75" y="1579.0"/>
      <point x="-45.25" y="1549.0"/>
      <point x="-1.0" y="1531.0" type="qcurve" smooth="yes"/>
      <point x="43.25" y="1513.0"/>
      <point x="128.75" y="1483.0"/>
      <point x="167.0" y="1483.0" type="qcurve" smooth="yes"/>
      <point x="220.625" y="1483.0"/>
      <point x="239" y="1581" type="qcurve"/>
      <point x="421.0" y="1581.0" type="line"/>
      <point x="409.75" y="1413.75"/>
      <point x="283.75" y="1239.0"/>
      <point x="175.0" y="1239.0" type="qcurve" smooth="yes"/>
      <point x="130.0" y="1239.0"/>
      <point x="39.25" y="1269.0"/>
      <point x="-5.0" y="1287.0" type="qcurve" smooth="yes"/>
      <point x="-49.25" y="1305.0"/>
      <point x="-132.25" y="1335.0"/>
      <point x="-169.0" y="1335.0" type="qcurve" smooth="yes"/>
      <point x="-222.90769230769232" y="1335.0"/>
      <point x="-241" y="1237" type="qcurve"/>
    </contour>
    <contour>
      <point x="0" y="1133" type="move" name="_top"/>
    </contour>
    <contour>
      <point x="0" y="1581" type="move" name="top"/>
    </contour>
  </outline>
</glyph>
<glyph name="macroncomb" format="1">
  <advance width="600"/>
  <unicode hex="0304"/>
  <outline>
    <contour>
      <point x="-64" y="1241" type="line"/>
      <point x="664" y="1241" type="line"/>
      <point x="664" y="1477" type="line"/>
      <point x="-64" y="1477" type="line"/>
    </contour>
    <contour>
      <point x="301" y="1133" type="move" name="_top"/>
    </contour>
    <contour>
      <point x="301" y="1477" type="move" name="top"/>
    </contour>
  </outline>
</glyph>
<glyph name="dotaccentcomb" format="1">
  <advance width="666"/>
  <unicode hex="0307"/>
  <note>
dotaccent
</note>
  <outline>
    <contour>
      <point x="332.0" y="1243.0" type="qcurve" smooth="yes"/>
      <point x="125.0" y="1243.0"/>
      <point x="125.0" y="1415.0" type="qcurve" smooth="yes"/>
      <point x="125.0" y="1502.75"/>
      <point x="223.25" y="1589.0"/>
      <point x="332.0" y="1589.0" type="qcurve" smooth="yes"/>
      <point x="440.75" y="1589.0"/>
      <point x="541.0" y="1501.25"/>
      <point x="541.0" y="1415.0" type="qcurve" smooth="yes"/>
      <point x="541.0" y="1243.0"/>
    </contour>
    <contour>
      <point x="333" y="1133" type="move" name="_top"/>
    </contour>
    <contour>
      <point x="333" y="1589" type="move" name="top"/>
    </contour>
  </outline>
</glyph>
<glyph name="dieresiscomb" format="1">
  <advance width="1233"/>
  <unicode hex="0308"/>
  <note>
    dieresis
  </note>
  <outline>
    <contour>
      <point x="856" y="1257" type="curve" smooth="yes"/>
      <point x="963" y="1257"/>
      <point x="1029" y="1318"/>
      <point x="1029" y="1413" type="curve" smooth="yes"/>
      <point x="1029" y="1509"/>
      <point x="963" y="1571"/>
      <point x="856" y="1571" type="curve" smooth="yes"/>
      <point x="749" y="1571"/>
      <point x="684" y="1513"/>
      <point x="684" y="1413" type="curve" smooth="yes"/>
      <point x="684" y="1316"/>
      <point x="748" y="1257"/>
    </contour>
    <contour>
      <point x="375" y="1257" type="curve" smooth="yes"/>
      <point x="480" y="1257"/>
      <point x="547" y="1318"/>
      <point x="547" y="1413" type="curve" smooth="yes"/>
      <point x="547" y="1510"/>
      <point x="480" y="1571"/>
      <point x="375" y="1571" type="curve" smooth="yes"/>
      <point x="271" y="1571"/>
      <point x="205" y="1513"/>
      <point x="205" y="1413" type="curve" smooth="yes"/>
      <point x="205" y="1314"/>
      <point x="271" y="1257"/>
    </contour>
    <contour>
      <point x="617" y="1133" type="move" name="_top"/>
    </contour>
    <contour>
      <point x="617" y="1571" type="move" name="top"/>
    </contour>
  </outline>
</glyph>
<glyph name="hookabovecomb" format="1">
  <unicode hex="0309"/>
  <note>
hookabovecomb
</note>
  <outline>
    <contour>
      <point x="-131" y="1225" type="line"/>
      <point x="-159.0" y="1354.0" type="line"/>
      <point x="-93.0" y="1362.25"/>
      <point x="-47.0" y="1405.25"/>
      <point x="-47.0" y="1442.0" type="qcurve" smooth="yes"/>
      <point x="-47.0" y="1471.25"/>
      <point x="-87.25" y="1505.0"/>
      <point x="-118.0" y="1505.0" type="qcurve" smooth="yes"/>
      <point x="-148.0" y="1505.0"/>
      <point x="-196.0" y="1497.25"/>
      <point x="-256" y="1477" type="qcurve"/>
      <point x="-256.0" y="1681.0" type="line"/>
      <point x="-164.47619047619048" y="1712.0"/>
      <point x="-36.0" y="1712.0" type="qcurve" smooth="yes"/>
      <point x="107.25" y="1712.0"/>
      <point x="256.0" y="1591.75"/>
      <point x="256.0" y="1483.0" type="qcurve" smooth="yes"/>
      <point x="256.0" y="1405.0"/>
      <point x="173.25" y="1295.25"/>
      <point x="87" y="1272" type="qcurve"/>
      <point x="76" y="1225" type="line"/>
    </contour>
    <contour>
      <point x="0" y="1133" type="move" name="_top"/>
    </contour>
    <contour>
      <point x="0" y="1712" type="move" name="top"/>
    </contour>
  </outline>
</glyph>
<glyph name="hungarumlautcomb" format="1">
  <advance width="1198"/>
  <unicode hex="030B"/>
  <note>
    hungarumlaut
  </note>
  <outline>
    <contour>
      <point x="541" y="1241" type="line"/>
      <point x="743" y="1241" type="line"/>
      <point x="906" y="1350"/>
      <point x="1085" y="1491"/>
      <point x="1120" y="1548" type="curve"/>
      <point x="1120" y="1569" type="line"/>
      <point x="748" y="1569" type="line"/>
      <point x="718" y="1515"/>
      <point x="659" y="1430"/>
      <point x="541" y="1270" type="curve"/>
    </contour>
    <contour>
      <point x="78" y="1241" type="line"/>
      <point x="281" y="1241" type="line"/>
      <point x="472" y="1373"/>
      <point x="623" y="1496"/>
      <point x="655" y="1548" type="curve"/>
      <point x="655" y="1569" type="line"/>
      <point x="285" y="1569" type="line"/>
      <point x="255" y="1516"/>
      <point x="195" y="1430"/>
      <point x="78" y="1270" type="curve"/>
    </contour>
    <contour>
      <point x="599" y="1133" type="move" name="_top"/>
    </contour>
    <contour>
      <point x="599" y="1569" type="move" name="top"/>
    </contour>
  </outline>
</glyph>
<glyph name="commaaccentcomb" format="1">
  <advance width="600"/>
  <unicode hex="0326"/>
  <outline>
    <contour>
      <point x="99" y="-453" type="line"/>
      <point x="333" y="-453" type="line"/>
      <point x="398" y="-359"/>
      <point x="454" y="-257"/>
      <point x="501" y="-147" type="curve"/>
      <point x="501" y="-125" type="line"/>
      <point x="146" y="-125" type="line"/>
      <point x="143" y="-209"/>
      <point x="120" y="-349"/>
      <point x="99" y="-424" type="curve"/>
    </contour>
    <contour>
      <point x="300" y="0" type="move" name="_bottom"/>
    </contour>
    <contour>
      <point x="300" y="-453" type="move" name="bottom"/>
    </contour>
  </outline>
</glyph>
<glyph name="cedillacomb" format="1">
  <advance width="383"/>
  <unicode hex="0327"/>
  <note>
cedilla
</note>
  <outline>
    <contour>
      <point x="161.0" y="-492.0" type="qcurve" smooth="yes"/>
      <point x="25.84210526315789" y="-492.0"/>
      <point x="-52" y="-463" type="qcurve"/>
      <point x="-52.0" y="-258.0" type="line"/>
      <point x="30.5" y="-285.0"/>
      <point x="95.0" y="-285.0" type="qcurve" smooth="yes"/>
      <point x="147.0" y="-285.0"/>
      <point x="147.0" y="-238.0" type="qcurve" smooth="yes"/>
      <point x="147.0" y="-205.0"/>
      <point x="65.0" y="-154.0"/>
      <point x="-1" y="-139" type="qcurve"/>
      <point x="71" y="0" type="line"/>
      <point x="274" y="0" type="line"/>
      <point x="265.0" y="-29.0" type="line"/>
      <point x="361.0" y="-68.0"/>
      <point x="435.0" y="-174.75"/>
      <point x="435.0" y="-252.0" type="qcurve" smooth="yes"/>
      <point x="435.0" y="-360.75"/>
      <point x="284.75" y="-492.0"/>
    </contour>
    <contour>
      <point x="192" y="0" type="move" name="_bottom"/>
    </contour>
    <contour>
      <point x="192" y="-492" type="move" name="bottom"/>
    </contour>
  </outline>
</glyph>
<glyph name="ogonekcomb" format="1">
  <advance width="434"/>
  <unicode hex="0328"/>
  <note>
ogonek
</note>
  <outline>
    <contour>
      <point x="268.0" y="-492.0" type="qcurve" smooth="yes"/>
      <point x="145.75" y="-492.0"/>
      <point x="-8.0" y="-362.75"/>
      <point x="-8.0" y="-260.0" type="qcurve" smooth="yes"/>
      <point x="-8.0" y="-191.0"/>
      <point x="72.25" y="-66.0"/>
      <point x="166" y="0" type="qcurve"/>
      <point x="379.0" y="0.0" type="line"/>
      <point x="325.0" y="-49.5"/>
      <point x="246.0" y="-148.0"/>
      <point x="246.0" y="-199.0" type="qcurve" smooth="yes"/>
      <point x="246.0" y="-266.0"/>
      <point x="324.0" y="-266.0" type="qcurve" smooth="yes"/>
      <point x="395.06666666666666" y="-266.0"/>
      <point x="442" y="-244" type="qcurve"/>
      <point x="442.0" y="-465.0" type="line"/>
      <point x="359.5" y="-492.0"/>
    </contour>
    <contour>
      <point x="449" y="10" type="move" name="_ogonek"/>
    </contour>
  </outline>
</glyph>
<glyph name="tonos" format="1">
  <advance width="1108"/>
  <unicode hex="0384"/>
  <note>
    tonos
  </note>
  <outline>
    <contour>
      <point x="345" y="1241" type="line"/>
      <point x="570" y="1241" type="line"/>
      <point x="645" y="1362"/>
      <point x="709" y="1482"/>
      <point x="764" y="1602" type="curve"/>
      <point x="764" y="1628" type="line"/>
      <point x="420" y="1628" type="line"/>
      <point x="408" y="1544"/>
      <point x="372" y="1365"/>
      <point x="345" y="1274" type="curve"/>
    </contour>
    <contour>
      <point x="549" y="1112" type="move" name="_top"/>
    </contour>
    <contour>
      <point x="725" y="1556" type="move" name="_topleft"/>
    </contour>
  </outline>
</glyph>
<glyph name="Epsilon" format="1">
  <advance width="1124"/>
  <unicode hex="0395"/>
  <note>
    Epsilon
  </note>
  <outline>
    <component base="E"/>
    <contour>
      <point x="25" y="1452" type="move" name="topleft"/>
    </contour>
  </outline>
</glyph>
<glyph name="Iota" format="1">
  <advance width="713"/>
  <unicode hex="0399"/>
  <note>
    Iota
  </note>
  <outline>
    <component base="I"/>
    <contour>
      <point x="36" y="1452" type="move" name="topleft"/>
    </contour>
  </outline>
</glyph>
<glyph name="Upsilon" format="1">
  <advance width="1360"/>
  <unicode hex="03A5"/>
  <note>
Upsilon
</note>
  <outline>
    <contour>
      <point x="481" y="0" type="line"/>
      <point x="481" y="559" type="line"/>
      <point x="0" y="1462" type="line"/>
      <point x="430" y="1462" type="line"/>
      <point x="680" y="920" type="line"/>
      <point x="932" y="1462" type="line"/>
      <point x="1360" y="1462" type="line"/>
      <point x="879" y="571" type="line"/>
      <point x="879" y="0" type="line"/>
    </contour>
    <contour>
      <point x="680" y="1462" type="move" name="top"/>
    </contour>
    <contour>
      <point x="20" y="1462" type="move" name="topleft"/>
    </contour>
  </outline>
</glyph>
<glyph name="Phi" format="1">
  <advance width="1831"/>
  <unicode hex="03A6"/>
  <note>
Phi
</note>
  <outline>
    <contour>
      <point x="725" y="-20" type="line"/>
      <point x="725" y="205" type="line"/>
      <point x="705.0" y="205.0" type="line" smooth="yes"/>
      <point x="503.25" y="205.0"/>
      <point x="220.0" y="338.25"/>
      <point x="148.0" y="462.0" type="qcurve" smooth="yes"/>
      <point x="76.0" y="585.0"/>
      <point x="76.0" y="758.0" type="qcurve" smooth="yes"/>
      <point x="76.0" y="920.75"/>
      <point x="229.0" y="1174.5"/>
      <point x="367.0" y="1239.0" type="qcurve" smooth="yes"/>
      <point x="502.4418604651163" y="1303.0"/>
      <point x="688" y="1303" type="qcurve" smooth="yes"/>
      <point x="725" y="1303" type="line"/>
      <point x="725" y="1483" type="line"/>
      <point x="1106" y="1483" type="line"/>
      <point x="1106" y="1303" type="line"/>
      <point x="1135.0" y="1303.0" type="line" smooth="yes"/>
      <point x="1323.25" y="1303.0"/>
      <point x="1604.25" y="1165.25"/>
      <point x="1680.0" y="1040.0" type="qcurve" smooth="yes"/>
      <point x="1755.0" y="915.5"/>
      <point x="1755.0" y="756.0" type="qcurve" smooth="yes"/>
      <point x="1755.0" y="590.25"/>
      <point x="1607.25" y="341.25"/>
      <point x="1464.0" y="273.0" type="qcurve" smooth="yes"/>
      <point x="1320.4444444444443" y="205.0"/>
      <point x="1118" y="205" type="qcurve" smooth="yes"/>
      <point x="1106" y="205" type="line"/>
      <point x="1106" y="-20" type="line"/>
    </contour>
    <contour>
      <point x="705" y="504" type="qcurve" smooth="yes"/>
      <point x="725" y="504" type="line"/>
      <point x="725" y="1001" type="line"/>
      <point x="702.0" y="1001.0" type="line" smooth="yes"/>
      <point x="585.0" y="1001.0"/>
      <point x="461.0" y="877.25"/>
      <point x="461.0" y="758.0" type="qcurve" smooth="yes"/>
      <point x="461.0" y="623.0"/>
      <point x="582.0" y="504.0"/>
    </contour>
    <contour>
      <point x="1106" y="504" type="line"/>
      <point x="1118.0" y="504.0" type="line" smooth="yes"/>
      <point x="1370.0" y="504.0"/>
      <point x="1370.0" y="758.0" type="qcurve" smooth="yes"/>
      <point x="1370.0" y="872.0"/>
      <point x="1239.75" y="1001.0"/>
      <point x="1122" y="1001" type="qcurve" smooth="yes"/>
      <point x="1106" y="1001" type="line"/>
    </contour>
  </outline>
</glyph>
<glyph name="Psi" format="1">
  <advance width="1905"/>
  <unicode hex="03A8"/>
  <note>
Psi
</note>
  <outline>
    <contour>
      <point x="762" y="0" type="line"/>
      <point x="762" y="397" type="line"/>
      <point x="725.0" y="397.0" type="line" smooth="yes"/>
      <point x="398.75" y="397.0"/>
      <point x="113.0" y="660.25"/>
      <point x="113" y="958" type="qcurve" smooth="yes"/>
      <point x="113" y="1462" type="line"/>
      <point x="502" y="1462" type="line"/>
      <point x="502.0" y="963.0" type="line" smooth="yes"/>
      <point x="502.0" y="844.7272727272727"/>
      <point x="550.0" y="788.0" type="qcurve" smooth="yes"/>
      <point x="606.3333333333334" y="723.0"/>
      <point x="745" y="723" type="qcurve" smooth="yes"/>
      <point x="762" y="723" type="line"/>
      <point x="762" y="1462" type="line"/>
      <point x="1143" y="1462" type="line"/>
      <point x="1143" y="723" type="line"/>
      <point x="1163.0" y="723.0" type="line" smooth="yes"/>
      <point x="1270.2222222222222" y="723.0"/>
      <point x="1334.0" y="779.0" type="qcurve" smooth="yes"/>
      <point x="1403.0" y="840.3333333333334"/>
      <point x="1403" y="958" type="qcurve" smooth="yes"/>
      <point x="1403" y="1462" type="line"/>
      <point x="1792" y="1462" type="line"/>
      <point x="1792.0" y="985.0" type="line" smooth="yes"/>
      <point x="1792.0" y="679.75"/>
      <point x="1502.25" y="397.0"/>
      <point x="1182" y="397" type="qcurve" smooth="yes"/>
      <point x="1143" y="397" type="line"/>
      <point x="1143" y="0" type="line"/>
    </contour>
  </outline>
</glyph>
<glyph name="alpha" format="1">
  <advance width="1376"/>
  <unicode hex="03B1"/>
  <note>
alpha
</note>
  <outline>
    <contour>
      <point x="516.0" y="-20.0" type="qcurve" smooth="yes"/>
      <point x="314.25" y="-20.0"/>
      <point x="86.0" y="288.75"/>
      <point x="86.0" y="561.0" type="qcurve" smooth="yes"/>
      <point x="86.0" y="840.75"/>
      <point x="327.0" y="1149.0"/>
      <point x="543.0" y="1149.0" type="qcurve" smooth="yes"/>
      <point x="659.25" y="1149.0"/>
      <point x="806.75" y="1067.25"/>
      <point x="854" y="981" type="qcurve"/>
      <point x="870.0" y="981.0" type="line"/>
      <point x="898.2444273635665" y="1085.0584166026133"/>
      <point x="940" y="1133" type="qcurve"/>
      <point x="1268.0" y="1133.0" type="line"/>
      <point x="1229.0" y="1028.0"/>
      <point x="1184.0" y="775.75"/>
      <point x="1184" y="664" type="qcurve" smooth="yes"/>
      <point x="1184.0" y="408.0" type="line" smooth="yes"/>
      <point x="1184.0" y="287.0"/>
      <point x="1266.0" y="287.0" type="qcurve" smooth="yes"/>
      <point x="1299.2857142857142" y="287.0"/>
      <point x="1325" y="297" type="qcurve"/>
      <point x="1325.0" y="6.0" type="line"/>
      <point x="1314.5" y="-0.5"/>
      <point x="1254.5" y="-12.416666666666668"/>
      <point x="1188.5" y="-20.0"/>
      <point x="1169.0" y="-20.0" type="qcurve" smooth="yes"/>
      <point x="1040.0" y="-20.0"/>
      <point x="900.75" y="57.75"/>
      <point x="858" y="147" type="qcurve"/>
      <point x="834.0" y="147.0" type="line"/>
      <point x="724.1711711711712" y="-19.999999999999993"/>
    </contour>
    <contour>
      <point x="649.0" y="283.0" type="qcurve" smooth="yes"/>
      <point x="704.5" y="283.0"/>
      <point x="777.5" y="326.0"/>
      <point x="797.0" y="377.0" type="qcurve" smooth="yes"/>
      <point x="821.48" y="437.48"/>
      <point x="823" y="553" type="qcurve" smooth="yes"/>
      <point x="823.0" y="563.0" type="line" smooth="yes"/>
      <point x="823.0" y="735.1"/>
      <point x="764.0" y="800.0" type="qcurve" smooth="yes"/>
      <point x="722.4516129032259" y="846.0"/>
      <point x="645.0" y="846.0" type="qcurve" smooth="yes"/>
      <point x="577.6571428571428" y="846.0"/>
      <point x="536.0" y="792.0" type="qcurve" smooth="yes"/>
      <point x="483.0" y="719.3142857142857"/>
      <point x="483.0" y="559.0" type="qcurve" smooth="yes"/>
      <point x="483.0" y="444.1578947368421"/>
      <point x="512.0" y="377.0" type="qcurve" smooth="yes"/>
      <point x="552.2857142857143" y="283.0"/>
    </contour>
    <contour>
      <point x="688" y="1133" type="move" name="top"/>
    </contour>
  </outline>
</glyph>
<glyph name="eta" format="1">
  <advance width="1372"/>
  <unicode hex="03B7"/>
  <note>
eta
</note>
  <outline>
    <contour>
      <point x="850" y="-492" type="line"/>
      <point x="850.0" y="645.0" type="line" smooth="yes"/>
      <point x="850.0" y="846.0"/>
      <point x="713.0" y="846.0" type="qcurve" smooth="yes"/>
      <point x="606.65625" y="846.0"/>
      <point x="564.0" y="755.0" type="qcurve" smooth="yes"/>
      <point x="526.0" y="673.1538461538462"/>
      <point x="526" y="496" type="qcurve" smooth="yes"/>
      <point x="526" y="0" type="line"/>
      <point x="135" y="0" type="line"/>
      <point x="135" y="1133" type="line"/>
      <point x="430" y="1133" type="line"/>
      <point x="479" y="993" type="line"/>
      <point x="502.0" y="993.0" type="line"/>
      <point x="552.25" y="1073.25"/>
      <point x="729.25" y="1153.0"/>
      <point x="844.0" y="1153.0" type="qcurve" smooth="yes"/>
      <point x="1032.25" y="1153.0"/>
      <point x="1241.0" y="935.0"/>
      <point x="1241" y="737" type="qcurve" smooth="yes"/>
      <point x="1241" y="-492" type="line"/>
    </contour>
    <contour>
      <point x="686" y="1133" type="move" name="top"/>
    </contour>
  </outline>
</glyph>
<glyph name="xi" format="1">
  <advance width="1057"/>
  <unicode hex="03BE"/>
  <note>
xi
</note>
  <outline>
    <contour>
      <point x="522" y="-365" type="line"/>
      <point x="587.25" y="-293.75"/>
      <point x="674.0" y="-138.0"/>
      <point x="674.0" y="-102.0" type="qcurve" smooth="yes"/>
      <point x="674.0" y="-57.68"/>
      <point x="637.0" y="-34.0" type="qcurve" smooth="yes"/>
      <point x="598.8339529120199" y="-9.573729863692689"/>
      <point x="483.0" y="16.0" type="qcurve" smooth="yes"/>
      <point x="276.0" y="61.75"/>
      <point x="86.0" y="267.75"/>
      <point x="86.0" y="426.0" type="qcurve" smooth="yes"/>
      <point x="86.0" y="567.0"/>
      <point x="226.75" y="752.0"/>
      <point x="367" y="809" type="qcurve"/>
      <point x="367.0" y="817.0" type="line"/>
      <point x="150.0" y="863.3931034482758"/>
      <point x="150.0" y="1055.0" type="qcurve" smooth="yes"/>
      <point x="150.0" y="1139.0"/>
      <point x="263.0" y="1257.0"/>
      <point x="362.0" y="1278.0" type="qcurve"/>
      <point x="303.5" y="1271.25"/>
      <point x="219.75" y="1266.0"/>
      <point x="174" y="1266" type="qcurve" smooth="yes"/>
      <point x="119" y="1266" type="line"/>
      <point x="119" y="1556" type="line"/>
      <point x="1010" y="1556" type="line"/>
      <point x="1010" y="1266" type="line"/>
      <point x="846.0" y="1266.0" type="line" smooth="yes"/>
      <point x="680.7714285714286" y="1266.0"/>
      <point x="605.0" y="1214.0" type="qcurve" smooth="yes"/>
      <point x="539.0" y="1167.5"/>
      <point x="539.0" y="1083.0" type="qcurve" smooth="yes"/>
      <point x="539.0" y="1010.25"/>
      <point x="653.25" y="948.0"/>
      <point x="774" y="948" type="qcurve" smooth="yes"/>
      <point x="936" y="948" type="line"/>
      <point x="936" y="662" type="line"/>
      <point x="776.0" y="662.0" type="line" smooth="yes"/>
      <point x="632.0" y="662.0"/>
      <point x="483.0" y="574.25"/>
      <point x="483.0" y="473.0" type="qcurve" smooth="yes"/>
      <point x="483.0" y="416.0"/>
      <point x="531.25" y="356.0"/>
      <point x="589.0" y="332.0" type="qcurve" smooth="yes"/>
      <point x="648.4784946236559" y="307.59856630824373"/>
      <point x="750.0" y="287.0" type="qcurve" smooth="yes"/>
      <point x="895.3963636363636" y="256.7090909090909"/>
      <point x="971.0" y="190.0" type="qcurve" smooth="yes"/>
      <point x="1061.0" y="112.0"/>
      <point x="1061.0" y="-18.0" type="qcurve" smooth="yes"/>
      <point x="1061.0" y="-181.16129032258064"/>
      <point x="922" y="-365" type="qcurve"/>
    </contour>
  </outline>
</glyph>
<glyph name="rho" format="1">
  <advance width="1331"/>
  <unicode hex="03C1"/>
  <note>
rho
</note>
  <outline>
    <contour>
      <point x="131" y="-492" type="line"/>
      <point x="131.0" y="559.0" type="line" smooth="yes"/>
      <point x="131.0" y="838.75"/>
      <point x="427.0" y="1153.0"/>
      <point x="694.0" y="1153.0" type="qcurve" smooth="yes"/>
      <point x="862.5" y="1153.0"/>
      <point x="1109.9166666666665" y="1003.5833333333331"/>
      <point x="1245.0" y="738.5"/>
      <point x="1245.0" y="565.0" type="qcurve" smooth="yes"/>
      <point x="1245.0" y="289.75"/>
      <point x="1006.75" y="-20.0"/>
      <point x="799.0" y="-20.0" type="qcurve" smooth="yes"/>
      <point x="723.25" y="-20.0"/>
      <point x="577.0" y="16.25"/>
      <point x="526" y="47" type="qcurve"/>
      <point x="500.0" y="47.0" type="line"/>
      <point x="522.0" y="-107.0"/>
      <point x="522" y="-219" type="qcurve" smooth="yes"/>
      <point x="522" y="-492" type="line"/>
    </contour>
    <contour>
      <point x="690.0" y="283.0" type="qcurve" smooth="yes"/>
      <point x="767.8157894736842" y="283.0"/>
      <point x="804.0" y="338.0" type="qcurve" smooth="yes"/>
      <point x="848.0" y="400.4516129032258"/>
      <point x="848.0" y="565.0" type="qcurve" smooth="yes"/>
      <point x="848.0" y="750.2105263157895"/>
      <point x="792.0" y="818.0" type="qcurve" smooth="yes"/>
      <point x="755.3333333333334" y="862.0"/>
      <point x="688.0" y="862.0" type="qcurve" smooth="yes"/>
      <point x="619.0344827586207" y="862.0"/>
      <point x="579.0" y="819.0" type="qcurve" smooth="yes"/>
      <point x="522.0" y="759.0"/>
      <point x="522" y="612" type="qcurve" smooth="yes"/>
      <point x="522.0" y="358.0" type="line"/>
      <point x="552.75" y="321.25"/>
      <point x="647.25" y="283.0"/>
    </contour>
  </outline>
</glyph>
<glyph name="sigma" format="1">
  <advance width="1395"/>
  <unicode hex="03C3"/>
  <note>
sigma
</note>
  <outline>
    <contour>
      <point x="664.0" y="-20.0" type="qcurve" smooth="yes"/>
      <point x="485.5" y="-20.0"/>
      <point x="226.25" y="110.75"/>
      <point x="86.0" y="354.5"/>
      <point x="86.0" y="524.0" type="qcurve" smooth="yes"/>
      <point x="86.0" y="836.75"/>
      <point x="417.25" y="1133.0"/>
      <point x="766" y="1133" type="qcurve" smooth="yes"/>
      <point x="1341" y="1133" type="line"/>
      <point x="1341" y="842" type="line"/>
      <point x="1063.0" y="842.0" type="line"/>
      <point x="1245.0" y="709.6363636363636"/>
      <point x="1245.0" y="477.0" type="qcurve" smooth="yes"/>
      <point x="1245.0" y="327.75"/>
      <point x="1105.25" y="101.0"/>
      <point x="974.0" y="41.0" type="qcurve" smooth="yes"/>
      <point x="844.560975609756" y="-20.0"/>
    </contour>
    <contour>
      <point x="668.0" y="291.0" type="qcurve" smooth="yes"/>
      <point x="750.5" y="291.0"/>
      <point x="794.0" y="342.0" type="qcurve" smooth="yes"/>
      <point x="848.0" y="402.0"/>
      <point x="848.0" y="537.0" type="qcurve" smooth="yes"/>
      <point x="848.0" y="600.75"/>
      <point x="831.0" y="693.25"/>
      <point x="813.0" y="733.0" type="qcurve" smooth="yes"/>
      <point x="796.3982300884956" y="770.3539823008849"/>
      <point x="745" y="842" type="qcurve"/>
      <point x="723.0" y="842.0" type="line" smooth="yes"/>
      <point x="604.6744186046511" y="842.0"/>
      <point x="549.0" y="779.0" type="qcurve" smooth="yes"/>
      <point x="485.0" y="704.8181818181819"/>
      <point x="485.0" y="526.0" type="qcurve" smooth="yes"/>
      <point x="485.0" y="419.8571428571429"/>
      <point x="529.0" y="357.0" type="qcurve" smooth="yes"/>
      <point x="578.1162790697674" y="291.0"/>
    </contour>
  </outline>
</glyph>
<glyph name="upsilon" format="1">
  <advance width="1358"/>
  <unicode hex="03C5"/>
  <note>
    upsilon
  </note>
  <outline>
    <contour>
      <point x="676" y="-16" type="curve" smooth="yes"/>
      <point x="1072" y="-16"/>
      <point x="1260" y="191"/>
      <point x="1260" y="610" type="curve" smooth="yes"/>
      <point x="1260" y="781"/>
      <point x="1242" y="922"/>
      <point x="1186" y="1133" type="curve"/>
      <point x="791" y="1133" type="line"/>
      <point x="842" y="938"/>
      <point x="868" y="767"/>
      <point x="868" y="618" type="curve" smooth="yes"/>
      <point x="868" y="480"/>
      <point x="850" y="391"/>
      <point x="808" y="341" type="curve" smooth="yes"/>
      <point x="779" y="307"/>
      <point x="738" y="291"/>
      <point x="684" y="291" type="curve" smooth="yes"/>
      <point x="573" y="291"/>
      <point x="522" y="346"/>
      <point x="522" y="498" type="curve" smooth="yes"/>
      <point x="522" y="1133" type="line"/>
      <point x="131" y="1133" type="line"/>
      <point x="131" y="518" type="line" smooth="yes"/>
      <point x="131" y="415"/>
      <point x="145" y="328"/>
      <point x="174" y="256" type="curve" smooth="yes"/>
      <point x="247" y="71"/>
      <point x="415" y="-16"/>
    </contour>
    <contour>
      <point x="669" y="1133" type="move" name="top"/>
    </contour>
  </outline>
</glyph>
<glyph name="phi" format="1">
  <advance width="1733"/>
  <unicode hex="03C6"/>
  <note>
phi
</note>
  <outline>
    <contour>
      <point x="664" y="-492" type="line"/>
      <point x="664.0" y="-8.0" type="line"/>
      <point x="390.25" y="10.75"/>
      <point x="86.0" y="308.25"/>
      <point x="86.0" y="555.0" type="qcurve" smooth="yes"/>
      <point x="86.0" y="722.25"/>
      <point x="197.0" y="1019.25"/>
      <point x="317" y="1167" type="qcurve"/>
      <point x="608.0" y="991.0" type="line"/>
      <point x="542.75" y="904.75"/>
      <point x="467.0" y="666.75"/>
      <point x="467.0" y="549.0" type="qcurve" smooth="yes"/>
      <point x="467.0" y="435.75"/>
      <point x="568.0" y="309.25"/>
      <point x="664" y="283" type="qcurve"/>
      <point x="664.0" y="688.0" type="line" smooth="yes"/>
      <point x="664.0" y="921.25"/>
      <point x="883.75" y="1147.0"/>
      <point x="1114.0" y="1147.0" type="qcurve" smooth="yes"/>
      <point x="1360.0" y="1147.0"/>
      <point x="1647.0" y="861.25"/>
      <point x="1647.0" y="604.0" type="qcurve" smooth="yes"/>
      <point x="1647.0" y="466.75"/>
      <point x="1557.0" y="246.5"/>
      <point x="1473.0" y="167.0" type="qcurve" smooth="yes"/>
      <point x="1311.1336633663366" y="17.46633663366336"/>
      <point x="1034" y="-8" type="qcurve"/>
      <point x="1034" y="-492" type="line"/>
    </contour>
    <contour>
      <point x="1034" y="283" type="line"/>
      <point x="1152.9341463414635" y="292.14878048780486"/>
      <point x="1211.0" y="393.0" type="qcurve" smooth="yes"/>
      <point x="1257.0" y="472.73333333333335"/>
      <point x="1257.0" y="602.0" type="qcurve" smooth="yes"/>
      <point x="1257.0" y="719.4285714285714"/>
      <point x="1224.0" y="787.0" type="qcurve" smooth="yes"/>
      <point x="1189.5" y="856.0"/>
      <point x="1120.0" y="856.0" type="qcurve" smooth="yes"/>
      <point x="1071.25" y="856.0"/>
      <point x="1034.0" y="786.75"/>
      <point x="1034" y="702" type="qcurve" smooth="yes"/>
    </contour>
  </outline>
</glyph>
<glyph name="chi" format="1">
  <advance width="1323"/>
  <unicode hex="03C7"/>
  <note>
chi
</note>
  <outline>
    <contour>
      <point x="-53" y="-492" type="line"/>
      <point x="455" y="408" type="line"/>
      <point x="336.0" y="721.0" type="line" smooth="yes"/>
      <point x="319.5" y="764.5"/>
      <point x="297.0" y="793.0" type="qcurve" smooth="yes"/>
      <point x="256.5" y="844.0"/>
      <point x="199.0" y="844.0" type="qcurve" smooth="yes"/>
      <point x="136.58823529411765" y="844.0"/>
      <point x="66" y="819" type="qcurve"/>
      <point x="66.0" y="1112.0" type="line"/>
      <point x="171.0" y="1151.0"/>
      <point x="272.0" y="1151.0" type="qcurve" smooth="yes"/>
      <point x="362.0" y="1151.0"/>
      <point x="491.25" y="1112.25"/>
      <point x="540.0" y="1068.0" type="qcurve" smooth="yes"/>
      <point x="612.4305106658048" y="1001.3639301874596"/>
      <point x="666" y="860" type="qcurve" smooth="yes"/>
      <point x="707" y="754" type="line"/>
      <point x="895" y="1133" type="line"/>
      <point x="1303" y="1133" type="line"/>
      <point x="881" y="381" type="line"/>
      <point x="1061.0" y="-74.0" type="line" smooth="yes"/>
      <point x="1080.842105263158" y="-122.84210526315789"/>
      <point x="1107.0" y="-149.0" type="qcurve" smooth="yes"/>
      <point x="1142.0" y="-184.0"/>
      <point x="1188.0" y="-184.0" type="qcurve" smooth="yes"/>
      <point x="1239.5555555555557" y="-184.0"/>
      <point x="1294" y="-170" type="qcurve"/>
      <point x="1294.0" y="-451.0" type="line"/>
      <point x="1184.6666666666667" y="-492.0"/>
      <point x="1053.0" y="-492.0" type="qcurve" smooth="yes"/>
      <point x="916.8846153846154" y="-492.0"/>
      <point x="831.0" y="-415.0" type="qcurve" smooth="yes"/>
      <point x="750.1596009975062" y="-341.5087281795511"/>
      <point x="702" y="-188" type="qcurve" smooth="yes"/>
      <point x="629" y="35" type="line"/>
      <point x="385" y="-492" type="line"/>
    </contour>
  </outline>
</glyph>
<glyph name="UpsilonhookSymbol" format="1">
  <advance width="1376"/>
  <unicode hex="03D2"/>
  <note>
Upsilon1
</note>
  <outline>
    <contour>
      <point x="487" y="0" type="line"/>
      <point x="487" y="559" type="line"/>
      <point x="0" y="1462" type="line"/>
      <point x="430" y="1462" type="line"/>
      <point x="680.0" y="936.0" type="line"/>
      <point x="694.25" y="966.0"/>
      <point x="723.75" y="1027.0"/>
      <point x="738.0" y="1057.0" type="qcurve" smooth="yes"/>
      <point x="806.25" y="1198.75"/>
      <point x="915.0" y="1369.5"/>
      <point x="972.0" y="1413.0" type="qcurve" smooth="yes"/>
      <point x="1016.25" y="1447.5"/>
      <point x="1117.5" y="1475.0"/>
      <point x="1182.0" y="1475.0" type="qcurve" smooth="yes"/>
      <point x="1283.7391304347825" y="1475.0"/>
      <point x="1372" y="1440" type="qcurve"/>
      <point x="1372.0" y="1153.0" type="line"/>
      <point x="1328.4444444444443" y="1167.0"/>
      <point x="1296.0" y="1167.0" type="qcurve" smooth="yes"/>
      <point x="1251.3809523809523" y="1167.0"/>
      <point x="1213.0" y="1136.0" type="qcurve" smooth="yes"/>
      <point x="1195.0" y="1121.75"/>
      <point x="1149.25" y="1065.5"/>
      <point x="1123.0" y="1028.0" type="qcurve" smooth="yes"/>
      <point x="1092.25" y="982.25"/>
      <point x="1025.5" y="869.5"/>
      <point x="994.0" y="808.0" type="qcurve" smooth="yes"/>
      <point x="964.75" y="751.0"/>
      <point x="910.5" y="628.25"/>
      <point x="885" y="563" type="qcurve"/>
      <point x="885" y="0" type="line"/>
    </contour>
    <contour>
      <point x="688" y="1462" type="move" name="top"/>
    </contour>
  </outline>
</glyph>
<glyph name="phiSymbol" format="1">
  <advance width="1485"/>
  <unicode hex="03D5"/>
  <outline>
    <contour>
      <point x="653" y="-492" type="line"/>
      <point x="653.0" y="-16.0" type="line"/>
      <point x="490.49999999999994" y="-2.9999999999999982"/>
      <point x="246.58333333333331" y="138.16666666666666"/>
      <point x="111.0" y="382.0"/>
      <point x="111.0" y="549.0" type="qcurve" smooth="yes"/>
      <point x="111.0" y="799.5"/>
      <point x="399.5" y="1093.75"/>
      <point x="659" y="1114" type="qcurve"/>
      <point x="659" y="1556" type="line"/>
      <point x="829" y="1556" type="line"/>
      <point x="829.0" y="1114.0" type="line"/>
      <point x="992.0" y="1098.5"/>
      <point x="1236.333333333333" y="956.9166666666666"/>
      <point x="1372.0" y="715.0"/>
      <point x="1372.0" y="549.0" type="qcurve" smooth="yes"/>
      <point x="1372.0" y="300.0"/>
      <point x="1082.5" y="5.0"/>
      <point x="829" y="-16" type="qcurve"/>
      <point x="829" y="-492" type="line"/>
    </contour>
    <contour>
      <point x="659" y="131" type="qcurve"/>
      <point x="659.0" y="965.0" type="line"/>
      <point x="470.75" y="946.25"/>
      <point x="299.0" y="735.0"/>
      <point x="299.0" y="549.0" type="qcurve" smooth="yes"/>
      <point x="299.0" y="363.0"/>
      <point x="472.25" y="149.75"/>
    </contour>
    <contour>
      <point x="829" y="131" type="line"/>
      <point x="1013.5" y="151.25"/>
      <point x="1186.0" y="364.5"/>
      <point x="1186.0" y="549.0" type="qcurve" smooth="yes"/>
      <point x="1186.0" y="733.5"/>
      <point x="1010.5" y="942.75"/>
      <point x="829" y="963" type="qcurve"/>
    </contour>
  </outline>
</glyph>
<glyph name="piSymbol" format="1">
  <advance width="2179"/>
  <unicode hex="03D6"/>
  <note>
omega1
</note>
  <outline>
    <contour>
      <point x="743.0" y="-20.0" type="qcurve" smooth="yes"/>
      <point x="528.1025641025641" y="-20.0"/>
      <point x="403.0" y="99.0" type="qcurve" smooth="yes"/>
      <point x="252.0" y="242.37373737373738"/>
      <point x="252.0" y="535.0" type="qcurve" smooth="yes"/>
      <point x="252.0" y="695.0"/>
      <point x="303" y="842" type="qcurve"/>
      <point x="61" y="842" type="line"/>
      <point x="61" y="1008" type="line"/>
      <point x="256" y="1133" type="line"/>
      <point x="2118" y="1133" type="line"/>
      <point x="2118" y="842" type="line"/>
      <point x="1876.0" y="842.0" type="line"/>
      <point x="1927.0" y="656.0"/>
      <point x="1927.0" y="535.0" type="qcurve" smooth="yes"/>
      <point x="1927.0" y="197.72727272727275"/>
      <point x="1725.0" y="60.0" type="qcurve" smooth="yes"/>
      <point x="1608.076923076923" y="-20.0"/>
      <point x="1434.0" y="-20.0" type="qcurve" smooth="yes"/>
      <point x="1310.25" y="-20.0"/>
      <point x="1141.75" y="89.75"/>
      <point x="1096" y="209" type="qcurve"/>
      <point x="1083.0" y="209.0" type="line"/>
      <point x="1032.75" y="86.75"/>
      <point x="865.25" y="-20.0"/>
    </contour>
    <contour>
      <point x="776.0" y="283.0" type="qcurve" smooth="yes"/>
      <point x="868.3582089552239" y="283.0"/>
      <point x="892.0" y="382.0" type="qcurve" smooth="yes"/>
      <point x="903.0" y="433.85714285714283"/>
      <point x="903" y="551" type="qcurve" smooth="yes"/>
      <point x="903" y="664" type="line"/>
      <point x="1276" y="664" type="line"/>
      <point x="1276.0" y="551.0" type="line" smooth="yes"/>
      <point x="1276.0" y="419.0"/>
      <point x="1288.0" y="374.0" type="qcurve" smooth="yes"/>
      <point x="1310.377049180328" y="283.0"/>
      <point x="1401.0" y="283.0" type="qcurve" smooth="yes"/>
      <point x="1477.7105263157894" y="283.0"/>
      <point x="1511.0" y="338.0" type="qcurve" smooth="yes"/>
      <point x="1546.0" y="396.3333333333333"/>
      <point x="1546.0" y="537.0" type="qcurve" smooth="yes"/>
      <point x="1546.0" y="646.6571428571428"/>
      <point x="1493" y="842" type="qcurve"/>
      <point x="684.0" y="842.0" type="line"/>
      <point x="663.75" y="793.25"/>
      <point x="633.0" y="623.0"/>
      <point x="633.0" y="545.0" type="qcurve" smooth="yes"/>
      <point x="633.0" y="405.4"/>
      <point x="661.0" y="348.0" type="qcurve" smooth="yes"/>
      <point x="692.8085106382979" y="283.0"/>
    </contour>
  </outline>
</glyph>
<glyph name="E-cy" format="1">
  <advance width="1405"/>
  <unicode hex="0404"/>
  <note>
    afii10053
  </note>
  <outline>
    <contour>
      <point x="829" y="-20" type="curve" smooth="yes"/>
      <point x="1010" y="-20"/>
      <point x="1127" y="3"/>
      <point x="1290" y="68" type="curve"/>
      <point x="1290" y="395" type="line"/>
      <point x="1078" y="328"/>
      <point x="963" y="303"/>
      <point x="844" y="303" type="curve" smooth="yes"/>
      <point x="649" y="303"/>
      <point x="533" y="396"/>
      <point x="514" y="561" type="curve"/>
      <point x="1098" y="561" type="line"/>
      <point x="1098" y="879" type="line"/>
      <point x="514" y="879" type="line"/>
      <point x="545" y="1064"/>
      <point x="652" y="1157"/>
      <point x="836" y="1157" type="curve" smooth="yes"/>
      <point x="959" y="1157"/>
      <point x="1083" y="1122"/>
      <point x="1208" y="1051" type="curve"/>
      <point x="1343" y="1370" type="line"/>
      <point x="1182" y="1447"/>
      <point x="1031" y="1481"/>
      <point x="858" y="1481" type="curve" smooth="yes"/>
      <point x="705" y="1481"/>
      <point x="572" y="1450"/>
      <point x="458" y="1388" type="curve" smooth="yes"/>
      <point x="230" y="1263"/>
      <point x="104" y="1024"/>
      <point x="104" y="727" type="curve" smooth="yes"/>
      <point x="104" y="246"/>
      <point x="362" y="-20"/>
    </contour>
  </outline>
</glyph>
<glyph name="Tshe-cy" format="1">
  <advance width="1704"/>
  <unicode hex="040B"/>
  <note>
afii10060
</note>
  <outline>
    <contour>
      <point x="408" y="0" type="line"/>
      <point x="408" y="1139" type="line"/>
      <point x="51" y="1139" type="line"/>
      <point x="51" y="1462" type="line"/>
      <point x="1198" y="1462" type="line"/>
      <point x="1198" y="1139" type="line"/>
      <point x="805" y="1139" type="line"/>
      <point x="805" y="956" type="line"/>
      <point x="1092.0" y="956.0" type="line" smooth="yes"/>
      <point x="1337.25" y="956.0"/>
      <point x="1597.0" y="739.25"/>
      <point x="1597" y="545" type="qcurve" smooth="yes"/>
      <point x="1597" y="0" type="line"/>
      <point x="1202" y="0" type="line"/>
      <point x="1202.0" y="524.0" type="line" smooth="yes"/>
      <point x="1202.0" y="633.0"/>
      <point x="1081" y="633" type="qcurve" smooth="yes"/>
      <point x="805" y="633" type="line"/>
      <point x="805" y="0" type="line"/>
    </contour>
  </outline>
</glyph>
<glyph name="Be-cy" format="1">
  <advance width="1325"/>
  <unicode hex="0411"/>
  <note>
afii10018
</note>
  <outline>
    <contour>
      <point x="158" y="0" type="line"/>
      <point x="158" y="1462" type="line"/>
      <point x="1120" y="1462" type="line"/>
      <point x="1120" y="1145" type="line"/>
      <point x="555" y="1145" type="line"/>
      <point x="555" y="922" type="line"/>
      <point x="612.0" y="922.0" type="line" smooth="yes"/>
      <point x="918.75" y="922.0"/>
      <point x="1239.0" y="699.25"/>
      <point x="1239.0" y="475.0" type="qcurve" smooth="yes"/>
      <point x="1239.0" y="244.75"/>
      <point x="924.0" y="0.0"/>
      <point x="627" y="0" type="qcurve" smooth="yes"/>
    </contour>
    <contour>
      <point x="555" y="305" type="line"/>
      <point x="608.0" y="305.0" type="line" smooth="yes"/>
      <point x="731.75" y="305.0"/>
      <point x="840.0" y="386.75"/>
      <point x="840.0" y="467.0" type="qcurve" smooth="yes"/>
      <point x="840.0" y="623.0"/>
      <point x="606" y="623" type="qcurve" smooth="yes"/>
      <point x="555" y="623" type="line"/>
    </contour>
  </outline>
</glyph>
<glyph name="De-cy" format="1">
  <advance width="1667"/>
  <unicode hex="0414"/>
  <note>
    afii10021
  </note>
  <outline>
    <contour>
      <point x="8" y="-455" type="line"/>
      <point x="393" y="-455" type="line"/>
      <point x="393" y="0" type="line"/>
      <point x="1245" y="0" type="line"/>
      <point x="1245" y="-455" type="line"/>
      <point x="1630" y="-455" type="line"/>
      <point x="1630" y="324" type="line"/>
      <point x="1430" y="324" type="line"/>
      <point x="1430" y="1462" type="line"/>
      <point x="455" y="1462" type="line"/>
      <point x="422" y="1018"/>
      <point x="304" y="620"/>
      <point x="129" y="324" type="curve"/>
      <point x="8" y="324" type="line"/>
    </contour>
    <contour>
      <point x="547" y="324" type="line"/>
      <point x="670" y="582"/>
      <point x="745" y="854"/>
      <point x="772" y="1139" type="curve"/>
      <point x="1032" y="1139" type="line"/>
      <point x="1032" y="324" type="line"/>
    </contour>
  </outline>
</glyph>
<glyph name="Ka-cy" format="1">
  <advance width="1427"/>
  <unicode hex="041A"/>
  <note>
    afii10028
  </note>
  <outline>
    <contour>
      <point x="956" y="764" type="line"/>
      <point x="1407" y="1462" type="line"/>
      <point x="973" y="1462" type="line"/>
      <point x="555" y="754" type="line"/>
      <point x="555" y="1462" type="line"/>
      <point x="158" y="1462" type="line"/>
      <point x="158" y="0" type="line"/>
      <point x="555" y="0" type="line"/>
      <point x="555" y="741" type="line"/>
      <point x="989" y="0" type="line"/>
      <point x="1436" y="0" type="line"/>
    </contour>
    <contour>
      <point x="1407" y="0" type="move" name="bottomright"/>
    </contour>
    <contour>
      <point x="784" y="1462" type="move" name="top"/>
    </contour>
  </outline>
</glyph>
<glyph name="El-cy" format="1">
  <advance width="1561"/>
  <unicode hex="041B"/>
  <note>
afii10029
</note>
  <outline>
    <contour>
      <point x="180.0" y="-20.0" type="qcurve" smooth="yes"/>
      <point x="93.93333333333334" y="-20.0"/>
      <point x="25" y="2" type="qcurve"/>
      <point x="25.0" y="307.0" type="line"/>
      <point x="86.53846153846153" y="287.0"/>
      <point x="123.0" y="287.0" type="qcurve" smooth="yes"/>
      <point x="174.75" y="287.0"/>
      <point x="229.75" y="374.0"/>
      <point x="253.0" y="479.0" type="qcurve" smooth="yes"/>
      <point x="263.5" y="527.75"/>
      <point x="294.75" y="710.75"/>
      <point x="312.0" y="830.0" type="qcurve" smooth="yes"/>
      <point x="331.5" y="968.0"/>
      <point x="374.25" y="1295.5"/>
      <point x="393" y="1462" type="qcurve"/>
      <point x="1403" y="1462" type="line"/>
      <point x="1403" y="0" type="line"/>
      <point x="1006" y="0" type="line"/>
      <point x="1006" y="1139" type="line"/>
      <point x="727.0" y="1139.0" type="line"/>
      <point x="715.375" y="1014.5"/>
      <point x="683.6875" y="752.5989583333334"/>
      <point x="647.3125" y="511.6510416666667"/>
      <point x="609.625" y="322.125"/>
      <point x="592.0" y="270.0" type="qcurve" smooth="yes"/>
      <point x="556.75" y="165.75"/>
      <point x="449.75" y="43.5"/>
      <point x="371.0" y="12.0" type="qcurve" smooth="yes"/>
      <point x="290.23809523809524" y="-20.0"/>
    </contour>
    <contour>
      <point x="1482" y="0" type="move" name="cyrillicbighook"/>
    </contour>
  </outline>
</glyph>
<glyph name="Pe-cy" format="1">
  <advance width="1513"/>
  <unicode hex="041F"/>
  <note>
afii10033
</note>
  <outline>
    <contour>
      <point x="158" y="0" type="line"/>
      <point x="158" y="1462" type="line"/>
      <point x="1356" y="1462" type="line"/>
      <point x="1356" y="0" type="line"/>
      <point x="958" y="0" type="line"/>
      <point x="958" y="1139" type="line"/>
      <point x="555" y="1139" type="line"/>
      <point x="555" y="0" type="line"/>
    </contour>
    <contour>
      <point x="1493" y="0" type="move" name="bottomright"/>
    </contour>
  </outline>
</glyph>
<glyph name="U-cy" format="1">
  <advance width="1395"/>
  <unicode hex="0423"/>
  <note>
afii10037
</note>
  <outline>
    <contour>
      <point x="346.0" y="-20.0" type="qcurve" smooth="yes"/>
      <point x="205.5" y="-20.0"/>
      <point x="90" y="10" type="qcurve"/>
      <point x="90.0" y="324.0" type="line"/>
      <point x="183.24" y="287.0"/>
      <point x="328.0" y="287.0" type="qcurve" smooth="yes"/>
      <point x="401.3703703703704" y="287.0"/>
      <point x="445.0" y="325.0" type="qcurve" smooth="yes"/>
      <point x="477.25" y="354.25"/>
      <point x="534.0" y="498.25"/>
      <point x="528" y="634" type="qcurve"/>
      <point x="580" y="246" type="line"/>
      <point x="25" y="1462" type="line"/>
      <point x="451" y="1462" type="line"/>
      <point x="631.0" y="1016.0" type="line" smooth="yes"/>
      <point x="666.25" y="928.25"/>
      <point x="714.0" y="797.75"/>
      <point x="729" y="737" type="qcurve"/>
      <point x="743.0" y="737.0" type="line"/>
      <point x="760.25" y="805.25"/>
      <point x="810.25" y="963.5"/>
      <point x="844" y="1055" type="qcurve" smooth="yes"/>
      <point x="993" y="1462" type="line"/>
      <point x="1419" y="1462" type="line"/>
      <point x="975.0" y="436.0" type="line" smooth="yes"/>
      <point x="919.5" y="308.0"/>
      <point x="813.4166666666665" y="145.25"/>
      <point x="695.0" y="49.5"/>
      <point x="621.0" y="22.0" type="qcurve" smooth="yes"/>
      <point x="508.5" y="-20.0"/>
    </contour>
    <contour>
      <point x="730" y="1462" type="move" name="top"/>
    </contour>
  </outline>
</glyph>
<glyph name="Tse-cy" format="1">
  <advance width="1702"/>
  <unicode hex="0426"/>
  <note>
afii10040
</note>
  <outline>
    <contour>
      <point x="1358" y="1462" type="line"/>
      <point x="1358" y="324" type="line"/>
      <point x="1665" y="324" type="line"/>
      <point x="1665" y="-455" type="line"/>
      <point x="1280" y="-455" type="line"/>
      <point x="1280" y="0" type="line"/>
      <point x="158" y="0" type="line"/>
      <point x="158" y="1462" type="line"/>
      <point x="555" y="1462" type="line"/>
      <point x="555" y="324" type="line"/>
      <point x="961" y="324" type="line"/>
      <point x="961" y="1462" type="line"/>
    </contour>
  </outline>
</glyph>
<glyph name="Yeru-cy" format="1">
  <advance width="1890"/>
  <unicode hex="042B"/>
  <note>
    afii10045
  </note>
  <outline>
    <contour>
      <point x="158" y="0" type="line"/>
      <point x="590" y="0" type="line" smooth="yes"/>
      <point x="981" y="0"/>
      <point x="1202" y="173"/>
      <point x="1202" y="485" type="curve" smooth="yes"/>
      <point x="1202" y="786"/>
      <point x="983" y="942"/>
      <point x="575" y="942" type="curve" smooth="yes"/>
      <point x="555" y="942" type="line"/>
      <point x="555" y="1462" type="line"/>
      <point x="158" y="1462" type="line"/>
    </contour>
    <contour>
      <point x="555" y="305" type="line"/>
      <point x="555" y="643" type="line"/>
      <point x="569" y="643" type="line" smooth="yes"/>
      <point x="725" y="643"/>
      <point x="803" y="588"/>
      <point x="803" y="477" type="curve" smooth="yes"/>
      <point x="803" y="362"/>
      <point x="726" y="305"/>
      <point x="571" y="305" type="curve" smooth="yes"/>
    </contour>
    <contour>
      <point x="1335" y="0" type="line"/>
      <point x="1733" y="0" type="line"/>
      <point x="1733" y="1462" type="line"/>
      <point x="1335" y="1462" type="line"/>
    </contour>
    <contour>
      <point x="945" y="1462" type="move" name="top"/>
    </contour>
  </outline>
</glyph>
<glyph name="Softsign-cy" format="1">
  <advance width="1276"/>
  <unicode hex="042C"/>
  <note>
afii10046
</note>
  <outline>
    <contour>
      <point x="158" y="0" type="line"/>
      <point x="158" y="1462" type="line"/>
      <point x="555" y="1462" type="line"/>
      <point x="555" y="942" type="line"/>
      <point x="575.0" y="942.0" type="line" smooth="yes"/>
      <point x="881.0" y="942.0"/>
      <point x="1202.0" y="710.75"/>
      <point x="1202.0" y="485.0" type="qcurve" smooth="yes"/>
      <point x="1202.0" y="251.0"/>
      <point x="883.25" y="0.0"/>
      <point x="590" y="0" type="qcurve" smooth="yes"/>
    </contour>
    <contour>
      <point x="555" y="303" type="line"/>
      <point x="573.0" y="303.0" type="line" smooth="yes"/>
      <point x="805.0" y="303.0"/>
      <point x="805.0" y="475.0" type="qcurve" smooth="yes"/>
      <point x="805.0" y="639.0"/>
      <point x="571" y="639" type="qcurve" smooth="yes"/>
      <point x="555" y="639" type="line"/>
    </contour>
  </outline>
</glyph>
<glyph name="Ereversed-cy" format="1">
  <advance width="1372"/>
  <unicode hex="042D"/>
  <note>
afii10047
</note>
  <outline>
    <contour>
      <point x="555.0" y="-20.0" type="qcurve" smooth="yes"/>
      <point x="297.23636363636365" y="-20.0"/>
      <point x="92" y="63" type="qcurve"/>
      <point x="92.0" y="395.0" type="line"/>
      <point x="331.8032786885246" y="303.0"/>
      <point x="555.0" y="303.0" type="qcurve" smooth="yes"/>
      <point x="689.25" y="303.0"/>
      <point x="839.0" y="435.0"/>
      <point x="848" y="561" type="qcurve"/>
      <point x="264" y="561" type="line"/>
      <point x="264" y="879" type="line"/>
      <point x="848.0" y="879.0" type="line"/>
      <point x="839.0" y="1013.25"/>
      <point x="684.25" y="1157.0"/>
      <point x="553.0" y="1157.0" type="qcurve" smooth="yes"/>
      <point x="481.0" y="1157.0"/>
      <point x="278.75" y="1106.75"/>
      <point x="197" y="1067" type="qcurve"/>
      <point x="82.0" y="1376.0" type="line"/>
      <point x="217.75" y="1435.25"/>
      <point x="447.75" y="1481.0"/>
      <point x="567.0" y="1481.0" type="qcurve" smooth="yes"/>
      <point x="789.75" y="1481.0"/>
      <point x="1103.0" y="1305.5"/>
      <point x="1184.0" y="1139.0" type="qcurve" smooth="yes"/>
      <point x="1266.0" y="970.4444444444445"/>
      <point x="1266.0" y="735.0" type="qcurve" smooth="yes"/>
      <point x="1266.0" y="366.0"/>
      <point x="903.0" y="-20.0"/>
    </contour>
    <contour>
      <point x="686" y="1462" type="move" name="top"/>
    </contour>
  </outline>
</glyph>
<glyph name="Iu-cy" format="1">
  <advance width="2204"/>
  <unicode hex="042E"/>
  <note>
    afii10048
  </note>
  <outline>
    <contour>
      <point x="1436" y="-20" type="curve" smooth="yes"/>
      <point x="1867" y="-20"/>
      <point x="2097" y="238"/>
      <point x="2097" y="733" type="curve" smooth="yes"/>
      <point x="2097" y="1226"/>
      <point x="1870" y="1485"/>
      <point x="1438" y="1485" type="curve" smooth="yes"/>
      <point x="1068" y="1485"/>
      <point x="857" y="1297"/>
      <point x="805" y="920" type="curve"/>
      <point x="555" y="920" type="line"/>
      <point x="555" y="1462" type="line"/>
      <point x="158" y="1462" type="line"/>
      <point x="158" y="0" type="line"/>
      <point x="555" y="0" type="line"/>
      <point x="555" y="596" type="line"/>
      <point x="799" y="596" type="line"/>
      <point x="840" y="185"/>
      <point x="1052" y="-20"/>
    </contour>
    <contour>
      <point x="1436" y="309" type="curve" smooth="yes"/>
      <point x="1360" y="309"/>
      <point x="1302" y="339"/>
      <point x="1261" y="400" type="curve" smooth="yes"/>
      <point x="1214" y="470"/>
      <point x="1190" y="581"/>
      <point x="1190" y="733" type="curve" smooth="yes"/>
      <point x="1190" y="915"/>
      <point x="1224" y="1039"/>
      <point x="1291" y="1105" type="curve" smooth="yes"/>
      <point x="1329" y="1142"/>
      <point x="1378" y="1161"/>
      <point x="1438" y="1161" type="curve" smooth="yes"/>
      <point x="1491" y="1161"/>
      <point x="1535" y="1146"/>
      <point x="1570" y="1116" type="curve" smooth="yes"/>
      <point x="1644" y="1053"/>
      <point x="1681" y="925"/>
      <point x="1681" y="733" type="curve" smooth="yes"/>
      <point x="1681" y="577"/>
      <point x="1658" y="467"/>
      <point x="1611" y="398" type="curve" smooth="yes"/>
      <point x="1571" y="338"/>
      <point x="1513" y="309"/>
    </contour>
    <contour>
      <point x="1102" y="1462" type="move" name="top"/>
    </contour>
  </outline>
</glyph>
<glyph name="Ia-cy" format="1">
  <advance width="1391"/>
  <unicode hex="042F"/>
  <note>
afii10049
</note>
  <outline>
    <contour>
      <point x="-20" y="0" type="line"/>
      <point x="381.0" y="639.0" type="line"/>
      <point x="270.0" y="701.25"/>
      <point x="152.0" y="904.0"/>
      <point x="152.0" y="1030.0" type="qcurve" smooth="yes"/>
      <point x="152.0" y="1462.0"/>
      <point x="748" y="1462" type="qcurve" smooth="yes"/>
      <point x="1233" y="1462" type="line"/>
      <point x="1233" y="0" type="line"/>
      <point x="838" y="0" type="line"/>
      <point x="838" y="532" type="line"/>
      <point x="717" y="532" type="line"/>
      <point x="428" y="0" type="line"/>
    </contour>
    <contour>
      <point x="764" y="829" type="qcurve" smooth="yes"/>
      <point x="838" y="829" type="line"/>
      <point x="838" y="1163" type="line"/>
      <point x="754.0" y="1163.0" type="line" smooth="yes"/>
      <point x="658.75" y="1163.0"/>
      <point x="551.0" y="1087.0"/>
      <point x="551.0" y="1012.0" type="qcurve" smooth="yes"/>
      <point x="551.0" y="921.25"/>
      <point x="653.75" y="829.0"/>
    </contour>
    <contour>
      <point x="696" y="1462" type="move" name="top"/>
    </contour>
  </outline>
</glyph>
<glyph name="be-cy" format="1">
  <advance width="1335"/>
  <unicode hex="0431"/>
  <note>
afii10066
</note>
  <outline>
    <contour>
      <point x="662.0" y="-20.0" type="qcurve" smooth="yes"/>
      <point x="394.25" y="-20.0"/>
      <point x="88.0" y="348.0"/>
      <point x="88.0" y="678.0" type="qcurve" smooth="yes"/>
      <point x="88.0" y="849.75"/>
      <point x="149.25" y="1127.25"/>
      <point x="219.0" y="1230.0" type="qcurve" smooth="yes"/>
      <point x="355.86853593015445" y="1432.3274009402282"/>
      <point x="668.0" y="1507.0" type="qcurve" smooth="yes"/>
      <point x="725.0" y="1520.5"/>
      <point x="898.0" y="1545.0"/>
      <point x="1015.0" y="1557.0" type="qcurve" smooth="yes"/>
      <point x="1103.5" y="1566.0"/>
      <point x="1210" y="1575" type="qcurve"/>
      <point x="1247.0" y="1251.0" type="line"/>
      <point x="1196.75" y="1246.5"/>
      <point x="1097.25" y="1237.5"/>
      <point x="1047.0" y="1233.0" type="qcurve" smooth="yes"/>
      <point x="970.5" y="1226.0"/>
      <point x="816.9166666666666" y="1207.5833333333335"/>
      <point x="695.0" y="1187.5"/>
      <point x="666.0" y="1178.0" type="qcurve" smooth="yes"/>
      <point x="562.5" y="1145.0"/>
      <point x="481.0" y="1009.25"/>
      <point x="475" y="893" type="qcurve"/>
      <point x="492.0" y="893.0" type="line"/>
      <point x="527.25" y="962.75"/>
      <point x="694.75" y="1057.0"/>
      <point x="799.0" y="1057.0" type="qcurve" smooth="yes"/>
      <point x="1011.25" y="1057.0"/>
      <point x="1241.0" y="806.0"/>
      <point x="1241.0" y="569.0" type="qcurve" smooth="yes"/>
      <point x="1241.0" y="292.25"/>
      <point x="934.25" y="-20.0"/>
    </contour>
    <contour>
      <point x="682.0" y="270.0" type="qcurve" smooth="yes"/>
      <point x="844.0" y="270.0"/>
      <point x="844.0" y="526.0" type="qcurve" smooth="yes"/>
      <point x="844.0" y="778.0"/>
      <point x="696.0" y="778.0" type="qcurve" smooth="yes"/>
      <point x="657.5" y="778.0"/>
      <point x="570.0833333333333" y="734.1666666666666"/>
      <point x="499.0" y="669.0"/>
      <point x="485.0" y="637.0" type="qcurve"/>
      <point x="485.0" y="479.1612903225806"/>
      <point x="534.0" y="378.0" type="qcurve" smooth="yes"/>
      <point x="560.25" y="327.0"/>
      <point x="634.75" y="270.0"/>
    </contour>
  </outline>
</glyph>
<glyph name="ii-cy" format="1">
  <advance width="1489"/>
  <unicode hex="0438"/>
  <note>
afii10074
</note>
  <outline>
    <contour>
      <point x="135" y="0" type="line"/>
      <point x="135" y="1133" type="line"/>
      <point x="483" y="1133" type="line"/>
      <point x="483.0" y="848.0" type="line" smooth="yes"/>
      <point x="483.0" y="780.5"/>
      <point x="475.0" y="583.25"/>
      <point x="469" y="440" type="qcurve"/>
      <point x="922" y="1133" type="line"/>
      <point x="1354" y="1133" type="line"/>
      <point x="1354" y="0" type="line"/>
      <point x="1006" y="0" type="line"/>
      <point x="1006.0" y="307.0" type="line" smooth="yes"/>
      <point x="1006.0" y="387.25"/>
      <point x="1013.25" y="577.75"/>
      <point x="1020" y="688" type="qcurve"/>
      <point x="569" y="0" type="line"/>
    </contour>
    <contour>
      <point x="1469" y="0" type="move" name="bottomright"/>
    </contour>
    <contour>
      <point x="745" y="1133" type="move" name="top"/>
    </contour>
  </outline>
</glyph>
<glyph name="en-cy" format="1">
  <advance width="1362"/>
  <unicode hex="043D"/>
  <note>
    afii10079
  </note>
  <outline>
    <contour>
      <point x="135" y="0" type="line"/>
      <point x="526" y="0" type="line"/>
      <point x="526" y="434" type="line"/>
      <point x="836" y="434" type="line"/>
      <point x="836" y="0" type="line"/>
      <point x="1227" y="0" type="line"/>
      <point x="1227" y="1133" type="line"/>
      <point x="836" y="1133" type="line"/>
      <point x="836" y="725" type="line"/>
      <point x="526" y="725" type="line"/>
      <point x="526" y="1133" type="line"/>
      <point x="135" y="1133" type="line"/>
    </contour>
    <contour>
      <point x="1342" y="0" type="move" name="bottomright"/>
    </contour>
  </outline>
</glyph>
<glyph name="te-cy" format="1">
  <advance width="1235"/>
  <unicode hex="0442"/>
  <note>
    afii10084
  </note>
  <outline>
    <contour>
      <point x="422" y="0" type="line"/>
      <point x="813" y="0" type="line"/>
      <point x="813" y="842" type="line"/>
      <point x="1186" y="842" type="line"/>
      <point x="1186" y="1133" type="line"/>
      <point x="49" y="1133" type="line"/>
      <point x="49" y="842" type="line"/>
      <point x="422" y="842" type="line"/>
    </contour>
    <contour>
      <point x="1215" y="0" type="move" name="bottomright"/>
    </contour>
  </outline>
</glyph>
<glyph name="ef-cy" format="1">
  <advance width="1774"/>
  <unicode hex="0444"/>
  <note>
afii10086
</note>
  <outline>
    <contour>
      <point x="707" y="-492" type="line"/>
      <point x="707.0" y="0.0" type="line"/>
      <point x="416.75" y="30.0"/>
      <point x="86.0" y="328.75"/>
      <point x="86.0" y="565.0" type="qcurve" smooth="yes"/>
      <point x="86.0" y="823.0"/>
      <point x="398.25" y="1114.25"/>
      <point x="702" y="1133" type="qcurve"/>
      <point x="702" y="1556" type="line"/>
      <point x="1073" y="1556" type="line"/>
      <point x="1073.0" y="1133.0" type="line"/>
      <point x="1366.25" y="1106.75"/>
      <point x="1688.0" y="807.25"/>
      <point x="1688.0" y="565.0" type="qcurve" smooth="yes"/>
      <point x="1688.0" y="319.0"/>
      <point x="1367.75" y="24.75"/>
      <point x="1073" y="0" type="qcurve"/>
      <point x="1073" y="-492" type="line"/>
    </contour>
    <contour>
      <point x="702" y="291" type="qcurve"/>
      <point x="702.0" y="842.0" type="line"/>
      <point x="639.5" y="839.5"/>
      <point x="535.4166666666665" y="763.0833333333333"/>
      <point x="473.0" y="639.0"/>
      <point x="473.0" y="565.0" type="qcurve" smooth="yes"/>
      <point x="473.0" y="448.0"/>
      <point x="603.75" y="293.25"/>
    </contour>
    <contour>
      <point x="1073" y="291" type="line"/>
      <point x="1171.25" y="293.25"/>
      <point x="1298.0" y="445.75"/>
      <point x="1298.0" y="565.0" type="qcurve" smooth="yes"/>
      <point x="1298.0" y="679.0"/>
      <point x="1169.0" y="838.25"/>
      <point x="1073" y="842" type="qcurve"/>
    </contour>
  </outline>
</glyph>
<glyph name="ha-cy" format="1">
  <advance width="1290"/>
  <unicode hex="0445"/>
  <note>
    afii10087
  </note>
  <outline>
    <component base="x"/>
    <contour>
      <point x="1270" y="0" type="move" name="bottomright"/>
    </contour>
  </outline>
</glyph>
<glyph name="shcha-cy" format="1">
  <advance width="2200"/>
  <unicode hex="0449"/>
  <note>
    afii10091
  </note>
  <outline>
    <contour>
      <point x="1833" y="-416" type="line"/>
      <point x="2175" y="-416" type="line"/>
      <point x="2175" y="291" type="line"/>
      <point x="1921" y="291" type="line"/>
      <point x="1921" y="1133" type="line"/>
      <point x="1530" y="1133" type="line"/>
      <point x="1530" y="291" type="line"/>
      <point x="1221" y="291" type="line"/>
      <point x="1221" y="1133" type="line"/>
      <point x="840" y="1133" type="line"/>
      <point x="840" y="291" type="line"/>
      <point x="526" y="291" type="line"/>
      <point x="526" y="1133" type="line"/>
      <point x="135" y="1133" type="line"/>
      <point x="135" y="0" type="line"/>
      <point x="1833" y="0" type="line"/>
    </contour>
  </outline>
</glyph>
<glyph name="hardsign-cy" format="1">
  <advance width="1460"/>
  <unicode hex="044A"/>
  <note>
    afii10092
  </note>
  <outline>
    <contour>
      <point x="408" y="0" type="line"/>
      <point x="883" y="0" type="line" smooth="yes"/>
      <point x="1227" y="0"/>
      <point x="1395" y="115"/>
      <point x="1395" y="375" type="curve" smooth="yes"/>
      <point x="1395" y="656"/>
      <point x="1175" y="725"/>
      <point x="836" y="725" type="curve" smooth="yes"/>
      <point x="799" y="725" type="line"/>
      <point x="799" y="1133" type="line"/>
      <point x="49" y="1133" type="line"/>
      <point x="49" y="842" type="line"/>
      <point x="408" y="842" type="line"/>
    </contour>
    <contour>
      <point x="799" y="256" type="line"/>
      <point x="799" y="469" type="line"/>
      <point x="860" y="469" type="line" smooth="yes"/>
      <point x="964" y="469"/>
      <point x="1004" y="437"/>
      <point x="1004" y="358" type="curve" smooth="yes"/>
      <point x="1004" y="290"/>
      <point x="957" y="256"/>
      <point x="864" y="256" type="curve" smooth="yes"/>
    </contour>
  </outline>
</glyph>
<glyph name="lje-cy" format="1">
  <advance width="1903"/>
  <unicode hex="0459"/>
  <note>
afii10106
</note>
  <outline>
    <contour>
      <point x="193.0" y="-20.0" type="qcurve" smooth="yes"/>
      <point x="89.5" y="-20.0"/>
      <point x="16" y="10" type="qcurve"/>
      <point x="16.0" y="301.0" type="line"/>
      <point x="49.0" y="283.0"/>
      <point x="104.0" y="283.0" type="qcurve" smooth="yes"/>
      <point x="148.19354838709677" y="283.0"/>
      <point x="177.0" y="330.0" type="qcurve" smooth="yes"/>
      <point x="229.7653683716565" y="418.4176442984514"/>
      <point x="266.0" y="740.0" type="qcurve" smooth="yes"/>
      <point x="282.5" y="900.5"/>
      <point x="299" y="1133" type="qcurve"/>
      <point x="1241" y="1133" type="line"/>
      <point x="1241" y="725" type="line"/>
      <point x="1278.0" y="725.0" type="line" smooth="yes"/>
      <point x="1572.75" y="725.0"/>
      <point x="1837.0" y="561.0"/>
      <point x="1837.0" y="375.0" type="qcurve" smooth="yes"/>
      <point x="1837.0" y="180.0"/>
      <point x="1583.0" y="0.0"/>
      <point x="1325" y="0" type="qcurve" smooth="yes"/>
      <point x="850" y="0" type="line"/>
      <point x="850" y="842" type="line"/>
      <point x="651.0" y="842.0" type="line"/>
      <point x="618.1616766467066" y="479.2857920522591"/>
      <point x="568.0" y="306.0" type="qcurve" smooth="yes"/>
      <point x="517.75" y="134.25"/>
      <point x="342.25" y="-20.0"/>
    </contour>
    <contour>
      <point x="1241" y="256" type="line"/>
      <point x="1307.0" y="256.0" type="line" smooth="yes"/>
      <point x="1446.0" y="256.0"/>
      <point x="1446.0" y="358.0" type="qcurve" smooth="yes"/>
      <point x="1446.0" y="417.25"/>
      <point x="1380.25" y="469.0"/>
      <point x="1303" y="469" type="qcurve" smooth="yes"/>
      <point x="1241" y="469" type="line"/>
    </contour>
  </outline>
</glyph>
<glyph name="nje-cy" format="1">
  <advance width="1829"/>
  <unicode hex="045A"/>
  <note>
afii10107
</note>
  <outline>
    <contour>
      <point x="135" y="0" type="line"/>
      <point x="135" y="1133" type="line"/>
      <point x="526" y="1133" type="line"/>
      <point x="526" y="725" type="line"/>
      <point x="776" y="725" type="line"/>
      <point x="776" y="1133" type="line"/>
      <point x="1167" y="1133" type="line"/>
      <point x="1167" y="725" type="line"/>
      <point x="1204.0" y="725.0" type="line" smooth="yes"/>
      <point x="1498.75" y="725.0"/>
      <point x="1763.0" y="561.0"/>
      <point x="1763.0" y="375.0" type="qcurve" smooth="yes"/>
      <point x="1763.0" y="180.0"/>
      <point x="1509.0" y="0.0"/>
      <point x="1251" y="0" type="qcurve" smooth="yes"/>
      <point x="776" y="0" type="line"/>
      <point x="776" y="434" type="line"/>
      <point x="526" y="434" type="line"/>
      <point x="526" y="0" type="line"/>
    </contour>
    <contour>
      <point x="1167" y="256" type="line"/>
      <point x="1233.0" y="256.0" type="line" smooth="yes"/>
      <point x="1372.0" y="256.0"/>
      <point x="1372.0" y="358.0" type="qcurve" smooth="yes"/>
      <point x="1372.0" y="417.25"/>
      <point x="1306.25" y="469.0"/>
      <point x="1229" y="469" type="qcurve" smooth="yes"/>
      <point x="1167" y="469" type="line"/>
    </contour>
  </outline>
</glyph>
<glyph name="tshe-cy" format="1">
  <advance width="1393"/>
  <unicode hex="045B"/>
  <note>
afii10108
</note>
  <outline>
    <contour>
      <point x="156" y="0" type="line"/>
      <point x="156" y="1167" type="line"/>
      <point x="0" y="1167" type="line"/>
      <point x="0" y="1409" type="line"/>
      <point x="156" y="1409" type="line"/>
      <point x="156" y="1556" type="line"/>
      <point x="547" y="1556" type="line"/>
      <point x="547" y="1409" type="line"/>
      <point x="780" y="1409" type="line"/>
      <point x="780" y="1167" type="line"/>
      <point x="545" y="1167" type="line"/>
      <point x="545.0" y="1126.0" type="line" smooth="yes"/>
      <point x="545.0" y="1101.5"/>
      <point x="540.4166666666666" y="1012.4166666666665"/>
      <point x="533.5" y="921.0"/>
      <point x="530" y="893" type="qcurve"/>
      <point x="553.0" y="893.0" type="line"/>
      <point x="607.75" y="979.25"/>
      <point x="759.25" y="1053.0"/>
      <point x="862.0" y="1053.0" type="qcurve" smooth="yes"/>
      <point x="1051.0" y="1053.0"/>
      <point x="1262.0" y="834.75"/>
      <point x="1262" y="639" type="qcurve" smooth="yes"/>
      <point x="1262" y="0" type="line"/>
      <point x="868" y="0" type="line"/>
      <point x="868.0" y="518.0" type="line" smooth="yes"/>
      <point x="868.0" y="745.0"/>
      <point x="733.0" y="745.0" type="qcurve" smooth="yes"/>
      <point x="633.4333333333333" y="745.0"/>
      <point x="589.0" y="659.0" type="qcurve" smooth="yes"/>
      <point x="547.0" y="575.0"/>
      <point x="547" y="395" type="qcurve" smooth="yes"/>
      <point x="547" y="0" type="line"/>
    </contour>
  </outline>
</glyph>
<glyph name="Omega-cy" format="1">
  <advance width="2316"/>
  <unicode hex="0460"/>
  <note>
uni0460
</note>
  <outline>
    <contour>
      <point x="721.0" y="-20.0" type="qcurve" smooth="yes"/>
      <point x="516.5" y="-20.0"/>
      <point x="242.08333333333334" y="189.16666666666666"/>
      <point x="104.0" y="547.0"/>
      <point x="104.0" y="770.0" type="qcurve" smooth="yes"/>
      <point x="104.0" y="1103.75"/>
      <point x="426.25" y="1481.0"/>
      <point x="721.0" y="1481.0" type="qcurve" smooth="yes"/>
      <point x="775.0" y="1481.0"/>
      <point x="901.6666666666667" y="1451.833333333333"/>
      <point x="1018.9999999999999" y="1400.0"/>
      <point x="1059" y="1366" type="qcurve"/>
      <point x="928.0" y="1087.0" type="line"/>
      <point x="828.2127659574468" y="1157.0"/>
      <point x="739.0" y="1157.0" type="qcurve" smooth="yes"/>
      <point x="648.5" y="1157.0"/>
      <point x="590.0" y="1088.0" type="qcurve" smooth="yes"/>
      <point x="548.0" y="1038.5"/>
      <point x="502.0" y="868.75"/>
      <point x="502.0" y="748.0" type="qcurve" smooth="yes"/>
      <point x="502.0" y="623.5"/>
      <point x="529.0" y="532.0" type="qcurve" smooth="yes"/>
      <point x="560.5" y="424.0"/>
      <point x="695.25" y="309.0"/>
      <point x="795.0" y="309.0" type="qcurve" smooth="yes"/>
      <point x="857.25" y="309.0"/>
      <point x="933.25" y="348.75"/>
      <point x="961" y="375" type="qcurve"/>
      <point x="961" y="731" type="line"/>
      <point x="1350" y="731" type="line"/>
      <point x="1350.0" y="375.0" type="line"/>
      <point x="1413.0" y="309.0"/>
      <point x="1520.0" y="309.0" type="qcurve" smooth="yes"/>
      <point x="1704.904761904762" y="309.0"/>
      <point x="1775.0" y="501.0" type="qcurve" smooth="yes"/>
      <point x="1812.0" y="602.75"/>
      <point x="1812.0" y="748.0" type="qcurve" smooth="yes"/>
      <point x="1812.0" y="869.49475"/>
      <point x="1764.75" y="1040.5"/>
      <point x="1722.0" y="1090.0" type="qcurve" smooth="yes"/>
      <point x="1665.4222222222222" y="1157.0"/>
      <point x="1575.0" y="1157.0" type="qcurve" smooth="yes"/>
      <point x="1476.872340425532" y="1157.0"/>
      <point x="1389" y="1087" type="qcurve"/>
      <point x="1255.0" y="1366.0" type="line"/>
      <point x="1318.0" y="1419.25"/>
      <point x="1508.75" y="1481.0"/>
      <point x="1595.0" y="1481.0" type="qcurve" smooth="yes"/>
      <point x="1889.0" y="1481.0"/>
      <point x="2210.0" y="1105.25"/>
      <point x="2210.0" y="770.0" type="qcurve" smooth="yes"/>
      <point x="2210.0" y="538.0"/>
      <point x="2064.3333333333335" y="181.66666666666666"/>
      <point x="1772.0" y="-20.0"/>
      <point x="1552.0" y="-20.0" type="qcurve" smooth="yes"/>
      <point x="1416.25" y="-20.0"/>
      <point x="1234.0" y="58.75"/>
      <point x="1156" y="154" type="qcurve"/>
      <point x="1154.0" y="154.0" type="line"/>
      <point x="1070.0" y="58.75"/>
      <point x="871.75" y="-20.0"/>
    </contour>
  </outline>
</glyph>
<glyph name="yat-cy" format="1">
  <advance width="1405"/>
  <unicode hex="0463"/>
  <note>
    afii10194
  </note>
  <outline>
    <contour>
      <point x="250" y="0" type="line"/>
      <point x="807" y="0" type="line" smooth="yes"/>
      <point x="1162" y="0"/>
      <point x="1339" y="119"/>
      <point x="1339" y="371" type="curve" smooth="yes"/>
      <point x="1339" y="602"/>
      <point x="1165" y="717"/>
      <point x="780" y="717" type="curve" smooth="yes"/>
      <point x="641" y="717" type="line"/>
      <point x="641" y="877" type="line"/>
      <point x="1018" y="877" type="line"/>
      <point x="1018" y="1133" type="line"/>
      <point x="641" y="1133" type="line"/>
      <point x="641" y="1360" type="line"/>
      <point x="250" y="1360" type="line"/>
      <point x="250" y="1133" type="line"/>
      <point x="0" y="1133" type="line"/>
      <point x="0" y="877" type="line"/>
      <point x="250" y="877" type="line"/>
    </contour>
    <contour>
      <point x="641" y="256" type="line"/>
      <point x="641" y="461" type="line"/>
      <point x="784" y="461" type="line" smooth="yes"/>
      <point x="900" y="461"/>
      <point x="948" y="425"/>
      <point x="948" y="354" type="curve" smooth="yes"/>
      <point x="948" y="289"/>
      <point x="885" y="256"/>
      <point x="788" y="256" type="curve" smooth="yes"/>
    </contour>
  </outline>
</glyph>
<glyph name="Eiotified-cy" format="1">
  <advance width="1962"/>
  <unicode hex="0464"/>
  <note>
uni0464
</note>
  <outline>
    <contour>
      <point x="1386.0" y="-20.0" type="qcurve" smooth="yes"/>
      <point x="1068.0" y="-20.0"/>
      <point x="701.75" y="296.75"/>
      <point x="668" y="596" type="qcurve"/>
      <point x="555" y="596" type="line"/>
      <point x="555" y="0" type="line"/>
      <point x="158" y="0" type="line"/>
      <point x="158" y="1462" type="line"/>
      <point x="555" y="1462" type="line"/>
      <point x="555" y="920" type="line"/>
      <point x="680.0" y="920.0" type="line"/>
      <point x="734.75" y="1183.25"/>
      <point x="1123.25" y="1481.0"/>
      <point x="1415.0" y="1481.0" type="qcurve" smooth="yes"/>
      <point x="1544.75" y="1481.0"/>
      <point x="1778.0" y="1427.75"/>
      <point x="1901" y="1370" type="qcurve"/>
      <point x="1765.0" y="1051.0" type="line"/>
      <point x="1578.380281690141" y="1157.0"/>
      <point x="1393.0" y="1157.0" type="qcurve" smooth="yes"/>
      <point x="1134.0" y="1157.0"/>
      <point x="1077" y="920" type="qcurve"/>
      <point x="1655" y="920" type="line"/>
      <point x="1655" y="596" type="line"/>
      <point x="1069.0" y="596.0" type="line"/>
      <point x="1069.0" y="466.25"/>
      <point x="1254.75" y="303.0"/>
      <point x="1401.0" y="303.0" type="qcurve" smooth="yes"/>
      <point x="1490.25" y="303.0"/>
      <point x="1688.0" y="344.75"/>
      <point x="1847" y="395" type="qcurve"/>
      <point x="1847.0" y="68.0" type="line"/>
      <point x="1765.5" y="35.5"/>
      <point x="1624.0" y="-3.083333333333334"/>
      <point x="1476.5" y="-20.0"/>
    </contour>
  </outline>
</glyph>
<glyph name="yuslittle-cy" format="1">
  <advance width="1434"/>
  <unicode hex="0467"/>
  <note>
    uni0467
  </note>
  <outline>
    <contour>
      <point x="-16" y="0" type="line"/>
      <point x="360" y="0" type="line"/>
      <point x="500" y="373" type="line"/>
      <point x="561" y="373" type="line"/>
      <point x="561" y="0" type="line"/>
      <point x="874" y="0" type="line"/>
      <point x="874" y="373" type="line"/>
      <point x="936" y="373" type="line"/>
      <point x="1073" y="0" type="line"/>
      <point x="1450" y="0" type="line"/>
      <point x="930" y="1133" type="line"/>
      <point x="498" y="1133" type="line"/>
    </contour>
    <contour>
      <point x="608" y="631" type="line"/>
      <point x="628" y="682"/>
      <point x="648" y="734"/>
      <point x="668" y="785" type="curve"/>
      <point x="684" y="826"/>
      <point x="699" y="866"/>
      <point x="715" y="907" type="curve"/>
      <point x="725" y="907" type="line"/>
      <point x="740" y="866"/>
      <point x="756" y="825"/>
      <point x="771" y="784" type="curve"/>
      <point x="790" y="733"/>
      <point x="810" y="682"/>
      <point x="829" y="631" type="curve"/>
    </contour>
  </outline>
</glyph>
<glyph name="yusbigiotified-cy" format="1">
  <advance width="2077"/>
  <unicode hex="046D"/>
  <note>
uni046D
</note>
  <outline>
    <contour>
      <point x="135" y="0" type="line"/>
      <point x="135" y="1133" type="line"/>
      <point x="506" y="1133" type="line"/>
      <point x="506" y="725" type="line"/>
      <point x="975" y="725" type="line"/>
      <point x="758" y="983" type="line"/>
      <point x="758" y="1133" type="line"/>
      <point x="1925" y="1133" type="line"/>
      <point x="1925" y="983" type="line"/>
      <point x="1655.0" y="649.0" type="line"/>
      <point x="1755.2299838796346" y="625.0644814615798"/>
      <point x="1824.0" y="568.0" type="qcurve" smooth="yes"/>
      <point x="1911.9389312977098" y="496.1832061068702"/>
      <point x="1960" y="352" type="qcurve" smooth="yes"/>
      <point x="2077" y="0" type="line"/>
      <point x="1702" y="0" type="line"/>
      <point x="1618.0" y="307.0" type="line" smooth="yes"/>
      <point x="1593.8236472945891" y="388.59519038076155"/>
      <point x="1557.0" y="421.0" type="qcurve" smooth="yes"/>
      <point x="1520.25" y="455.5"/>
      <point x="1418.5" y="433.0"/>
      <point x="1354" y="391" type="qcurve"/>
      <point x="1503" y="633" type="line"/>
      <point x="1503" y="0" type="line"/>
      <point x="1188" y="0" type="line"/>
      <point x="1188" y="633" type="line"/>
      <point x="1337.0" y="345.0" type="line"/>
      <point x="1202.5852621634388" y="504.2522437411431"/>
      <point x="1125.0" y="414.0" type="qcurve"/>
      <point x="1094.8762886597938" y="382.4418262150221"/>
      <point x="1073" y="309" type="qcurve" smooth="yes"/>
      <point x="989" y="0" type="line"/>
      <point x="614" y="0" type="line"/>
      <point x="723.0" y="352.0" type="line" smooth="yes"/>
      <point x="734.3203125" y="389.1953125"/>
      <point x="756" y="434" type="qcurve"/>
      <point x="506" y="434" type="line"/>
      <point x="506" y="0" type="line"/>
    </contour>
    <contour>
      <point x="1341" y="676" type="line"/>
      <point x="1499" y="883" type="line"/>
      <point x="1184" y="883" type="line"/>
    </contour>
  </outline>
</glyph>
<glyph name="Ksi-cy" format="1">
  <advance width="1364"/>
  <unicode hex="046E"/>
  <note>
uni046E
</note>
  <outline>
    <contour>
      <point x="1073" y="-483" type="line"/>
      <point x="1049.75" y="-463.5"/>
      <point x="961.75" y="-450.0"/>
      <point x="889.0" y="-450.0" type="qcurve" smooth="yes"/>
      <point x="785.5" y="-450.0"/>
      <point x="682.0" y="-453.0" type="qcurve" smooth="yes"/>
      <point x="571.0" y="-456.0"/>
      <point x="459.0" y="-456.0" type="qcurve" smooth="yes"/>
      <point x="270.75" y="-456.0"/>
      <point x="45.0" y="-264.25"/>
      <point x="45.0" y="-82.0" type="qcurve" smooth="yes"/>
      <point x="45.0" y="37.625"/>
      <point x="137.82291666666666" y="186.95833333333334"/>
      <point x="288.6770833333333" y="268.0416666666667"/>
      <point x="466.25" y="300.375"/>
      <point x="551.0" y="303.0" type="qcurve" smooth="yes"/>
      <point x="633.0" y="305.5"/>
      <point x="774.8333333333333" y="324.58333333333326"/>
      <point x="862.0" y="386.0"/>
      <point x="862.0" y="452.0" type="qcurve" smooth="yes"/>
      <point x="862.0" y="513.5"/>
      <point x="765.6666666666666" y="578.25"/>
      <point x="612.0" y="602.0"/>
      <point x="526" y="602" type="qcurve" smooth="yes"/>
      <point x="354" y="602" type="line"/>
      <point x="354" y="922" type="line"/>
      <point x="508.0" y="922.0" type="line" smooth="yes"/>
      <point x="592.5" y="922.0"/>
      <point x="731.9166666666667" y="937.0833333333333"/>
      <point x="815.0" y="988.5"/>
      <point x="815.0" y="1043.0" type="qcurve" smooth="yes"/>
      <point x="815.0" y="1159.0"/>
      <point x="607.0" y="1159.0" type="qcurve" smooth="yes"/>
      <point x="405.5" y="1159.0"/>
      <point x="254" y="1057" type="qcurve"/>
      <point x="88.0" y="1329.0" type="line"/>
      <point x="177.25" y="1386.0"/>
      <point x="354.0" y="1453.0"/>
      <point x="465.0" y="1468.0" type="qcurve"/>
      <point x="393.0" y="1556.5"/>
      <point x="279.25" y="1684.25"/>
      <point x="238" y="1724" type="qcurve"/>
      <point x="238" y="1751" type="line"/>
      <point x="500.0" y="1751.0" type="line"/>
      <point x="603.5" y="1673.0"/>
      <point x="698.0" y="1556.0" type="qcurve"/>
      <point x="771.0" y="1655.5"/>
      <point x="875.0" y="1757.9166666666667"/>
      <point x="981.0" y="1794.0"/>
      <point x="1057.0" y="1794.0" type="qcurve" smooth="yes"/>
      <point x="1097.5" y="1794.0"/>
      <point x="1167.0" y="1786.25"/>
      <point x="1188" y="1778" type="qcurve"/>
      <point x="1188.0" y="1591.0" type="line"/>
      <point x="1174.5" y="1597.75"/>
      <point x="1130.5" y="1604.0"/>
      <point x="1114.0" y="1604.0" type="qcurve" smooth="yes"/>
      <point x="1053.25" y="1604.0"/>
      <point x="967.25" y="1525.75"/>
      <point x="920.0" y="1450.0" type="qcurve"/>
      <point x="1056.5" y="1407.25"/>
      <point x="1212.0" y="1239.0"/>
      <point x="1212.0" y="1110.0" type="qcurve" smooth="yes"/>
      <point x="1212.0" y="981.0"/>
      <point x="1042.75" y="800.5"/>
      <point x="868" y="772" type="qcurve"/>
      <point x="868.0" y="764.0" type="line"/>
      <point x="1268.0" y="726.5468164794007"/>
      <point x="1268.0" y="408.0" type="qcurve" smooth="yes"/>
      <point x="1268.0" y="12.807980049875312"/>
      <point x="670.0" y="-20.0" type="qcurve" smooth="yes"/>
      <point x="568.75" y="-25.25"/>
      <point x="442.0" y="-49.5"/>
      <point x="442.0" y="-105.0" type="qcurve" smooth="yes"/>
      <point x="442.0" y="-147.0"/>
      <point x="516.5" y="-168.0"/>
      <point x="581.0" y="-168.0" type="qcurve" smooth="yes"/>
      <point x="660.0" y="-168.0"/>
      <point x="755.0" y="-163.0" type="qcurve" smooth="yes"/>
      <point x="797.75" y="-160.75"/>
      <point x="871.0" y="-158.0"/>
      <point x="895.0" y="-158.0" type="qcurve" smooth="yes"/>
      <point x="972.25" y="-158.0"/>
      <point x="1059.5" y="-184.5"/>
      <point x="1073" y="-201" type="qcurve"/>
    </contour>
  </outline>
</glyph>
<glyph name="ksi-cy" format="1">
  <advance width="1135"/>
  <unicode hex="046F"/>
  <note>
uni046F
</note>
  <outline>
    <contour>
      <point x="948" y="-492" type="line"/>
      <point x="930.75" y="-474.75"/>
      <point x="841.25" y="-449.0"/>
      <point x="791.0" y="-449.0" type="qcurve" smooth="yes"/>
      <point x="767.75" y="-449.0"/>
      <point x="679.2239583333334" y="-452.0208333333333"/>
      <point x="577.5260416666666" y="-455.9791666666667"/>
      <point x="488.625" y="-459.0"/>
      <point x="465.0" y="-459.0" type="qcurve" smooth="yes"/>
      <point x="236.25" y="-459.0"/>
      <point x="-2.0" y="-276.0"/>
      <point x="-2.0" y="-102.0" type="qcurve" smooth="yes"/>
      <point x="-2.0" y="68.25"/>
      <point x="231.25" y="249.75"/>
      <point x="451.0" y="258.0" type="qcurve" smooth="yes"/>
      <point x="558.25" y="261.0"/>
      <point x="680.0" y="316.75"/>
      <point x="680.0" y="367.0" type="qcurve" smooth="yes"/>
      <point x="680.0" y="421.2903225806452"/>
      <point x="633.0" y="441.0" type="qcurve" smooth="yes"/>
      <point x="583.7692307692307" y="461.0"/>
      <point x="461" y="461" type="qcurve" smooth="yes"/>
      <point x="313" y="461" type="line"/>
      <point x="313" y="715" type="line"/>
      <point x="436.0" y="715.0" type="line" smooth="yes"/>
      <point x="551.6923076923077" y="715.0"/>
      <point x="604.0" y="735.0" type="qcurve" smooth="yes"/>
      <point x="655.0" y="754.5"/>
      <point x="655.0" y="799.0" type="qcurve" smooth="yes"/>
      <point x="655.0" y="874.0"/>
      <point x="506.0" y="874.0" type="qcurve" smooth="yes"/>
      <point x="361.6170212765957" y="874.0"/>
      <point x="203" y="803" type="qcurve"/>
      <point x="92.0" y="1067.0" type="line"/>
      <point x="137.0" y="1085.75"/>
      <point x="225.25" y="1114.75"/>
      <point x="268.0" y="1126.0" type="qcurve"/>
      <point x="216.25" y="1189.75"/>
      <point x="131.75" y="1289.75"/>
      <point x="98" y="1325" type="qcurve"/>
      <point x="98" y="1352" type="line"/>
      <point x="342.0" y="1352.0" type="line"/>
      <point x="462.07109004739334" y="1258.6113744075828"/>
      <point x="547.0" y="1157.0" type="qcurve"/>
      <point x="613.75" y="1246.25"/>
      <point x="713.5" y="1345.75"/>
      <point x="763.0" y="1369.0" type="qcurve" smooth="yes"/>
      <point x="819.1052631578947" y="1395.0"/>
      <point x="897.0" y="1395.0" type="qcurve" smooth="yes"/>
      <point x="980.4615384615385" y="1395.0"/>
      <point x="1036" y="1376" type="qcurve"/>
      <point x="1036.0" y="1200.0" type="line"/>
      <point x="1000.2222222222222" y="1214.0"/>
      <point x="934.0" y="1214.0" type="qcurve" smooth="yes"/>
      <point x="897.25" y="1214.0"/>
      <point x="824.75" y="1158.0"/>
      <point x="797.0" y="1116.0" type="qcurve"/>
      <point x="1024.0" y="1043.841059602649"/>
      <point x="1024.0" y="846.0" type="qcurve" smooth="yes"/>
      <point x="1024.0" y="755.25"/>
      <point x="912.75" y="622.0"/>
      <point x="819" y="598" type="qcurve"/>
      <point x="819.0" y="588.0" type="line"/>
      <point x="939.0" y="572.25"/>
      <point x="1071.0" y="433.75"/>
      <point x="1071.0" y="322.0" type="qcurve" smooth="yes"/>
      <point x="1071.0" y="148.0"/>
      <point x="821.0" y="-11.0"/>
      <point x="551.0" y="-20.0" type="qcurve" smooth="yes"/>
      <point x="442.640625" y="-25.9375"/>
      <point x="402.0" y="-44.0" type="qcurve" smooth="yes"/>
      <point x="362.0" y="-63.25925925925926"/>
      <point x="362.0" y="-102.0" type="qcurve" smooth="yes"/>
      <point x="362.0" y="-146.25"/>
      <point x="434.0" y="-176.0"/>
      <point x="494.0" y="-176.0" type="qcurve" smooth="yes"/>
      <point x="562.25" y="-176.0"/>
      <point x="720.0" y="-166.0"/>
      <point x="780.0" y="-166.0" type="qcurve" smooth="yes"/>
      <point x="891.6551724137931" y="-166.0"/>
      <point x="948" y="-209" type="qcurve"/>
    </contour>
  </outline>
</glyph>
<glyph name="Fita-cy" format="1">
  <advance width="1632"/>
  <unicode hex="0472"/>
  <note>
afii10147
</note>
  <outline>
    <contour>
      <point x="815.0" y="-20.0" type="qcurve" smooth="yes"/>
      <point x="470.75" y="-20.0"/>
      <point x="104.0" y="366.0"/>
      <point x="104.0" y="735.0" type="qcurve" smooth="yes"/>
      <point x="104.0" y="1100.25"/>
      <point x="469.0" y="1485.0"/>
      <point x="817.0" y="1485.0" type="qcurve" smooth="yes"/>
      <point x="1165.75" y="1485.0"/>
      <point x="1526.0" y="1102.75"/>
      <point x="1526.0" y="733.0" type="qcurve" smooth="yes"/>
      <point x="1526.0" y="364.0"/>
      <point x="1163.75" y="-20.0"/>
    </contour>
    <contour>
      <point x="815.0" y="289.0" type="qcurve" smooth="yes"/>
      <point x="1105.5586854460093" y="289.0"/>
      <point x="1143" y="608" type="qcurve"/>
      <point x="487.0" y="608.0" type="line"/>
      <point x="528.9342723004695" y="289.0"/>
    </contour>
    <contour>
      <point x="494" y="899" type="qcurve"/>
      <point x="1137.0" y="899.0" type="line"/>
      <point x="1086.0899470899471" y="1182.0"/>
      <point x="817.0" y="1182.0" type="qcurve" smooth="yes"/>
      <point x="549.4021164021165" y="1182.0"/>
    </contour>
  </outline>
</glyph>
<glyph name="Izhitsa-cy" format="1">
  <advance width="1530"/>
  <unicode hex="0474"/>
  <note>
afii10148
</note>
  <outline>
    <contour>
      <point x="498" y="0" type="line"/>
      <point x="0" y="1462" type="line"/>
      <point x="444" y="1462" type="line"/>
      <point x="659.0" y="694.0" type="line" smooth="yes"/>
      <point x="669.5" y="655.5"/>
      <point x="698.0833333333334" y="527.5833333333333"/>
      <point x="721.0" y="400.0"/>
      <point x="723.0" y="362.0" type="qcurve"/>
      <point x="727.0" y="400.5"/>
      <point x="751.7499999999999" y="523.5"/>
      <point x="781.5" y="648.5"/>
      <point x="793" y="690" type="qcurve" smooth="yes"/>
      <point x="885.0" y="1085.0" type="line" smooth="yes"/>
      <point x="924.75" y="1250.0"/>
      <point x="1019.75" y="1408.5"/>
      <point x="1094.0" y="1446.0" type="qcurve" smooth="yes"/>
      <point x="1166.52" y="1483.0"/>
      <point x="1278.0" y="1483.0" type="qcurve" smooth="yes"/>
      <point x="1335.0" y="1483.0"/>
      <point x="1466.0" y="1458.75"/>
      <point x="1505" y="1440" type="qcurve"/>
      <point x="1505.0" y="1139.0" type="line"/>
      <point x="1466.5384615384614" y="1159.0"/>
      <point x="1405.0" y="1159.0" type="qcurve" smooth="yes"/>
      <point x="1354.5238095238096" y="1159.0"/>
      <point x="1325.0" y="1128.0" type="qcurve" smooth="yes"/>
      <point x="1295.4368932038835" y="1097.0291262135922"/>
      <point x="1274" y="1022" type="qcurve" smooth="yes"/>
      <point x="963" y="0" type="line"/>
    </contour>
    <contour>
      <point x="765" y="1462" type="move" name="top"/>
    </contour>
  </outline>
</glyph>
<glyph name="uni047C" format="1">
  <advance width="2316"/>
  <unicode hex="047C"/>
  <note>
uni047C
</note>
  <outline>
    <contour>
      <point x="721.0" y="-20.0" type="qcurve" smooth="yes"/>
      <point x="531.25" y="-20.0"/>
      <point x="251.5" y="175.5"/>
      <point x="178.0" y="354.0" type="qcurve" smooth="yes"/>
      <point x="104.0" y="533.7142857142857"/>
      <point x="104.0" y="770.0" type="qcurve" smooth="yes"/>
      <point x="104.0" y="1103.75"/>
      <point x="426.25" y="1481.0"/>
      <point x="721.0" y="1481.0" type="qcurve" smooth="yes"/>
      <point x="775.0" y="1481.0"/>
      <point x="901.6666666666667" y="1451.833333333333"/>
      <point x="1018.9999999999999" y="1400.0"/>
      <point x="1059" y="1366" type="qcurve"/>
      <point x="928.0" y="1087.0" type="line"/>
      <point x="828.2127659574468" y="1157.0"/>
      <point x="739.0" y="1157.0" type="qcurve" smooth="yes"/>
      <point x="662.5454545454545" y="1157.0"/>
      <point x="608.0" y="1107.0" type="qcurve" smooth="yes"/>
      <point x="557.75" y="1059.75"/>
      <point x="502.0" y="880.75"/>
      <point x="502.0" y="748.0" type="qcurve" smooth="yes"/>
      <point x="502.0" y="492.52777777777777"/>
      <point x="612.0" y="381.0" type="qcurve" smooth="yes"/>
      <point x="684.0" y="309.0"/>
      <point x="795.0" y="309.0" type="qcurve" smooth="yes"/>
      <point x="869.0" y="309.0"/>
      <point x="972.9166666666665" y="347.08333333333326"/>
      <point x="1078.5" y="443.5"/>
      <point x="1155.0" y="531.0" type="qcurve"/>
      <point x="1231.5" y="443.5"/>
      <point x="1338.333333333333" y="347.08333333333326"/>
      <point x="1444.5" y="309.0"/>
      <point x="1520.0" y="309.0" type="qcurve" smooth="yes"/>
      <point x="1624.0" y="309.0"/>
      <point x="1693.0" y="372.0" type="qcurve" smooth="yes"/>
      <point x="1812.0" y="480.1818181818182"/>
      <point x="1812.0" y="748.0" type="qcurve" smooth="yes"/>
      <point x="1812.0" y="876.25"/>
      <point x="1760.25" y="1052.75"/>
      <point x="1713.0" y="1100.0" type="qcurve" smooth="yes"/>
      <point x="1656.0" y="1157.0"/>
      <point x="1575.0" y="1157.0" type="qcurve" smooth="yes"/>
      <point x="1476.872340425532" y="1157.0"/>
      <point x="1389" y="1087" type="qcurve"/>
      <point x="1255.0" y="1366.0" type="line"/>
      <point x="1318.0" y="1419.25"/>
      <point x="1508.75" y="1481.0"/>
      <point x="1595.0" y="1481.0" type="qcurve" smooth="yes"/>
      <point x="1889.0" y="1481.0"/>
      <point x="2210.0" y="1105.25"/>
      <point x="2210.0" y="770.0" type="qcurve" smooth="yes"/>
      <point x="2210.0" y="527.0"/>
      <point x="2055.75" y="170.25"/>
      <point x="1908.0" y="75.0" type="qcurve" smooth="yes"/>
      <point x="1758.7142857142858" y="-20.0"/>
      <point x="1552.0" y="-20.0" type="qcurve" smooth="yes"/>
      <point x="1416.25" y="-20.0"/>
      <point x="1234.0" y="58.75"/>
      <point x="1156" y="154" type="qcurve"/>
      <point x="1154.0" y="154.0" type="line"/>
      <point x="1070.0" y="58.75"/>
      <point x="871.75" y="-20.0"/>
    </contour>
    <contour>
      <point x="1014" y="1495" type="qcurve"/>
      <point x="1014.0" y="1597.0" type="line"/>
      <point x="1073.25" y="1600.75"/>
      <point x="1128.0" y="1651.25"/>
      <point x="1128.0" y="1679.0" type="qcurve" smooth="yes"/>
      <point x="1128.0" y="1725.5"/>
      <point x="1062.0" y="1739.0" type="qcurve" smooth="yes"/>
      <point x="995.0" y="1752.4"/>
      <point x="995.0" y="1810.0" type="qcurve" smooth="yes"/>
      <point x="995.0" y="1867.0"/>
      <point x="1095.0" y="1935.0"/>
      <point x="1182.0" y="1935.0" type="qcurve" smooth="yes"/>
      <point x="1272.75" y="1935.0"/>
      <point x="1368.0" y="1832.75"/>
      <point x="1368.0" y="1751.0" type="qcurve" smooth="yes"/>
      <point x="1368.0" y="1631.0"/>
      <point x="1179.0" y="1495.0"/>
    </contour>
    <contour>
      <point x="764" y="1937" type="line"/>
      <point x="764.0" y="1999.0" type="line" smooth="yes"/>
      <point x="764.0" y="2160.25"/>
      <point x="908.25" y="2302.0"/>
      <point x="1047.0" y="2302.0" type="qcurve" smooth="yes"/>
      <point x="1113.75" y="2302.0"/>
      <point x="1238.0" y="2264.25"/>
      <point x="1301.0" y="2241.0" type="qcurve" smooth="yes"/>
      <point x="1317.5" y="2234.25"/>
      <point x="1351.75" y="2222.0"/>
      <point x="1369.0" y="2216.0" type="qcurve" smooth="yes"/>
      <point x="1480.0" y="2179.0"/>
      <point x="1589" y="2179" type="qcurve"/>
      <point x="1589" y="1937" type="line"/>
      <point x="1573.0" y="1937.0" type="line" smooth="yes"/>
      <point x="1486.0" y="1937.0"/>
      <point x="1357.0" y="1953.75"/>
      <point x="1306.0" y="1968.0" type="qcurve" smooth="yes"/>
      <point x="1255.0" y="1981.5"/>
      <point x="1180.0" y="2016.0" type="qcurve" smooth="yes"/>
      <point x="1118.1052631578948" y="2044.0"/>
      <point x="1079.0" y="2044.0" type="qcurve" smooth="yes"/>
      <point x="1033.25" y="2044.0"/>
      <point x="983.0" y="1987.25"/>
      <point x="983" y="1937" type="qcurve"/>
    </contour>
  </outline>
</glyph>
<glyph name="uni047D" format="1">
  <advance width="1853"/>
  <unicode hex="047D"/>
  <note>
uni047D
</note>
  <outline>
    <contour>
      <point x="592.0" y="-20.0" type="qcurve" smooth="yes"/>
      <point x="307.75" y="-20.0"/>
      <point x="41.0" y="287.0"/>
      <point x="41.0" y="590.0" type="qcurve" smooth="yes"/>
      <point x="41.0" y="869.0"/>
      <point x="305.75" y="1153.0"/>
      <point x="578.0" y="1153.0" type="qcurve" smooth="yes"/>
      <point x="742.6341463414634" y="1153.0"/>
      <point x="881" y="1092" type="qcurve"/>
      <point x="778.0" y="823.0" type="line"/>
      <point x="706.0" y="862.0"/>
      <point x="625.0" y="862.0" type="qcurve" smooth="yes"/>
      <point x="528.25" y="862.0"/>
      <point x="438.0" y="731.75"/>
      <point x="438.0" y="590.0" type="qcurve" smooth="yes"/>
      <point x="438.0" y="440.0"/>
      <point x="537.25" y="270.0"/>
      <point x="625.0" y="270.0" type="qcurve" smooth="yes"/>
      <point x="792.1061946902655" y="270.0"/>
      <point x="926.0" y="440.0" type="qcurve"/>
      <point x="1056.8849557522124" y="270.0"/>
      <point x="1227.0" y="270.0" type="qcurve" smooth="yes"/>
      <point x="1314.0" y="270.0"/>
      <point x="1415.0" y="439.25"/>
      <point x="1415.0" y="590.0" type="qcurve" smooth="yes"/>
      <point x="1415.0" y="731.75"/>
      <point x="1325.25" y="862.0"/>
      <point x="1227.0" y="862.0" type="qcurve" smooth="yes"/>
      <point x="1153.0" y="862.0"/>
      <point x="1075" y="823" type="qcurve"/>
      <point x="971.0" y="1092.0" type="line"/>
      <point x="1106.3902439024391" y="1153.0"/>
      <point x="1276.0" y="1153.0" type="qcurve" smooth="yes"/>
      <point x="1812.0" y="1153.0"/>
      <point x="1812.0" y="590.0" type="qcurve" smooth="yes"/>
      <point x="1812.0" y="287.0"/>
      <point x="1545.0" y="-20.0"/>
      <point x="1260.0" y="-20.0" type="qcurve" smooth="yes"/>
      <point x="1146.0" y="-20.0"/>
      <point x="979.75" y="61.0"/>
      <point x="928.0" y="121.0" type="qcurve"/>
      <point x="791.5" y="-20.0"/>
    </contour>
    <contour>
      <point x="784" y="1176" type="qcurve"/>
      <point x="784.0" y="1278.0" type="line"/>
      <point x="841.75" y="1281.0"/>
      <point x="899.0" y="1332.25"/>
      <point x="899.0" y="1360.0" type="qcurve" smooth="yes"/>
      <point x="899.0" y="1406.5"/>
      <point x="833.0" y="1420.0" type="qcurve" smooth="yes"/>
      <point x="766.0" y="1433.4"/>
      <point x="766.0" y="1491.0" type="qcurve" smooth="yes"/>
      <point x="766.0" y="1548.75"/>
      <point x="865.0" y="1616.0"/>
      <point x="952.0" y="1616.0" type="qcurve" smooth="yes"/>
      <point x="1038.25" y="1616.0"/>
      <point x="1139.0" y="1518.25"/>
      <point x="1139.0" y="1432.0" type="qcurve" smooth="yes"/>
      <point x="1139.0" y="1312.0"/>
      <point x="949.75" y="1176.0"/>
    </contour>
    <contour>
      <point x="535" y="1618" type="line"/>
      <point x="535.0" y="1679.0" type="line" smooth="yes"/>
      <point x="535.0" y="1840.25"/>
      <point x="679.0" y="1982.0"/>
      <point x="817.0" y="1982.0" type="qcurve" smooth="yes"/>
      <point x="859.75" y="1982.0"/>
      <point x="941.25" y="1965.75"/>
      <point x="981.0" y="1953.0" type="qcurve" smooth="yes"/>
      <point x="1003.5" y="1945.5"/>
      <point x="1048.5" y="1929.25"/>
      <point x="1071.0" y="1921.0" type="qcurve" smooth="yes"/>
      <point x="1161.75" y="1887.25"/>
      <point x="1289.5" y="1860.0"/>
      <point x="1360" y="1860" type="qcurve"/>
      <point x="1360" y="1618" type="line"/>
      <point x="1343.0" y="1618.0" type="line" smooth="yes"/>
      <point x="1135.6857142857143" y="1618.0"/>
      <point x="1010.0" y="1671.0" type="qcurve" smooth="yes"/>
      <point x="995.0" y="1677.75"/>
      <point x="966.0" y="1690.25"/>
      <point x="951.0" y="1697.0" type="qcurve" smooth="yes"/>
      <point x="886.5" y="1724.0"/>
      <point x="850.0" y="1724.0" type="qcurve" smooth="yes"/>
      <point x="802.75" y="1724.0"/>
      <point x="754.0" y="1666.75"/>
      <point x="754" y="1618" type="qcurve"/>
    </contour>
  </outline>
</glyph>
<glyph name="uni047E" format="1">
  <advance width="2316"/>
  <unicode hex="047E"/>
  <note>
uni047E
</note>
  <outline>
    <contour>
      <point x="721.0" y="-20.0" type="qcurve" smooth="yes"/>
      <point x="531.25" y="-20.0"/>
      <point x="251.5" y="175.5"/>
      <point x="178.0" y="354.0" type="qcurve" smooth="yes"/>
      <point x="104.0" y="533.7142857142857"/>
      <point x="104.0" y="770.0" type="qcurve" smooth="yes"/>
      <point x="104.0" y="1155.0514705882354"/>
      <point x="313.0" y="1341.0" type="qcurve" smooth="yes"/>
      <point x="469.9230769230769" y="1481.0"/>
      <point x="721.0" y="1481.0" type="qcurve" smooth="yes"/>
      <point x="775.0" y="1481.0"/>
      <point x="901.6666666666667" y="1451.833333333333"/>
      <point x="1018.9999999999999" y="1400.0"/>
      <point x="1059" y="1366" type="qcurve"/>
      <point x="928.0" y="1087.0" type="line"/>
      <point x="828.2127659574468" y="1157.0"/>
      <point x="739.0" y="1157.0" type="qcurve" smooth="yes"/>
      <point x="651.4418604651163" y="1157.0"/>
      <point x="594.0" y="1092.0" type="qcurve" smooth="yes"/>
      <point x="502.0" y="990.6440677966102"/>
      <point x="502.0" y="748.0" type="qcurve" smooth="yes"/>
      <point x="502.0" y="524.1785714285714"/>
      <point x="588.0" y="409.0" type="qcurve" smooth="yes"/>
      <point x="663.3846153846154" y="309.0"/>
      <point x="795.0" y="309.0" type="qcurve" smooth="yes"/>
      <point x="857.25" y="309.0"/>
      <point x="933.25" y="348.75"/>
      <point x="961" y="375" type="qcurve"/>
      <point x="961" y="731" type="line"/>
      <point x="1350" y="731" type="line"/>
      <point x="1350.0" y="375.0" type="line"/>
      <point x="1377.0" y="341.25"/>
      <point x="1454.0" y="309.0"/>
      <point x="1520.0" y="309.0" type="qcurve" smooth="yes"/>
      <point x="1646.0983606557377" y="309.0"/>
      <point x="1720.0" y="401.0" type="qcurve" smooth="yes"/>
      <point x="1812.0" y="514.4666666666667"/>
      <point x="1812.0" y="748.0" type="qcurve" smooth="yes"/>
      <point x="1812.0" y="868.75"/>
      <point x="1766.0" y="1038.5"/>
      <point x="1724.0" y="1088.0" type="qcurve" smooth="yes"/>
      <point x="1665.5" y="1157.0"/>
      <point x="1575.0" y="1157.0" type="qcurve" smooth="yes"/>
      <point x="1476.872340425532" y="1157.0"/>
      <point x="1389" y="1087" type="qcurve"/>
      <point x="1255.0" y="1366.0" type="line"/>
      <point x="1318.0" y="1419.25"/>
      <point x="1508.75" y="1481.0"/>
      <point x="1595.0" y="1481.0" type="qcurve" smooth="yes"/>
      <point x="1836.5294117647059" y="1481.0"/>
      <point x="1991.0" y="1351.0" type="qcurve" smooth="yes"/>
      <point x="2097.5" y="1261.0"/>
      <point x="2210.0" y="966.5"/>
      <point x="2210.0" y="770.0" type="qcurve" smooth="yes"/>
      <point x="2210.0" y="527.0"/>
      <point x="2055.75" y="170.25"/>
      <point x="1908.0" y="75.0" type="qcurve" smooth="yes"/>
      <point x="1758.7142857142858" y="-20.0"/>
      <point x="1552.0" y="-20.0" type="qcurve" smooth="yes"/>
      <point x="1416.25" y="-20.0"/>
      <point x="1234.0" y="58.75"/>
      <point x="1156" y="154" type="qcurve"/>
      <point x="1154.0" y="154.0" type="line"/>
      <point x="1070.0" y="58.75"/>
      <point x="871.75" y="-20.0"/>
    </contour>
    <contour>
      <point x="819" y="1561" type="line"/>
      <point x="739" y="1733" type="line"/>
      <point x="739" y="1860" type="line"/>
      <point x="1573" y="1860" type="line"/>
      <point x="1573" y="1733" type="line"/>
      <point x="1491" y="1561" type="line"/>
      <point x="1421" y="1561" type="line"/>
      <point x="1372" y="1663" type="line"/>
      <point x="1239" y="1663" type="line"/>
      <point x="1190" y="1561" type="line"/>
      <point x="1120" y="1561" type="line"/>
      <point x="1071" y="1663" type="line"/>
      <point x="938" y="1663" type="line"/>
      <point x="889" y="1561" type="line"/>
    </contour>
  </outline>
</glyph>
<glyph name="koppa-cy" format="1">
  <advance width="1114"/>
  <unicode hex="0481"/>
  <note>
uni0481
</note>
  <outline>
    <contour>
      <point x="623" y="-492" type="line"/>
      <point x="623" y="167" type="line"/>
      <point x="780.0" y="-14.0" type="line"/>
      <point x="735.5555555555555" y="-18.444444444444443"/>
      <point x="692.0" y="-20.0" type="qcurve" smooth="yes"/>
      <point x="393.5" y="-29.75"/>
      <point x="86.0" y="268.5"/>
      <point x="86.0" y="561.0" type="qcurve" smooth="yes"/>
      <point x="86.0" y="843.0"/>
      <point x="396.25" y="1153.0"/>
      <point x="682.0" y="1153.0" type="qcurve" smooth="yes"/>
      <point x="877.9824561403509" y="1153.0"/>
      <point x="1053" y="1067" type="qcurve"/>
      <point x="938.0" y="778.0" type="line"/>
      <point x="866.75" y="808.75"/>
      <point x="747.25" y="846.0"/>
      <point x="682.0" y="846.0" type="qcurve" smooth="yes"/>
      <point x="586.75" y="846.0"/>
      <point x="483.0" y="698.0"/>
      <point x="483.0" y="563.0" type="qcurve" smooth="yes"/>
      <point x="483.0" y="291.0"/>
      <point x="684.0" y="291.0" type="qcurve" smooth="yes"/>
      <point x="857.2835820895523" y="291.0"/>
      <point x="1014" y="391" type="qcurve"/>
      <point x="1014" y="-492" type="line"/>
    </contour>
  </outline>
</glyph>
<glyph name="Iishorttail-cy" format="1">
  <advance width="1905"/>
  <unicode hex="048A"/>
  <note>
    uni048A
  </note>
  <outline>
    <contour>
      <point x="1262" y="-455" type="line"/>
      <point x="1698" y="-455" type="line"/>
      <point x="1888" y="324" type="line"/>
      <point x="1573" y="324" type="line"/>
      <point x="1573" y="1462" type="line"/>
      <point x="1085" y="1462" type="line"/>
      <point x="502" y="434" type="line"/>
      <point x="494" y="434" type="line"/>
      <point x="505" y="634"/>
      <point x="510" y="767"/>
      <point x="510" y="834" type="curve" smooth="yes"/>
      <point x="510" y="1462" type="line"/>
      <point x="158" y="1462" type="line"/>
      <point x="158" y="0" type="line"/>
      <point x="645" y="0" type="line"/>
      <point x="1233" y="1028" type="line"/>
      <point x="1241" y="1028" type="line"/>
      <point x="1229" y="843"/>
      <point x="1223" y="705"/>
      <point x="1223" y="612" type="curve" smooth="yes"/>
      <point x="1223" y="0" type="line"/>
      <point x="1462" y="0" type="line"/>
    </contour>
    <contour>
      <point x="862" y="1579" type="curve" smooth="yes"/>
      <point x="1165" y="1579"/>
      <point x="1331" y="1706"/>
      <point x="1358" y="1960" type="curve"/>
      <point x="1026" y="1960" type="line"/>
      <point x="1015" y="1835"/>
      <point x="965" y="1774"/>
      <point x="862" y="1774" type="curve" smooth="yes"/>
      <point x="749" y="1774"/>
      <point x="705" y="1835"/>
      <point x="698" y="1960" type="curve"/>
      <point x="373" y="1960" type="line"/>
      <point x="390" y="1704"/>
      <point x="539" y="1579"/>
    </contour>
  </outline>
</glyph>
<glyph name="iishorttail-cy" format="1">
  <advance width="1624"/>
  <unicode hex="048B"/>
  <note>
uni048B
</note>
  <outline>
    <contour>
      <point x="1092" y="-416" type="line"/>
      <point x="1237" y="0" type="line"/>
      <point x="1006" y="0" type="line"/>
      <point x="1006.0" y="307.0" type="line" smooth="yes"/>
      <point x="1006.0" y="387.25"/>
      <point x="1013.25" y="577.75"/>
      <point x="1020" y="688" type="qcurve"/>
      <point x="569" y="0" type="line"/>
      <point x="135" y="0" type="line"/>
      <point x="135" y="1133" type="line"/>
      <point x="483" y="1133" type="line"/>
      <point x="483.0" y="848.0" type="line" smooth="yes"/>
      <point x="483.0" y="780.5"/>
      <point x="475.75" y="581.0"/>
      <point x="469" y="440" type="qcurve"/>
      <point x="922" y="1133" type="line"/>
      <point x="1354" y="1133" type="line"/>
      <point x="1354" y="272" type="line"/>
      <point x="1612" y="272" type="line"/>
      <point x="1456" y="-416" type="line"/>
    </contour>
    <contour>
      <point x="758.0" y="1241.0" type="qcurve" smooth="yes"/>
      <point x="518.75" y="1241.0"/>
      <point x="282.25" y="1427.0"/>
      <point x="268" y="1622" type="qcurve"/>
      <point x="594.0" y="1622.0" type="line"/>
      <point x="599.25" y="1523.75"/>
      <point x="674.75" y="1436.0"/>
      <point x="758.0" y="1436.0" type="qcurve" smooth="yes"/>
      <point x="908.5" y="1436.0"/>
      <point x="922" y="1622" type="qcurve"/>
      <point x="1253.0" y="1622.0" type="line"/>
      <point x="1212.5" y="1241.0"/>
    </contour>
  </outline>
</glyph>
